<?xml version="1.0" encoding="UTF-8" standalone="no"?>
<!-- Created with Inkscape (http://www.inkscape.org/) -->

<svg
   xmlns:dc="http://purl.org/dc/elements/1.1/"
   xmlns:cc="http://creativecommons.org/ns#"
   xmlns:rdf="http://www.w3.org/1999/02/22-rdf-syntax-ns#"
   xmlns:svg="http://www.w3.org/2000/svg"
   xmlns="http://www.w3.org/2000/svg"
   xmlns:sodipodi="http://sodipodi.sourceforge.net/DTD/sodipodi-0.dtd"
   xmlns:inkscape="http://www.inkscape.org/namespaces/inkscape"
   inkscape:version="0.92.3 (2405546, 2018-03-11)"
   version="1.1"
   id="svg7882"
   viewBox="0 0 256.18109 133.93832"
   height="37.800369mm"
   width="72.299995mm"
   sodipodi:docname="CBVcharacterization-analysis-v2.svg">
  <defs
     id="defs7884" />
  <sodipodi:namedview
     inkscape:window-maximized="1"
     inkscape:window-y="30"
     inkscape:window-x="-8"
     inkscape:window-height="1027"
     inkscape:window-width="1920"
     inkscape:snap-grids="true"
     inkscape:snap-object-midpoints="true"
     inkscape:object-nodes="true"
     showgrid="false"
     inkscape:current-layer="layer3"
     inkscape:document-units="mm"
     inkscape:cy="27.723598"
     inkscape:cx="95.06524"
     inkscape:zoom="2.8284271"
     inkscape:pageshadow="2"
     inkscape:pageopacity="0"
     borderopacity="0"
     bordercolor="#ffffff"
     pagecolor="#ffffff"
     id="base"
     inkscape:snap-intersection-paths="true"
     showguides="false"
     fit-margin-top="0"
     fit-margin-left="0"
     fit-margin-right="0"
     fit-margin-bottom="0"
     showborder="false"
     inkscape:showpageshadow="false"
     borderlayer="false"
     inkscape:snap-to-guides="true">
    <inkscape:grid
       type="xygrid"
       id="grid8430"
       units="mm"
       spacingx="0.17716536"
       spacingy="0.17716536"
       originx="-298.87797"
       originy="-653.20815" />
  </sodipodi:namedview>
  <metadata
     id="metadata7887">
    <rdf:RDF>
      <cc:Work
         rdf:about="">
        <dc:format>image/svg+xml</dc:format>
        <dc:type
           rdf:resource="http://purl.org/dc/dcmitype/StillImage" />
        <dc:title />
      </cc:Work>
    </rdf:RDF>
  </metadata>
  <g
     inkscape:groupmode="layer"
     id="layer6"
     inkscape:label="_background"
     transform="translate(-8.503953,-8.5025221)"
     style="display:inline">
    <rect
       style="opacity:1;fill:#ffffff;fill-opacity:1;fill-rule:nonzero;stroke:none;stroke-width:0.35433072;stroke-linecap:square;stroke-linejoin:miter;stroke-miterlimit:4;stroke-dasharray:none;stroke-dashoffset:0;stroke-opacity:1;paint-order:fill markers stroke"
       id="rect5142"
       width="256.18109"
       height="133.93701"
       x="8.503953"
       y="8.5032692"
       inkscape:export-filename="C:\Users\u0116907\Desktop\design burst pressure characterisation yura.png"
       inkscape:export-xdpi="600"
       inkscape:export-ydpi="600" />
  </g>
  <g
     inkscape:groupmode="layer"
     id="layer5"
     inkscape:label="4 - burst plug"
     transform="translate(-8.503953,-8.5025221)">
    <rect
       transform="translate(-290.37402,-256.71329)"
       style="opacity:1;fill:#ff0000;fill-opacity:1;fill-rule:nonzero;stroke:none;stroke-width:0.17716534;stroke-linecap:square;stroke-linejoin:miter;stroke-miterlimit:4;stroke-dasharray:none;stroke-dashoffset:0;stroke-opacity:1;paint-order:fill markers stroke"
       id="rect8432-11-0-1-1-6-8"
       width="35.433048"
       height="1.7716535"
       x="471.25986"
       y="289.66534"
       inkscape:export-filename="C:\Users\u0116907\Desktop\design burst pressure characterisation yura.png"
       inkscape:export-xdpi="600"
       inkscape:export-ydpi="600" />
  </g>
  <g
     inkscape:groupmode="layer"
     id="layer4"
     inkscape:label="3 - push plug"
     transform="translate(-8.503953,-8.5025221)">
    <rect
       transform="translate(-290.37402,-256.71329)"
       style="opacity:1;fill:#006b00;fill-opacity:1;fill-rule:nonzero;stroke:none;stroke-width:0.17716534;stroke-linecap:square;stroke-linejoin:miter;stroke-miterlimit:4;stroke-dasharray:none;stroke-dashoffset:0;stroke-opacity:1;paint-order:fill markers stroke"
       id="rect8432-2-4-6-3-8-4-7-6-1"
       width="36.318897"
       height="1.7716535"
       x="413.68112"
       y="374.70471"
       inkscape:export-filename="C:\Users\u0116907\Desktop\design burst pressure characterisation yura.png"
       inkscape:export-xdpi="600"
       inkscape:export-ydpi="600" />
  </g>
  <g
     inkscape:groupmode="layer"
     id="layer3"
     inkscape:label="2 - initial burst plug "
     transform="translate(-8.503953,-8.5025221)">
    <rect
       transform="translate(-290.37402,-256.71329)"
       style="opacity:1;fill:#ffeeaa;fill-opacity:1;fill-rule:nonzero;stroke:none;stroke-width:0.17716534;stroke-linecap:square;stroke-linejoin:miter;stroke-miterlimit:4;stroke-dasharray:none;stroke-dashoffset:0;stroke-opacity:1;paint-order:fill markers stroke"
       id="rect8432-11-0-1-1-6"
       width="23.917341"
       height="1.7716535"
       x="442.02756"
       y="289.66531"
       inkscape:export-filename="C:\Users\u0116907\Desktop\design burst pressure characterisation yura.png"
       inkscape:export-xdpi="600"
       inkscape:export-ydpi="600" />
  </g>
  <g
     inkscape:label="1 - initial push plug"
     inkscape:groupmode="layer"
     id="layer1"
     transform="translate(-298.87797,-265.21581)">
    <rect
       style="opacity:1;fill:#0000ff;fill-opacity:1;fill-rule:nonzero;stroke:none;stroke-width:0.17716534;stroke-linecap:square;stroke-linejoin:miter;stroke-miterlimit:4;stroke-dasharray:none;stroke-dashoffset:0;stroke-opacity:1;paint-order:fill markers stroke"
       id="rect8432-2-4-6-3-8-4-7-6"
       width="38.976418"
       height="1.7716535"
       x="366.73227"
       y="374.70465"
       inkscape:export-filename="C:\Users\u0116907\Desktop\design burst pressure characterisation yura.png"
       inkscape:export-xdpi="600"
       inkscape:export-ydpi="600" />
  </g>
  <g
     inkscape:groupmode="layer"
     id="layer2"
     inkscape:label="overlay"
     transform="translate(-8.503953,-8.5025221)"
     style="display:inline">
    <path
       inkscape:connector-curvature="0"
       style="opacity:1;fill:none;fill-opacity:0.43880597;fill-rule:nonzero;stroke:#000000;stroke-width:0.35433072;stroke-linecap:square;stroke-linejoin:miter;stroke-miterlimit:4;stroke-dasharray:none;stroke-dashoffset:0;stroke-opacity:1;paint-order:fill markers stroke"
       d="M 8.6816406,8.6796875 V 142.26367 H 264.50781 V 8.6796875 Z M 124.06836,12.460938 a 3.5433071,3.5433071 0 0 1 3.54492,3.542968 3.5433071,3.5433071 0 0 1 -0.13281,0.947266 l 27.7168,16.001953 h 84.27148 a 3.5433071,3.5433071 0 0 1 3.42578,-2.65625 3.5433071,3.5433071 0 0 1 3.54297,3.542969 3.5433071,3.5433071 0 0 1 -3.54297,3.542968 3.5433071,3.5433071 0 0 1 -3.42773,-2.658203 H 30.296875 v 0.002 a 9.7440948,9.7440948 0 0 0 -9.744141,9.744141 9.7440948,9.7440948 0 0 0 9.744141,9.744141 v -0.002 H 242.89453 a 11.515748,11.515748 0 0 1 11.51563,11.515625 11.515748,11.515748 0 0 1 -11.51563,11.515625 H 30.296875 a 9.7440948,9.7440948 0 0 0 -9.744141,9.74414 9.7440948,9.7440948 0 0 0 9.742188,9.744141 9.7440948,9.7440948 0 0 1 0.002,0 H 242.89458 a 11.515748,11.515748 0 0 1 11.51563,11.515628 11.515748,11.515748 0 0 1 -11.51563,11.51562 H 182.65825 76.359422 l -27.71875,16.00391 a 3.5433071,3.5433071 0 0 1 0.132813,0.94531 3.5433071,3.5433071 0 0 1 -3.542969,3.54492 3.5433071,3.5433071 0 0 1 -3.542969,-3.54492 3.5433071,3.5433071 0 0 1 3.542969,-3.54297 3.5433071,3.5433071 0 0 1 2.52539,1.0625 L 72.816453,119.76367 H 34.609422 a 3.5433071,3.5433071 0 0 1 -0.359375,0.88672 3.5433071,3.5433071 0 0 1 -4.839844,1.29688 3.5433071,3.5433071 0 0 1 -1.296875,-4.83985 3.5433071,3.5433071 0 0 1 4.839844,-1.29687 3.5433071,3.5433071 0 0 1 1.65625,2.18164 h 41.75 106.298828 60.23633 a 9.7440948,9.7440948 0 0 0 9.74414,-9.74414 9.7440948,9.7440948 0 0 0 -9.74414,-9.744144 H 30.296922 A 11.515748,11.515748 0 0 1 18.78125,86.988281 11.515748,11.515748 0 0 1 30.296875,75.472656 H 242.89453 a 9.7440948,9.7440948 0 0 0 9.74414,-9.74414 9.7440948,9.7440948 0 0 0 -9.74414,-9.744141 H 30.296875 v 0.002 A 11.515748,11.515748 0 0 1 18.78125,44.470703 11.515748,11.515748 0 0 1 30.296875,32.955078 v -0.002 H 151.6543 l -25.0586,-14.46875 a 3.5433071,3.5433071 0 0 1 -2.52734,1.0625 3.5433071,3.5433071 0 0 1 -3.54297,-3.542969 3.5433071,3.5433071 0 0 1 3.54297,-3.542968 z"
       id="rect10968-8-8-6-3-91-0-5" />
  </g>
</svg>
