<?xml version="1.0" encoding="UTF-8" standalone="no"?>
<!-- Created with Inkscape (http://www.inkscape.org/) -->

<svg
   xmlns:dc="http://purl.org/dc/elements/1.1/"
   xmlns:cc="http://creativecommons.org/ns#"
   xmlns:rdf="http://www.w3.org/1999/02/22-rdf-syntax-ns#"
   xmlns:svg="http://www.w3.org/2000/svg"
   xmlns="http://www.w3.org/2000/svg"
   xmlns:sodipodi="http://sodipodi.sourceforge.net/DTD/sodipodi-0.dtd"
   xmlns:inkscape="http://www.inkscape.org/namespaces/inkscape"
   width="80.189293mm"
   height="70.188866mm"
   viewBox="0 0 80.189293 70.188866"
   version="1.1"
   id="svg949"
   inkscape:version="0.92.3 (2405546, 2018-03-11)"
   sodipodi:docname="exp60deg-analysis.svg">
  <sodipodi:namedview
     id="base"
     pagecolor="#ffffff"
     bordercolor="#666666"
     borderopacity="1.0"
     inkscape:pageopacity="0.0"
     inkscape:pageshadow="2"
     inkscape:zoom="2"
     inkscape:cx="26.651706"
     inkscape:cy="149.7733"
     inkscape:document-units="mm"
     inkscape:current-layer="layer9"
     showgrid="false"
     showborder="false"
     inkscape:window-width="1920"
     inkscape:window-height="1017"
     inkscape:window-x="-8"
     inkscape:window-y="-8"
     inkscape:window-maximized="1"
     inkscape:measure-start="-484.5,-317.25"
     inkscape:measure-end="-457,-320"
     fit-margin-top="0"
     fit-margin-left="0"
     fit-margin-right="0"
     fit-margin-bottom="0"
     inkscape:pagecheckerboard="true" />
  <defs
     id="defs943" />
  <metadata
     id="metadata946">
    <rdf:RDF>
      <cc:Work
         rdf:about="">
        <dc:format>image/svg+xml</dc:format>
        <dc:type
           rdf:resource="http://purl.org/dc/dcmitype/StillImage" />
        <dc:title />
      </cc:Work>
    </rdf:RDF>
  </metadata>
  <g
     inkscape:groupmode="layer"
     id="layer9"
     inkscape:label="_background"
     style="display:inline"
     transform="translate(147.92955,-192.87575)">
    <rect
       style="display:inline;fill:#ffffff;fill-opacity:1;stroke:none;stroke-width:0.18947703;stroke-linecap:round;stroke-linejoin:round;stroke-miterlimit:4;stroke-dasharray:none;stroke-dashoffset:0;stroke-opacity:1;paint-order:stroke markers fill"
       id="rect1097"
       width="80.190308"
       height="70.186951"
       x="-147.93153"
       y="192.87378" />
  </g>
  <g
     inkscape:groupmode="layer"
     id="layer8"
     inkscape:label="3 - PM"
     style="display:inline"
     transform="translate(147.92955,-192.87575)">
    <path
       transform="matrix(0.28222223,0,0,0.28222223,-613.92893,-121.32992)"
       inkscape:connector-curvature="0"
       id="path910-7-1"
       d="m 1857.3258,1191.2017 a 95.669285,95.669285 0 0 0 -9.4002,-1.761 l -12.4076,91.3048 2.8063,2.1512 85.2566,-34.8994 a 95.669285,95.669285 0 0 0 -66.2551,-56.7956 z"
       style="fill:#727272;fill-opacity:1;stroke:none;stroke-width:0.03995151;stroke-linecap:round;stroke-linejoin:round;stroke-miterlimit:4;stroke-dasharray:none;stroke-dashoffset:0;stroke-opacity:0.98039216;paint-order:stroke markers fill" />
  </g>
  <g
     inkscape:groupmode="layer"
     id="layer7"
     inkscape:label="2 - WF"
     style="display:inline"
     transform="translate(147.92955,-192.87575)">
    <path
       transform="matrix(0.28222223,0,0,0.28222223,-613.92893,-121.32992)"
       sodipodi:nodetypes="ccccssccccccccccccccccccccccccccccc"
       inkscape:connector-curvature="0"
       style="opacity:1;fill:#00a7e4;fill-opacity:1;stroke:none;stroke-width:0.99921256;stroke-linecap:butt;stroke-linejoin:round;stroke-miterlimit:4;stroke-dasharray:none;stroke-dashoffset:0;stroke-opacity:1"
       d="m 1771.4534,1227.1331 c -6.8498,-5e-4 -12.4022,5.5537 -12.4018,12.4036 0,1.6685 0.3422,3.318 0.998,4.8523 0.1748,0.3682 0.3662,0.7532 0.54,1.1023 2.6224,5.3517 5.55,8.1822 5.55,17.0746 v 20.4657 c 0,4.4024 2.0394,8.5571 5.5279,11.2426 6.2103,4.7657 15.1054,3.5959 19.8706,-2.6147 l 12.9419,-16.8659 c 1.1909,-1.5535 3.4165,-1.847 4.9695,-0.6555 1.5528,1.1918 1.846,3.4171 0.6537,4.9695 l -12.9419,16.8659 c -4.7657,6.2102 -3.596,15.109 2.6147,19.8742 6.2103,4.7657 15.1091,3.5923 19.8743,-2.6184 l 6.471,-8.432 12.2032,-21.9003 -2.8063,-2.1512 -17.8308,17.5806 -6.4709,8.432 c -1.1909,1.5535 -3.4165,1.847 -4.9695,0.6555 -1.5528,-1.1918 -1.8442,-3.4171 -0.6519,-4.9695 v 0 l 12.9437,-16.8658 c 4.7658,-6.2103 3.5941,-15.1073 -2.6166,-19.8725 -6.2103,-4.7657 -15.1072,-3.5941 -19.8724,2.6166 l -12.9419,16.8658 c -1.1908,1.5535 -3.4165,1.847 -4.9695,0.6556 v 0 c -0.8732,-0.6708 -1.3662,-1.7096 -1.366,-2.8107 v -20.4659 c -0.2585,-6.7262 3.4905,-12.9248 5.4933,-16.9793 0.1993,-0.3652 0.3849,-0.756 0.543,-1.0766 0.6914,-1.5676 1.0505,-3.2599 1.0547,-4.9732 4e-4,-6.849 -5.5527,-12.4029 -12.4017,-12.4036 z"
       id="rect5149-8-1-6-8-6-0-7-9-5-7-7-6-1-1" />
  </g>
  <g
     inkscape:groupmode="layer"
     id="layer6"
     inkscape:label="1 - Sample"
     style="display:inline"
     transform="translate(147.92955,-192.87575)">
    <path
       style="fill:#be4242;fill-opacity:0.96279069;stroke:none;stroke-width:0.0688516;stroke-linecap:round;stroke-linejoin:round;stroke-miterlimit:4;stroke-dasharray:none;stroke-dashoffset:0;stroke-opacity:0.93953492;paint-order:stroke markers fill"
       d="m -137.97158,199.08307 a 1,1 0 0 0 -0.99993,0.99994 1,1 0 0 0 0.24753,0.65681 v 54.8504 a 3.5000001,3.5000001 0 0 0 3.50056,3.49952 v 5.2e-4 h 9.9999 a 3.5000001,3.5000001 0 0 0 3.49953,-3.50056 v -34.36069 h -1.49965 v 34.36069 a 2,2 0 0 1 -1.99988,1.99988 v 5.1e-4 h -9.9999 a 2,2 0 0 1 -1.99988,-1.99987 h -5.2e-4 V 200.7455 a 1,1 0 0 0 0.25218,-0.66249 1,1 0 0 0 -0.99994,-0.99994 z"
       id="rect1344-7-3"
       inkscape:connector-curvature="0" />
  </g>
  <g
     id="layer1"
     inkscape:groupmode="layer"
     inkscape:label="overlay"
     style="display:inline"
     transform="translate(147.92955,-192.87575)">
    <g
       id="g12054-6-5"
       transform="matrix(0.28222223,0,0,0.28222223,-613.92893,-121.32992)"
       style="fill:none">
      <rect
         style="fill:none;fill-opacity:1;stroke:none;stroke-width:0.66968507;stroke-linecap:round;stroke-linejoin:round;stroke-miterlimit:4;stroke-dasharray:none;stroke-dashoffset:0;stroke-opacity:1;paint-order:stroke markers fill"
         id="rect1078"
         width="283.46561"
         height="248.03099"
         x="1651.5137"
         y="1113.662" />
      <path
         inkscape:connector-curvature="0"
         style="fill:none;fill-opacity:0.67441861;stroke:#000000;stroke-width:0.66968501;stroke-linecap:round;stroke-linejoin:round;stroke-miterlimit:4;stroke-dasharray:none;stroke-dashoffset:0;stroke-opacity:1;paint-order:stroke markers fill"
         d="m 1651.5137,1113.662 v 248.031 h 283.4656 v -248.031 z m 34.9493,21.6596 v 0 c 1.9568,2e-4 3.543,1.5864 3.5431,3.5431 -9e-4,0.8654 -0.319,1.7003 -0.8935,2.3474 v 194.3317 c 2e-4,3.9135 3.1726,7.0859 7.0861,7.0862 h 35.4328 c 3.9135,-3e-4 7.0859,-3.1727 7.0862,-7.0862 v -141.731 c 0,-6.8493 5.5505,-12.4025 12.3999,-12.4036 h 10.6311 c 6.849,-3e-4 12.4011,5.5528 12.4017,12.4018 v 28.6871 h 16.3165 c 0.4646,-1.4757 1.8331,-2.4794 3.3802,-2.4792 1.9567,10e-5 3.5429,1.5862 3.543,3.5431 -10e-5,1.9566 -1.5863,3.543 -3.543,3.5431 -1.5462,0 -2.913,-1.006 -3.3765,-2.4811 h -16.3202 v 2.8088 c 5.5556,1.2297 9.7141,6.18 9.7137,12.1051 0,1.7133 -0.3632,3.4056 -1.0546,4.9732 -0.1581,0.3206 -0.3427,0.7115 -0.542,1.0766 -2.0028,4.0546 -5.7517,10.2531 -5.4932,16.9794 v 20.4656 c -2e-4,1.1011 0.4928,2.14 1.366,2.8108 1.553,1.1913 3.7787,0.8978 4.9694,-0.6555 l 12.9419,-16.8659 c 4.7652,-6.2107 13.6622,-7.3823 19.8725,-2.6166 6.2107,4.7652 7.3824,13.6622 2.6166,19.8725 l -12.9438,16.8658 c -1.1923,1.5524 -0.9009,3.7776 0.6519,4.9695 1.553,1.1914 3.7786,0.8979 4.9695,-0.6555 l 6.4709,-8.4321 17.829,-17.5799 12.4072,-91.3056 c 3.161,0.4301 6.2984,1.0179 9.4007,1.7615 29.9361,7.1701 54.5934,28.3072 66.2548,56.7956 l -85.2557,34.8982 -12.2022,21.9012 -6.4709,8.432 c -4.7652,6.2106 -13.664,7.3841 -19.8743,2.6184 -6.2107,-4.7652 -7.3804,-13.664 -2.6147,-19.8742 l 12.9419,-16.8659 c 1.1923,-1.5524 0.8991,-3.7778 -0.6537,-4.9694 -1.553,-1.1916 -3.7786,-0.8981 -4.9695,0.6555 l -12.9419,16.8658 c -4.7652,6.2107 -13.6603,7.3804 -19.8706,2.6147 -3.4885,-2.6856 -5.5279,-6.8401 -5.5279,-11.2426 v -20.4658 c 0,-8.8922 -2.9276,-11.7227 -5.55,-17.0746 -0.1738,-0.349 -0.3653,-0.7339 -0.5401,-1.1023 -0.6558,-1.5341 -0.9979,-3.1837 -0.9979,-4.8522 -3e-4,-5.95 4.1913,-10.9183 9.7814,-12.1216 v -33.6053 c -3e-4,-3.9133 -3.1728,-7.0858 -7.0861,-7.0862 h -10.6311 c -3.9135,3e-4 -7.086,3.1727 -7.0862,7.0862 v 141.7309 c 9e-4,6.8493 -5.5506,12.4027 -12.3999,12.4035 h -35.4328 c -6.8493,0 -12.4026,-5.5505 -12.4035,-12.3998 V 1141.192 c -0.564,-0.6443 -0.8771,-1.471 -0.8771,-2.3273 10e-5,-1.9567 1.5863,-3.543 3.5431,-3.5431 z"
         id="rect4372-2-9-6-2-9" />
    </g>
  </g>
</svg>
