<?xml version="1.0" encoding="UTF-8" standalone="no"?>
<!-- Created with Inkscape (http://www.inkscape.org/) -->

<svg
   xmlns:dc="http://purl.org/dc/elements/1.1/"
   xmlns:cc="http://creativecommons.org/ns#"
   xmlns:rdf="http://www.w3.org/1999/02/22-rdf-syntax-ns#"
   xmlns:svg="http://www.w3.org/2000/svg"
   xmlns="http://www.w3.org/2000/svg"
   xmlns:sodipodi="http://sodipodi.sourceforge.net/DTD/sodipodi-0.dtd"
   xmlns:inkscape="http://www.inkscape.org/namespaces/inkscape"
   width="284.215"
   height="177.916"
   id="svg2"
   version="1.1"
   inkscape:version="0.92.2 2405546, 2018-03-11"
   sodipodi:docname="shuttle_overlay.svg">
  <sodipodi:namedview
     id="base"
     pagecolor="#ffffff"
     bordercolor="#666666"
     borderopacity="1.0"
     inkscape:pageopacity="0.0"
     inkscape:pageshadow="2"
     inkscape:zoom="2.8284271"
     inkscape:cx="92.182672"
     inkscape:cy="71.905755"
     inkscape:document-units="mm"
     inkscape:current-layer="layer1"
     showgrid="false"
     units="mm"
     showborder="false"
     objecttolerance="20"
     borderlayer="false"
     inkscape:showpageshadow="false"
     inkscape:window-width="1920"
     inkscape:window-height="1054"
     inkscape:window-x="0"
     inkscape:window-y="0"
     inkscape:window-maximized="1"
     showguides="false"
     inkscape:guide-bbox="true"
     inkscape:pagecheckerboard="true"
     inkscape:snap-midpoints="true"
     inkscape:snap-nodes="false"
     inkscape:snap-bbox="true"
     inkscape:snap-bbox-midpoints="true">
    <inkscape:grid
       snapvisiblegridlinesonly="true"
       enabled="true"
       visible="true"
       empspacing="5"
       units="mm"
       id="grid3773"
       type="xygrid"
       originx="0"
       originy="0"
       spacingx="2.015748"
       spacingy="2.015748" />
  </sodipodi:namedview>
  <defs
     id="defs4">
    <pattern
       id="EMFhbasepattern"
       patternUnits="userSpaceOnUse"
       width="6"
       height="6"
       x="0"
       y="0" />
  </defs>
  <metadata
     id="metadata7">
    <rdf:RDF>
      <cc:Work
         rdf:about="">
        <dc:format>image/svg+xml</dc:format>
        <dc:type
           rdf:resource="http://purl.org/dc/dcmitype/StillImage" />
        <dc:title />
      </cc:Work>
    </rdf:RDF>
  </metadata>
  <g
     inkscape:groupmode="layer"
     id="layer1"
     inkscape:label="_background"
     style="display:inline">
    <rect
       style="fill:#ffffff;fill-opacity:1;stroke:none;stroke-width:0.75;stroke-miterlimit:4;stroke-dasharray:none;stroke-dashoffset:0;stroke-opacity:1"
       id="rect834"
       width="284.215"
       height="177.916"
       x="-7.8168945e-05"
       y="-1.2878106e-05" />
  </g>
  <g
     inkscape:groupmode="layer"
     id="layer7"
     inkscape:label="SLC"
     transform="translate(0,0.75100597)"
     style="display:inline">
    <path
       style="color:#000000;clip-rule:nonzero;display:inline;overflow:visible;visibility:visible;opacity:1;isolation:auto;mix-blend-mode:normal;color-interpolation:sRGB;color-interpolation-filters:linearRGB;solid-color:#000000;solid-opacity:1;fill:#ff0000;fill-opacity:1;fill-rule:nonzero;stroke:none;stroke-width:1.06666672;stroke-linecap:butt;stroke-linejoin:miter;stroke-miterlimit:4;stroke-dasharray:none;stroke-dashoffset:0;stroke-opacity:1;color-rendering:auto;image-rendering:auto;shape-rendering:auto;text-rendering:auto;enable-background:accumulate"
       d="m 113.45731,10.308533 c 0.30673,0.51748 0.4961,1.10822 0.49609,1.74024 0,0.66173 -0.18847,1.27237 -0.49218,1.80273 h 11.05664 11.07226 11.07227 11.07422 11.07226 11.07227 11.07422 11.07226 c 0.0127,-1.8e-4 0.0244,0 0.0371,0 1.42232,0 2.6211,1.19881 2.6211,2.6211 0,1.49714 -1.19878,2.69336 -2.6211,2.69336 -0.0127,0 -0.0244,0.002 -0.0371,0.002 v -0.002 h -11.07226 -11.07422 -11.07227 -11.07226 -11.07422 -11.07227 -11.07226 -11.07227 v 0.002 c -0.0296,0 -0.0582,-0.002 -0.0879,-0.002 -3.31873,0 -6.11328,2.79458 -6.11328,6.11328 0,3.49335 2.79455,6.28906 6.11328,6.28906 0.0284,0 0.0558,3.3e-4 0.084,0 0.001,-2e-5 0.003,2e-5 0.004,0 h 14.35157 14.35351 14.35547 14.35352 14.35546 14.35352 2.10352 2.25976 c 0.29674,-0.73447 0.97211,-1.29184 1.80664,-1.41797 h 1.42383 5.49219 v -1.0625 -1.0625 h -5.49219 -5.44727 -2.14648 -14.35352 -14.35546 -14.35352 -14.35547 -14.35351 -14.35157 c -0.001,0 -0.003,2e-5 -0.004,0 -0.0112,-1.7e-4 -0.0218,-0.002 -0.0332,-0.002 -1.42232,0 -2.62109,-1.19622 -2.62109,-2.69336 0,-1.42229 1.19877,-2.62109 2.62109,-2.62109 0.0127,0 0.0244,0.002 0.0371,0.002 h 11.07227 11.07226 11.07227 11.07422 11.07226 11.07227 11.07422 11.07226 c 0.0296,4e-4 0.0582,0 0.0879,0 3.31873,0 6.11329,-2.79573 6.11329,-6.28907 0,-3.31871 -2.79456,-6.11328 -6.11329,-6.11328 -0.0297,0 -0.0583,0 -0.0879,0 h -11.07226 -11.07422 -11.07227 -11.07226 -11.07422 -11.07227 -11.07226 z"
       id="path67-9-0-7-4-9"
       inkscape:connector-curvature="0" />
  </g>
  <g
     inkscape:groupmode="layer"
     id="layer8"
     inkscape:label="PM_block"
     transform="translate(0,0.75100597)"
     style="display:inline">
    <path
       style="color:#000000;clip-rule:nonzero;display:inline;overflow:visible;visibility:visible;opacity:1;isolation:auto;mix-blend-mode:normal;color-interpolation:sRGB;color-interpolation-filters:linearRGB;solid-color:#000000;solid-opacity:1;fill:#999999;fill-opacity:1;fill-rule:nonzero;stroke:none;stroke-width:1.06666672;stroke-linecap:butt;stroke-linejoin:miter;stroke-miterlimit:4;stroke-dasharray:none;stroke-dashoffset:0;stroke-opacity:1;color-rendering:auto;image-rendering:auto;shape-rendering:auto;text-rendering:auto;enable-background:accumulate"
       d="m 212.6533,24.837193 v 5.31445 h 10.63086 10.62891 v -5.31445 h -10.62891 z"
       id="rect4183-8-3-6-9-0-6-05-7-1"
       inkscape:connector-curvature="0" />
  </g>
  <g
     inkscape:groupmode="layer"
     id="layer9"
     inkscape:label="block"
     transform="translate(0,0.75100597)">
    <path
       style="color:#000000;clip-rule:nonzero;display:inline;overflow:visible;visibility:visible;opacity:1;isolation:auto;mix-blend-mode:normal;color-interpolation:sRGB;color-interpolation-filters:linearRGB;solid-color:#000000;solid-opacity:1;fill:#37c871;fill-opacity:1;fill-rule:nonzero;stroke:none;stroke-width:1.06666672;stroke-linecap:butt;stroke-linejoin:miter;stroke-miterlimit:4;stroke-dasharray:none;stroke-dashoffset:0;stroke-opacity:1;color-rendering:auto;image-rendering:auto;shape-rendering:auto;text-rendering:auto;enable-background:accumulate"
       d="m 192.39158,28.026693 v 3.5429 h 7.17774 2.10351 v 2.545 3.996 3.9961 3.9961 3.9961 1.9981 0 c -0.001,1.4666 -0.83786,2.65464 -2.30469,2.65424 h -9.48046 -9.48243 -4.74023 v 1.7715 h 4.74023 9.48243 9.48046 c 2.44515,3e-4 4.42784,-1.9809 4.42969,-4.42574 0,-7e-4 0,-10e-4 0,0 v -1.9981 -3.9961 -3.9961 -3.9961 -3.996 -2.0938 c 0.16277,-0.9532 0.94207,-1.7181 1.94141,-1.8691 h 1.42383 5.49218 v -1.0625 -1.0625 h -5.49218 -5.44727 -2.14648 z"
       id="path67-9-0-7-4-2-5"
       inkscape:connector-curvature="0" />
  </g>
  <g
     inkscape:groupmode="layer"
     id="layer6"
     inkscape:label="PM_iSIMPLE"
     transform="translate(0,0.75100597)">
    <path
       style="color:#000000;clip-rule:nonzero;display:inline;overflow:visible;visibility:visible;opacity:1;isolation:auto;mix-blend-mode:normal;color-interpolation:sRGB;color-interpolation-filters:linearRGB;solid-color:#000000;solid-opacity:1;fill:#979797;fill-opacity:1;fill-rule:nonzero;stroke:none;stroke-width:1.06666672;stroke-linecap:butt;stroke-linejoin:miter;stroke-miterlimit:4;stroke-dasharray:none;stroke-dashoffset:0;stroke-opacity:1;color-rendering:auto;image-rendering:auto;shape-rendering:auto;text-rendering:auto;enable-background:accumulate"
       d="m 92.74705,45.151693 -29.76367,5.2441 -23.74414,4.18364 v 2.1211 l 23.74414,4.1835 29.76367,5.2442 29.76367,-5.2442 24.74219,-4.3593 h -0.0273 v -1.7715 h 0.0156 l -24.73047,-4.35744 z"
       id="path4248-9-3"
       inkscape:connector-curvature="0" />
  </g>
  <g
     inkscape:groupmode="layer"
     id="layer4"
     inkscape:label="WLC_iSIMPLE"
     transform="translate(0,0.75100597)">
    <path
       style="color:#000000;clip-rule:nonzero;display:inline;overflow:visible;visibility:visible;opacity:1;isolation:auto;mix-blend-mode:normal;color-interpolation:sRGB;color-interpolation-filters:linearRGB;solid-color:#000000;solid-opacity:1;fill:#356fc7;fill-opacity:1;fill-rule:nonzero;stroke:none;stroke-width:1.06666672;stroke-linecap:butt;stroke-linejoin:miter;stroke-miterlimit:4;stroke-dasharray:none;stroke-dashoffset:0;stroke-opacity:1;color-rendering:auto;image-rendering:auto;shape-rendering:auto;text-rendering:auto;enable-background:accumulate"
       d="m 22.55369,52.628193 v 0 a 9.0362837,9.0362837 0 0 0 -9.03516,9.03514 v 18.6016 18.6035 18.601597 18.6035 a 9.0362837,9.0362837 0 0 0 9.03321,9.0352 9.0362837,9.0362837 0 0 0 0.002,0 H 40.6221 l 15.30078,-1.877 v -2.4746 l -15.30078,-1.6758 v 0 H 22.55374 a 3.0120946,3.0120946 0 0 1 -0.002,0 3.0120946,3.0120946 0 0 1 -3.00977,-3.0117 v -18.6035 -18.601597 -18.6035 -18.6016 a 3.0120946,3.0120946 0 0 1 3.01172,-3.0117 v 0 l 16.68555,-1.9512 v -2.1211 z"
       id="path4357-8-9-2-2-6-2"
       inkscape:connector-curvature="0" />
  </g>
  <g
     inkscape:groupmode="layer"
     id="layer11"
     inkscape:label="push2"
     transform="translate(0,0.75100597)"
     style="display:inline">
    <path
       style="color:#000000;clip-rule:nonzero;display:inline;overflow:visible;visibility:visible;opacity:1;isolation:auto;mix-blend-mode:normal;color-interpolation:sRGB;color-interpolation-filters:linearRGB;solid-color:#000000;solid-opacity:1;fill:#ff6500;fill-opacity:1;fill-rule:nonzero;stroke:none;stroke-width:1.06666672;stroke-linecap:butt;stroke-linejoin:miter;stroke-miterlimit:4;stroke-dasharray:none;stroke-dashoffset:0;stroke-opacity:1;color-rendering:auto;image-rendering:auto;shape-rendering:auto;text-rendering:auto;enable-background:accumulate"
       d="m 89.40721,100.19263 c -0.39381,0 -0.77656,0.034 -1.14453,0.1075 -0.36799,0.073 -0.72116,0.1798 -1.05665,0.3183 -0.33546,0.1384 -0.65291,0.3081 -0.94921,0.5059 -0.29627,0.1977 -0.57188,0.4235 -0.82227,0.6738 -0.25041,0.2503 -0.47599,0.5242 -0.67383,0.8203 -0.19782,0.2962 -0.36728,0.6138 -0.50586,0.9492 -0.13857,0.3354 -0.24576,0.6888 -0.31836,1.0567 -0.0726,0.3679 -0.11132,0.7507 -0.11132,1.1445 v 3.9863 3.9864 3.9863 3.9863 3.9864 3.9863 3.9863 3.9883 h -0.004 c -0.004,0.2133 -0.0288,0.4205 -0.0723,0.6211 -0.0434,0.2005 -0.10445,0.3943 -0.18359,0.5781 -0.0791,0.1839 -0.17608,0.3581 -0.28711,0.5215 -0.11103,0.1634 -0.23591,0.3159 -0.375,0.4551 -0.13914,0.1391 -0.29167,0.264 -0.45508,0.375 -0.16339,0.1111 -0.33759,0.208 -0.52148,0.2871 -0.18387,0.079 -0.37759,0.1402 -0.57813,0.1836 -0.20053,0.043 -0.40964,0.068 -0.62304,0.072 v 0.01 h -3.09961 -3.09961 -3.10157 -3.0996 -3.09961 -3.10157 -3.09961 -3.10156 v 2.4805 h 3.10156 3.09961 3.10157 3.09961 3.0996 3.10157 3.09961 3.10156 c 0.39382,0 0.77465,-0.037 1.14258,-0.1094 0.36791,-0.073 0.72124,-0.1798 1.05664,-0.3184 0.33538,-0.1386 0.65304,-0.31 0.94922,-0.5078 0.29618,-0.1979 0.57198,-0.4234 0.82226,-0.6738 0.25029,-0.2504 0.47608,-0.524 0.67383,-0.8203 0.1977,-0.2962 0.36739,-0.6137 0.50586,-0.9493 0.13852,-0.3354 0.24577,-0.6906 0.31836,-1.0585 0.0726,-0.368 0.10937,-0.7488 0.10937,-1.1426 v -3.9883 -3.9863 -3.9864 -3.9863 -3.9863 -3.9863 -3.9864 -3.9863 c 0.004,-0.2127 0.0349,-0.4212 0.0781,-0.6211 0.0434,-0.2006 0.10645,-0.3943 0.18555,-0.5781 0.0791,-0.1839 0.17413,-0.3581 0.28515,-0.5215 0.11103,-0.1634 0.23785,-0.316 0.37695,-0.4551 0.13913,-0.1391 0.29166,-0.2639 0.45508,-0.375 0.1634,-0.111 0.33761,-0.2081 0.52149,-0.2871 0.18387,-0.079 0.37758,-0.1425 0.57812,-0.1855 0.20053,-0.044 0.40771,-0.07 0.6211,-0.07 v 0 h 2.01757 2.01954 2.01757 2.01758 2.01953 2.01758 2.01758 2.00976 v 0 c 0.21337,0 0.42252,0.026 0.62305,0.07 0.20054,0.043 0.3923,0.1063 0.57617,0.1855 0.18388,0.079 0.35808,0.1761 0.52149,0.2871 0.16339,0.1111 0.31596,0.2359 0.45508,0.375 0.13912,0.1391 0.26593,0.2917 0.37695,0.4551 0.11104,0.1634 0.20604,0.3376 0.28516,0.5215 0.0791,0.1838 0.14214,0.3775 0.18554,0.5781 0.0427,0.1973 0.0735,0.4034 0.0781,0.6133 v 4.1035 4.1016 4.1035 4.1035 1.2383 h 0.31054 0.31055 0.3086 0.31054 0.31055 0.30859 0.31055 0.31055 v -1.2383 -4.1035 -4.1035 -4.1016 -4.0957 c 0,-0.3938 -0.0387,-0.7766 -0.11133,-1.1445 -0.0726,-0.3679 -0.1798,-0.7213 -0.31836,-1.0567 -0.13857,-0.3354 -0.30805,-0.653 -0.50586,-0.9492 -0.19783,-0.2961 -0.42343,-0.57 -0.67383,-0.8203 -0.2504,-0.2503 -0.52599,-0.4761 -0.82226,-0.6738 -0.29629,-0.1978 -0.61374,-0.3675 -0.94922,-0.5059 -0.33547,-0.1385 -0.68866,-0.2457 -1.05664,-0.3184 -0.36553,-0.072 -0.74571,-0.1069 -1.13672,-0.1074 h -2.01758 -2.01758 -2.01758 -2.01953 -2.01758 -2.01757 -2.01954 z"
       id="path67-9-0-4-5-8-4-1"
       inkscape:connector-curvature="0" />
  </g>
  <g
     inkscape:groupmode="layer"
     id="layer10"
     inkscape:label="push1"
     transform="translate(0,0.75100597)"
     style="display:inline">
    <path
       style="color:#000000;clip-rule:nonzero;display:inline;overflow:visible;visibility:visible;opacity:1;isolation:auto;mix-blend-mode:normal;color-interpolation:sRGB;color-interpolation-filters:linearRGB;solid-color:#000000;solid-opacity:1;fill:#ff6600;fill-opacity:0.98989898;fill-rule:nonzero;stroke:none;stroke-width:1.06666672;stroke-linecap:butt;stroke-linejoin:miter;stroke-miterlimit:4;stroke-dasharray:none;stroke-dashoffset:0;stroke-opacity:1;color-rendering:auto;image-rendering:auto;shape-rendering:auto;text-rendering:auto;enable-background:accumulate"
       d="m 122.9033,79.852833 c -0.38255,0 -0.75542,0.037 -1.11719,0.1094 -0.36178,0.073 -0.71164,0.1798 -1.04492,0.3183 -0.33327,0.1386 -0.6502,0.3101 -0.94727,0.5078 -0.29705,0.1979 -0.57503,0.4235 -0.82812,0.6739 -0.2531,0.2504 -0.48216,0.5259 -0.68359,0.8222 -0.20142,0.2963 -0.37558,0.6138 -0.51758,0.9493 -0.142,0.3355 -0.2513,0.6886 -0.32617,1.0566 -0.0749,0.368 -0.11524,0.7507 -0.11524,1.1445 h 0.004 v 6.6426 6.6445 6.642597 6.6446 6.6425 6.6446 6.6445 6.6426 h -0.006 c -0.004,0.2159 -0.0298,0.426 -0.0742,0.6289 -0.0443,0.2029 -0.10865,0.3982 -0.18945,0.584 -0.0808,0.1859 -0.17774,0.3624 -0.29102,0.5273 -0.11329,0.1649 -0.24289,0.3191 -0.38476,0.459 -0.14186,0.1399 -0.29638,0.266 -0.4629,0.3769 -0.16651,0.111 -0.34399,0.2052 -0.53124,0.2832 -0.18724,0.078 -0.38389,0.1387 -0.5879,0.1797 -0.20403,0.041 -0.41593,0.062 -0.63281,0.062 -0.20241,0 -0.40081,-0.022 -0.59375,-0.062 -0.19295,-0.041 -0.3795,-0.1017 -0.55859,-0.1797 -0.17909,-0.078 -0.35088,-0.1722 -0.51172,-0.2832 -0.16084,-0.1109 -0.31098,-0.237 -0.44922,-0.3769 -0.1382,-0.1399 -0.26379,-0.2941 -0.375,-0.459 -0.11122,-0.1649 -0.20926,-0.3414 -0.28906,-0.5273 -0.0798,-0.1858 -0.14145,-0.3811 -0.18555,-0.584 -0.0441,-0.2029 -0.0702,-0.413 -0.0742,-0.6289 h -0.004 v -4.1016 -4.1035 -4.1035 -2.8633 h -0.31055 -0.31055 -0.30859 -0.31055 -0.31054 -0.3086 -0.31055 -0.31054 v 2.8633 4.1035 4.1035 4.1016 c 0,0.3938 0.0403,0.7766 0.11523,1.1445 0.0749,0.368 0.18417,0.7211 0.32617,1.0566 0.142,0.3355 0.31617,0.653 0.51758,0.9493 0.20143,0.2963 0.4305,0.5718 0.6836,0.8222 0.25309,0.2504 0.52913,0.476 0.82617,0.6739 0.29707,0.1978 0.61398,0.3672 0.94726,0.5058 0.33327,0.1385 0.68314,0.2454 1.04492,0.3184 0.36178,0.073 0.73661,0.1113 1.11915,0.1113 0.39381,0 0.77656,-0.038 1.14453,-0.1113 0.36799,-0.073 0.72117,-0.1799 1.05664,-0.3184 0.33547,-0.1386 0.65294,-0.308 0.94922,-0.5058 0.29629,-0.1979 0.57186,-0.4235 0.82226,-0.6739 0.25041,-0.2504 0.47601,-0.5259 0.67383,-0.8222 0.19783,-0.2963 0.36727,-0.6138 0.50586,-0.9493 0.13857,-0.3355 0.24576,-0.6886 0.31836,-1.0566 0.0726,-0.368 0.11133,-0.7507 0.11133,-1.1445 v -6.6426 -6.6445 -6.6446 -6.6425 -6.6446 -6.642597 -6.6445 -6.6426 h 0.002 c 0.004,-0.2159 0.0282,-0.428 0.0723,-0.6308 0.0441,-0.2029 0.10766,-0.3981 0.1875,-0.584 0.0798,-0.1858 0.17588,-0.3625 0.2871,-0.5274 0.11121,-0.1649 0.23681,-0.3171 0.375,-0.457 0.13824,-0.1399 0.28838,-0.266 0.44922,-0.3769 0.16085,-0.1109 0.33262,-0.2073 0.51172,-0.2852 0.17909,-0.078 0.36565,-0.1387 0.5586,-0.1797 0.19295,-0.041 0.39329,-0.061 0.5957,-0.061 0.21688,0 0.42683,0.02 0.63086,0.061 0.20401,0.041 0.40065,0.1017 0.58789,0.1797 0.18724,0.078 0.36473,0.1743 0.53125,0.2852 0.16652,0.1109 0.32297,0.237 0.46484,0.3769 0.14186,0.1399 0.26953,0.2921 0.38282,0.457 0.11328,0.1649 0.21219,0.3416 0.29296,0.5274 0.0808,0.1859 0.1432,0.3811 0.1875,0.584 0.0442,0.2028 0.0703,0.4149 0.0742,0.6308 h 0.006 v 4.4278 4.4297 4.4296 4.427797 4.4297 4.4297 4.4296 4.4278 c 0.21523,3.0881 2.28669,5.1964 5.57617,5.2754 0,0 0,0 0,0 h 3.67969 3.68555 3.6875 3.6875 3.6875 3.6875 3.6875 3.68555 v -0.2207 -0.2227 -0.2207 -0.2207 -0.2227 -0.2207 -0.2207 -0.2226 h -3.68555 -3.6875 -3.6875 -3.6875 -3.6875 -3.6875 -3.68555 -3.67969 c -1.71244,-0.2499 -2.96661,-1.6517 -3.09375,-3.5078 h -0.002 v -4.4219 -4.4297 -4.4297 -4.4297 -4.427697 -4.4297 -4.4297 -4.4277 c 0,-0.3938 -0.0387,-0.7765 -0.11133,-1.1445 -0.0726,-0.3681 -0.17978,-0.7212 -0.31836,-1.0567 -0.13858,-0.3355 -0.30802,-0.6529 -0.50586,-0.9492 -0.19783,-0.2963 -0.42342,-0.5719 -0.67382,-0.8223 -0.25041,-0.2504 -0.526,-0.476 -0.82227,-0.6738 -0.29629,-0.1978 -0.61376,-0.3692 -0.94922,-0.5078 -0.33549,-0.1385 -0.68863,-0.2458 -1.05664,-0.3184 -0.36798,-0.073 -0.75072,-0.1093 -1.14453,-0.1093 z"
       id="path67-9-0-4-5-8-5-6-6"
       inkscape:connector-curvature="0" />
  </g>
  <g
     inkscape:groupmode="layer"
     id="layer5"
     inkscape:label="PM_SIMPLE"
     transform="translate(0,0.75100597)"
     style="display:inline">
    <path
       style="color:#000000;clip-rule:nonzero;display:inline;overflow:visible;visibility:visible;opacity:1;isolation:auto;mix-blend-mode:normal;color-interpolation:sRGB;color-interpolation-filters:linearRGB;solid-color:#000000;solid-opacity:1;fill:#999999;fill-opacity:0.9848485;fill-rule:nonzero;stroke:none;stroke-width:1.06666672;stroke-linecap:butt;stroke-linejoin:miter;stroke-miterlimit:4;stroke-dasharray:none;stroke-dashoffset:0;stroke-opacity:1;marker:none;color-rendering:auto;image-rendering:auto;shape-rendering:auto;text-rendering:auto;enable-background:accumulate"
       d="m 173.36342,95.188733 c -4.15118,4.1512 -7.2643,8.946097 -9.33984,14.064497 -2.07555,5.1184 -3.11339,10.5592 -3.11329,16 9e-5,5.4407 1.03758,10.8817 3.11329,16 2.07571,5.1184 5.19048,9.9154 9.34179,14.0664 l 7.51563,-7.5176 7.51758,-7.5156 7.51562,-7.5156 6.27734,-6.2774 h -0.008 v -2.4765 h 0.008 l -6.27734,-6.2793 -7.51758,-7.5157 -7.51562,-7.5175 z"
       id="path4142-2-7-01-0-2"
       inkscape:connector-curvature="0" />
  </g>
  <g
     inkscape:groupmode="layer"
     id="layer3"
     inkscape:label="WLC_SIMPLE"
     transform="translate(0,0.75100597)"
     style="display:inline">
    <path
       style="color:#000000;clip-rule:nonzero;display:inline;overflow:visible;visibility:visible;opacity:1;isolation:auto;mix-blend-mode:normal;color-interpolation:sRGB;color-interpolation-filters:linearRGB;solid-color:#000000;solid-opacity:1;fill:#3771c8;fill-opacity:0.98989898;fill-rule:nonzero;stroke:none;stroke-width:1.06666672;stroke-linecap:butt;stroke-linejoin:miter;stroke-miterlimit:4;stroke-dasharray:none;stroke-dashoffset:0;stroke-opacity:1;color-rendering:auto;image-rendering:auto;shape-rendering:auto;text-rendering:auto;enable-background:accumulate"
       d="m 254.5685,61.664733 c -0.32771,0 -0.71135,-4e-4 -1.03906,0.055 -0.32773,0.055 -0.65469,0.109 -0.98243,0.164 -0.43696,0.055 -0.8735,0.1643 -1.25586,0.3282 -0.38236,0.1093 -0.82076,0.2716 -1.20312,0.4355 -0.38234,0.1639 -0.76406,0.3283 -1.0918,0.5469 -0.38236,0.1639 -0.76407,0.383 -1.09179,0.6015 -0.32774,0.2731 -0.65665,0.4907 -0.98438,0.7637 -0.32775,0.2732 -0.65464,0.5472 -0.92773,0.8203 -0.27311,0.3277 -0.54723,0.6001 -0.82032,0.9278 -0.27309,0.3277 -0.49057,0.6546 -0.76367,0.9824 -0.21849,0.3277 -0.43769,0.7114 -0.65625,1.0937 -0.16389,0.3278 -0.38106,0.7094 -0.54492,1.0918 -0.16379,0.3823 -0.27365,0.8189 -0.38281,1.2012 -0.16386,0.3824 -0.27343,0.8209 -0.32813,1.2578 -0.10943,0.3824 -0.16405,0.819 -0.21875,1.2559 0,0.2185 1e-5,0.4357 -0.0547,0.6543 v 0.6562 0.711 c 0,0.2185 0.0547,0.4357 0.0547,0.6543 0.0545,0.2184 0.0547,0.4376 0.10938,0.6015 0,0.2185 0.0546,0.4357 0.10937,0.6543 0,0.1092 0.0546,0.2737 0.10938,0.4375 0.0547,0.2185 0.10926,0.4377 0.16406,0.6563 0.10926,0.2185 0.1623,0.4358 0.27148,0.709 0.10916,0.2184 0.21897,0.4376 0.32813,0.6562 0.10915,0.2731 0.21895,0.4904 0.32812,0.709 0.10923,0.2185 0.21894,0.4376 0.38282,0.6562 0.10923,0.2185 0.27363,0.4378 0.4375,0.711 0.16386,0.2184 0.32637,0.4357 0.49023,0.6543 0.16385,0.2185 0.3283,0.4923 0.54688,0.7109 0.16385,0.2184 0.38299,0.4904 0.60156,0.709 0.43695,0.5462 0.87349,1.0377 1.25586,1.4746 0.38233,0.437 0.70937,0.8754 1.03711,1.2578 0.32774,0.437 0.60192,0.7641 0.875,1.1465 0.27312,0.3277 0.54511,0.6546 0.76367,0.9824 0.2185,0.3277 0.43768,0.6566 0.65625,0.9297 0.16386,0.3277 0.38107,0.5999 0.54492,0.8731 0.13062,0.2612 0.26197,0.4778 0.39258,0.6972 v 27.361297 h -0.002 c -1.7e-4,1.8674 -1.41741,3.3835 -3.28516,3.3848 v 0 h -27.07617 l -19.13477,2.1797 v 2.4766 l 19.13477,2.1113 h 27.07422 c 0,0 0.002,0 0.002,0 5.60525,0 10.14792,-4.5451 10.14844,-10.1484 l -0.004,-27.351597 c 0.13274,-0.2228 0.26569,-0.4435 0.39844,-0.709 0.2185,-0.2732 0.38299,-0.5453 0.60156,-0.873 0.16386,-0.2731 0.38102,-0.602 0.59961,-0.9297 0.27309,-0.3278 0.49253,-0.6547 0.76563,-0.9824 0.27311,-0.3824 0.59994,-0.7095 0.87304,-1.1465 0.32773,-0.3824 0.71141,-0.8208 1.09375,-1.2578 0.38236,-0.4369 0.76427,-0.9284 1.25586,-1.4746 0.21847,-0.2185 0.38299,-0.4904 0.60156,-0.709 0.16385,-0.2185 0.38107,-0.4924 0.54493,-0.711 0.16387,-0.2185 0.32834,-0.4358 0.4375,-0.6543 0.16386,-0.2732 0.32835,-0.4924 0.4375,-0.7109 0.16378,-0.2185 0.27171,-0.4377 0.38086,-0.6563 0.16399,-0.2184 0.27366,-0.4358 0.38281,-0.7089 0.10923,-0.2185 0.21863,-0.4378 0.27343,-0.6563 0.10927,-0.2186 0.16427,-0.4359 0.27344,-0.709 0.0547,-0.2185 0.16395,-0.4376 0.21875,-0.6562 0,-0.1638 0.0546,-0.3284 0.10938,-0.4375 0.0547,-0.437 0.10936,-0.819 0.16406,-1.2559 h -0.002 c 0,-0.2185 0.0547,-0.4357 0.0547,-0.6543 v -0.7109 -0.6563 c 0,-0.2185 1.2e-4,-0.4357 -0.0547,-0.6543 -0.0547,-0.4369 -0.10947,-0.8734 -0.16407,-1.2558 -0.10916,-0.4369 -0.21702,-0.8754 -0.32617,-1.2578 -0.16388,-0.3823 -0.27365,-0.8189 -0.4375,-1.2012 -0.16388,-0.3824 -0.32829,-0.764 -0.54687,-1.0918 -0.21848,-0.3823 -0.43573,-0.766 -0.6543,-1.0937 -0.21848,-0.3278 -0.49252,-0.6548 -0.76562,-0.9825 -0.2185,-0.3277 -0.49064,-0.6 -0.81836,-0.9277 -0.27311,-0.2731 -0.60196,-0.5471 -0.92969,-0.8203 -0.27312,-0.273 -0.6001,-0.4906 -0.98242,-0.7637 -0.32773,-0.2185 -0.71134,-0.4377 -1.03907,-0.6016 -0.38236,-0.2185 -0.76412,-0.3829 -1.14648,-0.5468 -0.38236,-0.1639 -0.76416,-0.3264 -1.20117,-0.4356 -0.38233,-0.1639 -0.81884,-0.2731 -1.20117,-0.3281 -0.32772,-0.055 -0.65677,-0.1091 -1.03907,-0.1641 -0.32773,-0.055 -0.65475,-0.055 -1.03711,-0.055 h -0.27343 -0.27344 -0.27344 z"
       id="path6265-5"
       inkscape:connector-curvature="0" />
  </g>
  <g
     inkscape:groupmode="layer"
     id="layer2"
     inkscape:label="overlay"
     transform="translate(0,0.75100597)"
     style="display:inline">
    <path
       style="color:#000000;clip-rule:nonzero;display:inline;overflow:visible;visibility:visible;opacity:1;isolation:auto;mix-blend-mode:normal;color-interpolation:sRGB;color-interpolation-filters:linearRGB;solid-color:#000000;solid-opacity:1;fill:none;fill-opacity:0.39607843;fill-rule:nonzero;stroke:#000000;stroke-width:0.75;stroke-linecap:butt;stroke-linejoin:miter;stroke-miterlimit:4;stroke-dasharray:none;stroke-dashoffset:0;stroke-opacity:1;color-rendering:auto;image-rendering:auto;shape-rendering:auto;text-rendering:auto;enable-background:accumulate"
       d="M 0.375,-0.37602733 V 176.78999 H 283.83984 V -0.37602733 Z M 110.46093,8.5556133 c 1.26386,0 2.38035,0.7174834 2.99414,1.7519527 h 11.0625 11.07227 11.07422 11.07226 11.07227 11.07226 11.07422 11.07227 v 0.002 c 0.0296,0 0.0582,-0.002 0.0879,-0.002 3.31873,0 6.11328,2.794571 6.11328,6.113281 0,3.49334 -2.79455,6.289063 -6.11328,6.289063 -0.0297,0 -0.0583,0.0024 -0.0879,0.002 v -0.002 h -11.07227 -11.07422 -11.07226 -11.07227 -11.07226 -11.07422 -11.07227 -11.07226 c -0.0127,-1.8e-4 -0.0244,0 -0.0371,0 -1.42232,0 -2.6211,1.198804 -2.6211,2.621094 0,1.49714 1.19878,2.693359 2.6211,2.693359 0.0127,0 0.0244,0.002 0.0371,0.002 h 14.35156 14.35352 14.35546 14.35352 14.35547 14.35351 2.14649 5.44726 5.49219 v -3.1895 h 10.62891 10.63086 9.00976 9.00782 a 4.4291339,4.4291339 0 0 1 4.42187,4.429688 h 0.002 a 2.6574802,2.6574802 0 0 0 2.65625,2.658203 h 3.62886 3.62695 a 4.4291339,4.4291339 0 0 1 4.42774,4.419921 h 0.002 v 3.882813 3.880859 a 4.4291339,4.4291339 0 0 1 -4.42969,4.427735 h -3.627 -3.62891 a 2.6574802,2.6574802 0 0 0 -2.65625,2.658203 h -0.002 v 10.492187 c 0.11533,0.0081 0.23067,0.01422 0.34375,0.0332 0.3823,0.055 0.71134,0.109363 1.03906,0.164063 0.38233,0.055 0.81884,0.164225 1.20118,0.328125 0.437,0.1091 0.81881,0.2737 1.20117,0.4375 0.38236,0.1639 0.76412,0.326422 1.14648,0.544922 0.32773,0.1638 0.71133,0.383062 1.03906,0.601562 0.38232,0.2731 0.70931,0.490572 0.98243,0.763672 0.32773,0.2731 0.65657,0.547213 0.92968,0.820313 0.32772,0.3278 0.59986,0.600134 0.81836,0.927734 0.2731,0.3278 0.54715,0.656675 0.76563,0.984375 0.21857,0.3277 0.43581,0.709397 0.65429,1.091797 0.21858,0.3277 0.383,0.709397 0.54688,1.091797 0.16385,0.3824 0.27362,0.820725 0.4375,1.203125 0.10915,0.3823 0.21701,0.818859 0.32617,1.255859 0.0546,0.3823 0.10936,0.81886 0.16406,1.25586 0.0548,0.2185 0.0547,0.43785 0.0547,0.65625 v 0.654296 0.710938 c 0,0.2185 -0.0547,0.435797 -0.0547,0.654297 h 0.002 c -0.0547,0.437 -0.10937,0.820812 -0.16407,1.257812 -0.0548,0.1091 -0.10937,0.271647 -0.10937,0.435547 -0.0548,0.2185 -0.16405,0.43775 -0.21875,0.65625 -0.10917,0.2731 -0.16417,0.490485 -0.27344,0.708985 -0.0548,0.2186 -0.16421,0.43775 -0.27344,0.65625 -0.10915,0.2731 -0.21882,0.492537 -0.38281,0.710937 -0.10915,0.2186 -0.21708,0.435797 -0.38086,0.654297 -0.10915,0.2186 -0.27364,0.437838 -0.4375,0.710937 -0.10916,0.2186 -0.27363,0.435797 -0.4375,0.654297 -0.16386,0.2185 -0.38107,0.492338 -0.54492,0.710938 -0.21857,0.2185 -0.38309,0.490484 -0.60156,0.708984 -0.49159,0.5462 -0.8735,1.039563 -1.25586,1.476563 -0.38234,0.437 -0.76602,0.873559 -1.09375,1.255859 -0.2731,0.437 -0.59994,0.764084 -0.87305,1.146485 -0.2731,0.327699 -0.49253,0.654721 -0.76562,0.982421 -0.21859,0.3277 -0.43575,0.656588 -0.59961,0.929688 -0.21857,0.3277 -0.38308,0.599947 -0.60156,0.873047 -0.13276,0.265547 -0.2657,0.486176 -0.39844,0.708984 l 0.004,27.351562 c -5.2e-4,5.60344 -4.54318,10.14644 -10.14843,10.14844 h -0.002 -27.07422 l -19.12695,-2.11133 -6.27734,6.27734 -7.51563,7.51563 -7.51758,7.51562 -7.51562,7.51758 c -4.15131,-4.1511 -7.26609,-8.9481 -9.3418,-14.0664 -1.96298,-4.84035 -2.98511,-9.96886 -3.09179,-15.11329 h -3.54883 -3.6875 -3.6875 -3.68555 -3.6875 -3.6875 -3.6875 -3.67773 v 0.002 c -1.38222,-0.0332 -2.54661,-0.42803 -3.45118,-1.09961 v 13.54101 h -0.008 c 1.45591,0.45539 2.50975,1.77656 2.50977,3.31055 0,1.9962 -1.59757,3.59375 -3.59375,3.59375 -1.89639,0 -3.49414,-1.59755 -3.49414,-3.59375 0,-1.53629 1.05476,-2.85902 2.46093,-3.3125 v -17.71484 -4.42774 -4.42969 -4.42968 -4.42774 -4.429684 -4.429688 -4.429687 -4.427735 h -0.008 c -0.004,-0.2159 -0.0281,-0.426106 -0.0723,-0.628906 -0.0443,-0.2029 -0.10866,-0.400037 -0.18946,-0.585938 -0.0808,-0.185798 -0.17773,-0.36049 -0.29101,-0.52539 -0.11329,-0.1649 -0.24291,-0.319086 -0.38477,-0.458984 -0.14187,-0.139901 -0.29637,-0.266054 -0.46289,-0.376954 -0.16652,-0.1109 -0.34401,-0.207156 -0.53125,-0.285156 -0.18724,-0.078 -0.38388,-0.136734 -0.58789,-0.177734 -0.20403,-0.041 -0.41593,-0.0625 -0.63281,-0.0625 -0.20241,0 -0.4008,0.0215 -0.59375,0.0625 -0.19295,0.041 -0.38146,0.09973 -0.56055,0.177734 -0.1791,0.0779 -0.34891,0.174256 -0.50976,0.285156 -0.16084,0.1109 -0.31098,0.237054 -0.44922,0.376954 -0.1382,0.1399 -0.26575,0.294084 -0.37696,0.458984 -0.11122,0.1649 -0.20731,0.339591 -0.28711,0.52539 -0.0798,0.185901 -0.1434,0.383038 -0.1875,0.585938 -0.0441,0.2028 -0.0683,0.413006 -0.0723,0.628906 h -0.002 v 6.642578 6.644532 6.642574 6.64453 6.64454 6.64257 6.64454 6.64257 c 0,0.3938 -0.0387,0.77654 -0.11133,1.14454 -0.0726,0.36798 -0.17979,0.72114 -0.31836,1.05664 -0.13859,0.3355 -0.30803,0.65291 -0.50586,0.94921 -0.19782,0.2963 -0.42342,0.57187 -0.67383,0.82227 -0.2504,0.2504 -0.52598,0.47593 -0.82226,0.67383 -0.2963,0.1978 -0.61375,0.36736 -0.94922,0.50586 -0.33547,0.1386 -0.68865,0.24576 -1.05664,0.31836 -0.36797,0.073 -0.75073,0.11133 -1.14454,0.11133 -0.38254,0 -0.7554,-0.0387 -1.11718,-0.11133 -0.36178,-0.073 -0.71167,-0.17976 -1.04492,-0.31836 -0.3333,-0.1385 -0.6502,-0.30806 -0.94727,-0.50586 -0.29704,-0.1979 -0.57504,-0.42343 -0.82813,-0.67383 -0.2531,-0.2504 -0.48216,-0.52597 -0.68359,-0.82227 -0.20141,-0.2963 -0.37362,-0.61371 -0.51562,-0.94921 -0.142,-0.3355 -0.25323,-0.68866 -0.32813,-1.05664 -0.0749,-0.368 -0.11523,-0.75074 -0.11523,-1.14454 v -4.10156 -4.10351 -4.10352 -2.46484 l -10.00586,2.6914 a 3.5433123,3.5433123 0 0 1 -1.73633,0.4668 l -0.0156,0.004 c -0.0268,0 -0.0514,-0.007 -0.0781,-0.008 a 3.5433123,3.5433123 0 0 1 -0.55859,-0.0566 c -0.0582,-0.0106 -0.11468,-0.0237 -0.17188,-0.0371 a 3.5433123,3.5433123 0 0 1 -0.45508,-0.14062 c -0.0757,-0.029 -0.14955,-0.0597 -0.22265,-0.0937 a 3.5433123,3.5433123 0 0 1 -0.40039,-0.21875 c -0.0536,-0.0339 -0.10661,-0.0669 -0.15821,-0.10352 a 3.5433123,3.5433123 0 0 1 -0.38281,-0.31445 c -0.0353,-0.0334 -0.0716,-0.0648 -0.10547,-0.0996 a 3.5433123,3.5433123 0 0 1 -0.3418,-0.41406 c -0.0308,-0.043 -0.0629,-0.0845 -0.0918,-0.12891 a 3.5433123,3.5433123 0 0 1 -0.25586,-0.47266 c -0.0198,-0.0437 -0.0405,-0.0862 -0.0586,-0.13085 a 3.5433123,3.5433123 0 0 1 -0.16406,-0.5293 c -0.0103,-0.0451 -0.0222,-0.089 -0.0312,-0.13477 a 3.5433123,3.5433123 0 0 1 -0.0625,-0.63086 c 0,-0.01 -0.004,-0.0193 -0.004,-0.0293 0,-0.0114 0.004,-0.0218 0.004,-0.0332 a 3.5433123,3.5433123 0 0 1 0.0664,-0.66796 c 0.001,-0.003 0.001,-0.005 0.002,-0.008 a 3.5433123,3.5433123 0 0 1 0,-0.004 c 0.002,-0.007 0.005,-0.0125 0.006,-0.0195 a 3.5433123,3.5433123 0 0 1 0.20117,-0.64648 c 0.001,-0.002 0.001,-0.004 0.002,-0.006 a 3.5433123,3.5433123 0 0 1 0.3164,-0.58008 c 0.005,-0.007 0.007,-0.0145 0.0117,-0.0215 a 3.5433123,3.5433123 0 0 1 0.95117,-0.94922 l 0.002,-0.002 a 3.5433123,3.5433123 0 0 1 0.59571,-0.32227 c 0.004,-0.002 0.007,-0.005 0.01,-0.006 a 3.5433123,3.5433123 0 0 1 0.66016,-0.20508 3.5433123,3.5433123 0 0 1 0.002,0 3.5433123,3.5433123 0 0 1 0.71485,-0.0762 3.5433123,3.5433123 0 0 1 1.77734,0.48242 l 9.97852,2.68164 v -0.87304 -4.10352 -4.10351 -4.10157 -4.10351 c -0.005,-0.2099 -0.0354,-0.41595 -0.0781,-0.61328 -0.0434,-0.2006 -0.10449,-0.39433 -0.18359,-0.57813 -0.0791,-0.1839 -0.17607,-0.35808 -0.28711,-0.52148 -0.11102,-0.1634 -0.23588,-0.31588 -0.375,-0.45508 -0.13912,-0.139 -0.29169,-0.264 -0.45508,-0.375 -0.16341,-0.111 -0.3376,-0.20811 -0.52148,-0.28711 -0.18387,-0.0791 -0.37759,-0.14059 -0.57813,-0.18359 -0.19804,-0.0435 -0.40269,-0.0716 -0.61328,-0.0723 h -2.01758 -2.01953 -2.01758 -2.01758 -2.01953 -2.01758 -2.01757 -2.01758 c -0.21339,0 -0.42252,0.0283 -0.62305,0.0723 -0.20054,0.043 -0.3923,0.10449 -0.57617,0.18359 -0.18388,0.079 -0.36004,0.17611 -0.52344,0.28711 -0.16342,0.111 -0.31399,0.236 -0.45312,0.375 -0.13911,0.1392 -0.26593,0.29168 -0.37696,0.45508 -0.11102,0.1634 -0.20801,0.33758 -0.28711,0.52148 -0.0791,0.1838 -0.14019,0.37753 -0.18359,0.57813 -0.0433,0.19988 -0.0761,0.40837 -0.0801,0.62109 h 0.002 v 3.98633 3.98633 3.98633 3.98828 3.98632 3.98633 3.98633 3.98633 c 0,0.3938 -0.0387,0.77653 -0.11133,1.14453 -0.0726,0.368 -0.17984,0.72124 -0.31836,1.05664 -0.13847,0.3355 -0.30816,0.65292 -0.50586,0.94922 -0.19775,0.2963 -0.42354,0.56991 -0.67383,0.82031 -0.25028,0.2504 -0.52413,0.47798 -0.82031,0.67578 -0.29618,0.1979 -0.61384,0.36726 -0.94922,0.50586 -0.3354,0.1386 -0.68873,0.24536 -1.05664,0.31836 -0.36793,0.0726 -0.75071,0.10938 -1.14453,0.10938 H 77.62717 74.52561 71.426 68.32443 65.22482 62.12522 59.02365 57.91428 v 17.70703 h -0.0137 c 1.46606,0.44952 2.52734,1.77558 2.52734,3.3164 0,1.9963 -1.5956,3.59375 -3.5918,3.59375 -1.89641,0 -3.49414,-1.59745 -3.49414,-3.59375 0,-1.54114 1.06163,-2.86716 2.47461,-3.3164 h -0.0293 v -17.69531 l -15.16406,1.85937 H 22.55292 a 9.0362837,9.0362837 0 0 1 -9.03516,-9.03516 V 117.47358 98.872019 80.270457 61.666941 a 9.0362837,9.0362837 0 0 1 9.03516,-9.035156 v -0.002 l 16.67969,1.951172 23.75195,-4.185547 29.76367,-5.244141 29.76367,5.244141 24.73047,4.357422 h 4.72266 9.48047 4.74023 4.79688 7.97265 1.45117 9.48047 9.48047 c 1.46683,3.99e-4 2.30369,-1.187723 2.30469,-2.654297 v -2 -3.996094 -3.996094 -3.996093 -3.996094 -2.544922 h -2.10352 -14.35351 -14.35547 -14.35352 -14.35546 -14.35352 -14.35156 c -0.0296,4e-4 -0.0582,0 -0.0879,0 -3.31873,0 -6.11328,-2.795713 -6.11328,-6.289063 0,-3.3187 2.79455,-6.113281 6.11328,-6.113281 h 0.0879 11.07226 11.07227 11.07422 11.07226 11.07227 11.07226 11.07422 11.07227 c 0.0127,0 0.0244,-0.002 0.0371,-0.002 1.42232,0 2.62109,-1.196219 2.62109,-2.693359 0,-1.42229 -1.19877,-2.621094 -2.62109,-2.621094 -0.0127,0 -0.0244,0.0018 -0.0371,0.002 v -0.002 h -11.07246 -11.07422 -11.07226 -11.07227 -11.07226 -11.07422 -11.07227 -11.05664 c -0.61248,1.069549 -1.73223,1.792969 -3,1.792969 -1.99623,0 -3.59375,-1.59755 -3.59375,-3.59375 0,-1.8964 1.59752,-3.4941407 3.59375,-3.4941407 z M 233.91406,26.608347 v 3.542969 h -10.63086 -10.62891 -5.49219 -1.42382 c -0.99934,0.15104 -1.77864,0.915951 -1.94141,1.869141 v 2.09375 3.996094 3.996093 3.996094 3.996094 1.998047 c -0.002,2.436893 -1.97215,4.413151 -4.40625,4.425781 l -1.16797,0.673828 -1.57422,0.908203 -1.57226,0.90625 -1.57227,0.908203 -1.57226,0.908203 -1.57227,0.908204 -1.57227,0.908203 -1.57421,0.908203 -0.008,-0.01172 c 0.0779,0.284514 0.13281,0.577332 0.13282,0.882813 -10e-6,1.996199 -1.59562,3.59375 -3.5918,3.59375 -1.89641,0 -3.49416,-1.59745 -3.49414,-3.59375 0,-1.896401 1.59773,-3.494141 3.49414,-3.494141 1.02158,0 1.934,0.423372 2.58594,1.085937 l 1.56836,-0.90625 1.57226,-0.908203 1.57227,-0.90625 1.57422,-0.908203 1.57226,-0.908203 1.57227,-0.908203 0.0781,-0.04492 h -5.95508 -9.48047 -1.45117 -7.97265 -4.79688 -4.74023 -9.48047 -4.71094 L 122.51151,60.883739 92.74784,66.12788 62.98417,60.883739 39.23808,56.700145 v 0.002 l -16.68555,1.951172 v 0.002 a 3.0120946,3.0120946 0 0 0 -3.01172,3.011719 v 18.603516 18.601562 18.601566 18.60351 a 3.0120946,3.0120946 0 0 0 3.01172,3.01171 h 18.07031 v -0.004 l 15.30078,1.67578 h 3.09961 3.10157 3.0996 3.09961 3.10157 3.09961 3.10156 3.09961 v -0.006 c 0.2134,-0.004 0.42056,-0.0293 0.62109,-0.0723 0.20054,-0.0434 0.39426,-0.10459 0.57813,-0.18359 0.18389,-0.0791 0.35809,-0.17611 0.52148,-0.28711 0.16341,-0.111 0.31594,-0.2358 0.45508,-0.375 0.13909,-0.1391 0.26592,-0.29168 0.37695,-0.45508 0.11103,-0.1634 0.20606,-0.33758 0.28516,-0.52148 0.0791,-0.1838 0.14214,-0.37763 0.18555,-0.57813 0.0435,-0.2006 0.0683,-0.40769 0.0723,-0.62109 h 0.004 v -3.98633 -3.98633 -3.98633 -3.98632 -3.98828 -3.98633 -3.98633 -3.98633 c 0,-0.3938 0.0387,-0.77663 0.11133,-1.14453 0.0726,-0.3679 0.17978,-0.71939 0.31835,-1.05469 0.13858,-0.3354 0.30804,-0.65302 0.50586,-0.94922 0.19784,-0.2961 0.42342,-0.57196 0.67383,-0.82226 0.25039,-0.2503 0.526,-0.47613 0.82227,-0.67383 0.2963,-0.1978 0.61376,-0.36746 0.94922,-0.50586 0.33549,-0.1385 0.68866,-0.24576 1.05664,-0.31836 0.36798,-0.073 0.75072,-0.10547 1.14453,-0.10547 h 2.01758 2.01757 2.01758 2.01953 2.01758 2.01758 2.01953 2.01758 c 0.39101,4.5e-4 0.77119,0.033 1.13672,0.10547 0.36798,0.0726 0.72117,0.17986 1.05664,0.31836 0.33548,0.1384 0.65293,0.30806 0.94922,0.50586 0.29627,0.1977 0.56991,0.42353 0.82031,0.67383 0.2504,0.2503 0.47795,0.52616 0.67578,0.82226 0.19781,0.2962 0.36729,0.61382 0.50586,0.94922 0.13856,0.3353 0.24576,0.68679 0.31836,1.05469 0.0726,0.3679 0.10938,0.75073 0.10938,1.14453 v 4.0957 4.10157 4.10351 4.10352 4.10156 4.10352 4.10351 4.10156 h 0.006 c 0.004,0.2159 0.0282,0.42601 0.0723,0.62891 0.0441,0.2029 0.1077,0.39818 0.1875,0.58398 0.0798,0.1859 0.17589,0.36245 0.28711,0.52735 0.11121,0.1649 0.2368,0.31908 0.375,0.45898 0.13824,0.1399 0.29033,0.26606 0.45117,0.37696 0.16084,0.111 0.33068,0.20725 0.50977,0.28515 0.17909,0.078 0.36564,0.13674 0.55859,0.17774 0.19294,0.041 0.39329,0.0625 0.5957,0.0625 0.21688,0 0.42683,-0.0215 0.63086,-0.0625 0.20401,-0.041 0.40066,-0.0998 0.58789,-0.17774 0.18725,-0.078 0.36669,-0.17415 0.53321,-0.28515 0.16652,-0.1109 0.32103,-0.23706 0.46289,-0.37696 0.14187,-0.1399 0.26952,-0.29408 0.38281,-0.45898 0.11328,-0.1649 0.21217,-0.34145 0.29297,-0.52735 0.0808,-0.1858 0.1432,-0.38108 0.1875,-0.58398 0.0444,-0.2029 0.0702,-0.41301 0.0742,-0.62891 h 0.006 v -6.64257 -6.64454 -6.64257 -6.64454 -6.64453 -6.642566 -6.644532 -6.642578 h -0.002 c 0,-0.3938 0.0384,-0.776531 0.11329,-1.144531 0.0749,-0.368 0.18612,-0.721241 0.32812,-1.056641 0.142,-0.3355 0.31616,-0.652918 0.51758,-0.949218 0.20143,-0.2963 0.43049,-0.571866 0.68359,-0.822266 0.25309,-0.2504 0.52911,-0.476028 0.82617,-0.673828 0.29707,-0.1978 0.614,-0.36726 0.94727,-0.50586 0.33328,-0.138599 0.68314,-0.245359 1.04492,-0.318359 0.36177,-0.0727 0.73659,-0.111328 1.11914,-0.111328 0.39381,0 0.77655,0.03833 1.14453,0.111328 0.36801,0.0726 0.72115,0.17986 1.05664,0.318359 0.33546,0.1386 0.65293,0.30806 0.94922,0.50586 0.29627,0.1978 0.56991,0.423428 0.82032,0.673828 0.25038,0.2504 0.47795,0.525966 0.67578,0.822266 0.19784,0.2963 0.36728,0.613718 0.50586,0.949218 0.13858,0.3354 0.24575,0.688641 0.31836,1.056641 0.0726,0.368 0.10937,0.750731 0.10937,1.144531 v 4.427735 4.429687 4.429688 4.429676 4.42774 4.42968 4.42969 4.42188 h 0.002 c 0.12714,1.8561 1.38327,3.25781 3.09571,3.50781 h 3.67773 3.6875 3.6875 3.6875 3.68555 3.6875 3.6875 3.54883 c 0.10638,-5.1448 1.12882,-10.27455 3.09179,-15.11523 2.07554,-5.1185 5.18867,-9.913149 9.33985,-14.06445 l 7.51757,7.51562 7.51563,7.51758 7.51758,7.51562 6.27734,6.2793 19.12695,-2.17969 h 27.07618 v 0.002 c 1.86775,-10e-4 3.28498,-1.51743 3.28515,-3.38476 h 0.002 V 91.092722 c -0.13062,-0.219445 -0.26196,-0.435991 -0.39258,-0.697265 -0.16385,-0.2731 -0.38106,-0.545347 -0.54492,-0.873047 -0.21857,-0.2731 -0.43775,-0.601988 -0.65625,-0.929688 -0.21856,-0.3277 -0.49056,-0.654723 -0.76368,-0.982421 -0.27308,-0.3823 -0.54726,-0.709485 -0.875,-1.146485 -0.32774,-0.3823 -0.65478,-0.818859 -1.03711,-1.255859 -0.38237,-0.437 -0.8189,-0.930363 -1.25586,-1.476563 -0.21855,-0.2186 -0.43771,-0.490584 -0.60156,-0.708984 -0.21858,-0.2186 -0.38302,-0.492538 -0.54687,-0.710938 -0.16386,-0.2186 -0.32638,-0.435795 -0.49024,-0.654297 -0.16387,-0.273099 -0.32827,-0.492437 -0.4375,-0.710937 -0.16388,-0.2186 -0.27358,-0.435797 -0.38281,-0.654297 -0.10917,-0.2185 -0.21897,-0.437837 -0.32812,-0.710937 -0.10916,-0.2186 -0.21702,-0.43775 -0.32618,-0.65625 -0.10918,-0.2731 -0.16417,-0.490485 -0.27343,-0.708985 -0.0548,-0.2186 -0.10937,-0.43785 -0.16407,-0.65625 -0.0548,-0.1639 -0.10937,-0.326347 -0.10937,-0.435547 -0.0548,-0.2186 -0.10938,-0.43775 -0.10938,-0.65625 -0.0547,-0.1638 -0.0549,-0.383062 -0.10937,-0.601562 0,-0.2185 -0.0547,-0.435797 -0.0547,-0.654297 v -0.710938 -0.654296 c 0.0547,-0.2186 0.0547,-0.43775 0.0547,-0.65625 0.0547,-0.437 0.10932,-0.87356 0.21875,-1.25586 0.0547,-0.437 0.16426,-0.873559 0.32812,-1.255859 0.10916,-0.3824 0.21903,-0.820725 0.38282,-1.203125 0.16386,-0.3824 0.38103,-0.764097 0.54492,-1.091797 0.21856,-0.3824 0.43776,-0.764097 0.65625,-1.091797 0.2731,-0.3277 0.49058,-0.656575 0.76367,-0.984375 0.27309,-0.3276 0.5472,-0.599934 0.82031,-0.927734 0.27309,-0.2731 0.59999,-0.547213 0.92774,-0.820313 0.32773,-0.2731 0.65663,-0.490572 0.98437,-0.763672 0.32773,-0.2186 0.70944,-0.437762 1.0918,-0.601562 0.32774,-0.2186 0.70946,-0.381022 1.0918,-0.544922 0.38236,-0.1638 0.82076,-0.3283 1.20312,-0.4375 0.38236,-0.1639 0.8189,-0.273425 1.25586,-0.328125 0.32774,-0.055 0.65469,-0.109363 0.98242,-0.164063 0.10845,-0.0182 0.2273,-0.0251 0.34375,-0.0332 v -8.367187 h -17.6875 c -0.45185,1.462054 -1.7763,2.519531 -3.31445,2.519531 -1.99622,0 -3.59375,-1.595607 -3.59375,-3.591797 0,-1.8964 1.59752,-3.49414 3.59375,-3.49414 1.52915,0 2.84711,1.045029 3.30664,2.441406 h 17.69531 0.71094 a 4.4291339,4.4291339 0 0 1 4.42773,-4.429688 h 3.62863 3.62695 a 2.6574802,2.6574802 0 0 0 2.65821,-2.65625 v -3.882812 -3.871094 h -0.002 a 2.6574802,2.6574802 0 0 0 -2.65625,-2.658203 h -3.62691 -3.62891 a 4.4291339,4.4291339 0 0 1 -4.42773,-4.429687 h -0.002 a 2.6574802,2.6574802 0 0 0 -2.65039,-2.658204 h -9.00977 z m -27.99024,15.125 h 4.52344 v 1.0625 h -4.52344 z M 35.70507,61.405222 h 1.0625 v 4.523438 h -1.0625 z m 97.3125,43.677728 h 4.52344 v 1.0625 h -4.52344 z"
       id="rect6136-6-4"
       inkscape:connector-curvature="0" />
  </g>
</svg>
