<?xml version="1.0" encoding="UTF-8" standalone="no"?>
<!-- Created with Inkscape (http://www.inkscape.org/) -->

<svg
   xmlns:dc="http://purl.org/dc/elements/1.1/"
   xmlns:cc="http://creativecommons.org/ns#"
   xmlns:rdf="http://www.w3.org/1999/02/22-rdf-syntax-ns#"
   xmlns:svg="http://www.w3.org/2000/svg"
   xmlns="http://www.w3.org/2000/svg"
   xmlns:sodipodi="http://sodipodi.sourceforge.net/DTD/sodipodi-0.dtd"
   xmlns:inkscape="http://www.inkscape.org/namespaces/inkscape"
   width="120.19991mm"
   height="65.200157mm"
   viewBox="0 0 120.19991 65.200157"
   version="1.1"
   id="svg866"
   inkscape:version="0.92.3 (2405546, 2018-03-11)"
   sodipodi:docname="SIMPLEchar-analysis.svg">
  <defs
     id="defs860" />
  <sodipodi:namedview
     id="base"
     pagecolor="#ffffff"
     bordercolor="#666666"
     borderopacity="1.0"
     inkscape:pageopacity="0.0"
     inkscape:pageshadow="2"
     inkscape:zoom="2.8284271"
     inkscape:cx="125.47704"
     inkscape:cy="140.50278"
     inkscape:document-units="mm"
     inkscape:current-layer="layer3"
     showgrid="false"
     showborder="false"
     inkscape:measure-start="155.033,636.043"
     inkscape:measure-end="154.856,638.429"
     inkscape:window-width="1920"
     inkscape:window-height="1017"
     inkscape:window-x="-8"
     inkscape:window-y="-8"
     inkscape:window-maximized="1"
     fit-margin-top="0"
     fit-margin-left="0"
     fit-margin-right="0"
     fit-margin-bottom="0"
     inkscape:pagecheckerboard="true" />
  <metadata
     id="metadata863">
    <rdf:RDF>
      <cc:Work
         rdf:about="">
        <dc:format>image/svg+xml</dc:format>
        <dc:type
           rdf:resource="http://purl.org/dc/dcmitype/StillImage" />
        <dc:title />
      </cc:Work>
    </rdf:RDF>
  </metadata>
  <g
     inkscape:groupmode="layer"
     id="layer4"
     inkscape:label="_background"
     style="display:inline"
     transform="translate(-8.4276392,-245.67771)">
    <rect
       style="fill:#ffffff;fill-opacity:1;stroke:none;stroke-width:0.20047306;stroke-linecap:round;stroke-linejoin:miter;stroke-miterlimit:4;stroke-dasharray:none;stroke-dashoffset:0;stroke-opacity:1;paint-order:fill markers stroke"
       id="rect1011"
       width="120.19938"
       height="65.199631"
       x="8.4273863"
       y="245.67746" />
  </g>
  <g
     inkscape:groupmode="layer"
     id="layer3"
     inkscape:label="3 - activation"
     style="display:inline"
     transform="translate(-8.4276392,-245.67771)">
    <path
       style="opacity:1;fill:#00009b;fill-opacity:1;stroke:none;stroke-width:0.28200001;stroke-linecap:butt;stroke-linejoin:round;stroke-miterlimit:4;stroke-dasharray:none;stroke-dashoffset:0;stroke-opacity:1"
       d="m 120.05058,278.88514 c -0.47087,3.7e-4 -0.93695,0.0965 -1.36994,0.28162 -0.0306,0.0136 -0.0558,0.0282 -0.0858,0.0419 -0.0142,0.006 -0.0267,0.0131 -0.0408,0.0197 -0.0556,0.0265 -0.11196,0.0514 -0.16588,0.0806 -0.001,0 -0.003,1.8e-4 -0.004,0.003 -0.005,0.003 -0.0101,0.005 -0.0145,0.007 -1.51038,0.74007 -2.26271,2.0692 -4.77232,2.06913 h -3.49074 v 2.0004 h 3.49074 v -5.3e-4 c 2.51663,3.2e-4 3.26572,1.32991 4.78524,2.07172 -0.0138,-0.007 -0.0267,-0.0166 -0.0403,-0.0243 0.0476,0.026 0.096,0.051 0.1447,0.0749 -0.0355,-0.017 -0.0697,-0.0333 -0.10439,-0.0501 0.038,0.0206 0.0779,0.0375 0.11679,0.0568 0.0469,0.024 0.0947,0.0473 0.14263,0.0692 0.001,6.6e-4 0.003,10e-4 0.004,0.002 h 5.1e-4 c 0.44228,0.19502 0.92017,0.29646 1.40354,0.29765 1.93295,1.3e-4 3.49981,-1.56657 3.50004,-3.49951 l 5.2e-4,-0.001 c 1.9e-4,-1.93315 -1.56688,-3.50062 -3.50005,-3.50057 z"
       id="path22080-9-2-6-9-6-93-6-4-7-0"
       inkscape:connector-curvature="0" />
  </g>
  <g
     inkscape:groupmode="layer"
     id="layer5"
     inkscape:label="2 - SIMPLE"
     style="display:inline"
     transform="translate(-8.4276392,-245.67771)">
    <path
       inkscape:connector-curvature="0"
       id="path910-7-2"
       d="m 111.66873,251.45703 a 26.999999,26.999999 0 0 0 -1.21214,-2.41162 l -22.620884,12.82806 -0.003,0.99793 22.414824,13.17318 a 26.999999,26.999999 0 0 0 1.42128,-24.58755 z"
       style="fill:#909090;fill-opacity:0.89019608;stroke:none;stroke-width:0.0112752;stroke-linecap:round;stroke-linejoin:round;stroke-miterlimit:4;stroke-dasharray:none;stroke-dashoffset:0;stroke-opacity:0.98039216;paint-order:stroke markers fill" />
  </g>
  <g
     inkscape:groupmode="layer"
     id="layer2"
     inkscape:label="1 - WF"
     style="display:inline"
     transform="translate(-8.4276392,-245.67771)">
    <path
       style="fill:#64a6d8;fill-opacity:0.98697665;stroke:none;stroke-width:0.33071664;stroke-linecap:round;stroke-linejoin:round;stroke-miterlimit:4;stroke-dasharray:none;stroke-dashoffset:0;stroke-opacity:0.93953492;paint-order:stroke markers fill"
       d="m 280.81836,989.75195 v 0.7793 H 54.046875 c -5.888572,0.0556 -10.564281,4.90591 -10.511719,10.62895 V 1012.5 c 0.05575,5.8885 4.915651,10.5643 10.638672,10.5117 h 75.597652 c 4.48133,-0.041 8.31143,3.5854 8.35547,8.2383 v 11.3379 c 0.0412,4.4813 -3.58538,8.3271 -8.23828,8.3711 H 54.298828 c -5.888572,0.056 -10.564277,4.9059 -10.511719,10.6289 v 11.3555 c 0.05575,5.8885 4.913698,10.5486 10.636719,10.4961 H 167.81055 v 0 h 17.95312 l 35.55664,17.7793 h 0.11133 v -37.7949 h -0.11133 l -35.49804,17.748 h -18.01368 v 0 H 54.423828 c -4.481333,0.041 -8.327055,-3.5991 -8.371094,-8.252 v -11.332 c -0.04116,-4.4814 3.593208,-8.3193 8.246094,-8.3633 h 75.589842 c 5.88859,-0.055 10.55648,-4.9137 10.50391,-10.6367 V 1031.25 c -0.0558,-5.8886 -4.92152,-10.5584 -10.64453,-10.5059 H 54.173828 c -4.481333,0.041 -8.327051,-3.5912 -8.371094,-8.2441 v -11.3398 c -0.04116,-4.48135 3.591255,-8.31929 8.244141,-8.36332 H 280.81836 v 0.73437 h 51.14844 v -3.7793 z"
       id="rect1605-3"
       transform="scale(0.26458333)"
       inkscape:connector-curvature="0" />
  </g>
  <g
     inkscape:label="overlay"
     inkscape:groupmode="layer"
     id="layer1"
     style="display:inline"
     transform="translate(-8.4276392,-245.67771)">
    <path
       style="fill:none;fill-opacity:0.75813958;stroke:#000000;stroke-width:0.2;stroke-linecap:round;stroke-linejoin:miter;stroke-miterlimit:4;stroke-dasharray:none;stroke-dashoffset:0;stroke-opacity:1;paint-order:fill markers stroke"
       d="m 8.5276392,245.77771 v 65.00016 H 128.52755 v -65.00016 z m 101.9291808,3.26802 a 26.999999,26.999999 0 0 1 1.21181,2.41123 h 5.2e-4 a 26.999999,26.999999 0 0 1 -1.42162,24.58762 L 87.832875,262.87175 H 74.299851 v -0.19429 H 14.299896 c -1.231076,0.0116 -2.192669,1.02709 -2.181779,2.21277 v 2.99982 c 0.01165,1.23108 1.029167,2.19268 2.214852,2.18178 h 19.996196 c 1.514216,-0.0139 2.801604,1.22113 2.816365,2.77915 v 3.00035 c 0.01391,1.51421 -1.221137,2.79959 -2.779159,2.8143 H 14.366559 c -1.231075,0.0117 -2.192669,1.02708 -2.181779,2.21279 v 2.99825 c 0.01165,1.23108 1.029167,2.19425 2.214852,2.18335 h 29.999717 v -5.3e-4 h 4.76612 l 9.392189,-4.69583 h 4.400249 v -0.77155 a 1,1 0 0 1 -0.695047,-0.95186 1,1 0 0 1 0.999939,-0.99994 1,1 0 0 1 0.999937,0.99994 1,1 0 0 1 -0.704865,0.95445 v 0.76896 5e-4 h 4.999696 5.16e-4 4.999177 v 3.47835 h 0.001 v 6.52105 h -0.001 v 10.00043 h 5.000213 v -15.00013 -4.9997 h 5.000209 9.999907 v 19.99983 h 4.9997 v -19.99983 h 5.000211 9.9999 c 2.50961,6e-5 3.26193,-1.32905 4.77232,-2.06912 0.004,-0.002 0.01,-0.004 0.015,-0.007 0.001,-0.003 0.003,-0.003 0.004,-0.003 0.0539,-0.0292 0.11028,-0.0541 0.16588,-0.0806 0.0141,-0.007 0.0261,-0.0136 0.0403,-0.0196 0.03,-0.0137 0.0552,-0.0283 0.0858,-0.0419 0.43299,-0.18516 0.89907,-0.28138 1.36995,-0.28165 v -5e-4 c 1.83959,-5e-5 3.34457,1.42036 3.48609,3.22358 h 0.84387 0.59997 v 4.81467 a 1,1 0 0 1 0.71675,0.95808 1,1 0 0 1 -0.99942,1.00047 1,1 0 0 1 -0.99994,-1.00047 1,1 0 0 1 0.68264,-0.9467 v -4.22611 h -0.84646 c -0.16279,1.78194 -1.65967,3.1777 -3.48402,3.17759 -0.48337,-10e-4 -0.96126,-0.10263 -1.40353,-0.29766 h -5.2e-4 c -0.001,-10e-4 -0.003,-10e-4 -0.004,-0.002 -0.0479,-0.022 -0.0957,-0.0452 -0.14262,-0.0692 -0.0389,-0.0193 -0.0793,-0.0362 -0.11731,-0.0569 0.0347,0.0168 0.0694,0.0331 0.1049,0.0501 -0.0487,-0.0239 -0.0971,-0.0489 -0.14469,-0.0749 0.0136,0.008 0.026,0.0173 0.0398,0.0243 -1.51952,-0.74181 -2.26808,-2.07145 -4.78472,-2.07172 v 5.3e-4 h -10.00042 v 17.99942 5.0002 H 88.557378 v -5.0002 -15.00013 h -4.999696 v 15.00013 5.0002 H 73.55726 68.557567 v -15 h -4.999696 v -5.1e-4 h -5.000213 l -9.407694,-4.7041 H 44.399349 14.399632 c -1.514215,0.0139 -2.799549,-1.21907 -2.814299,-2.7771 v -3.00394 c -0.01391,-1.51424 1.223208,-2.79744 2.781226,-2.81223 h 19.999812 c 1.231079,-0.0117 2.190612,-1.02918 2.179711,-2.21486 v -3.00035 c -0.01165,-1.23108 -1.025033,-2.19059 -2.210715,-2.17971 H 14.332969 c -1.514215,0.0139 -2.799548,-1.2232 -2.814298,-2.78122 v -2.99982 c -0.01391,-1.51421 1.223207,-2.79805 2.781225,-2.81274 h 59.999955 v -0.20568 h 13.533024 v 0.99994 l 0.0031,-0.99788 z"
       id="rect1150"
       inkscape:connector-curvature="0" />
  </g>
</svg>
