<svg xmlns="http://www.w3.org/2000/svg" width="160" height="160" viewBox="0 0 42.33 42.33"><defs><path id="a" fill="none" fill-opacity=".25" stroke-width=".27" stroke-opacity=".2" d="M-162.72 350.76h42.33v9.07h-42.33z"/></defs><path d="m34.15 0-1.63 3.66a1.51 1.51 0 0 1-1.38.88H7.56A7.56 7.56 0 0 0 0 12.1a7.56 7.56 0 0 0 0 .05 7.56 7.56 0 0 0 7.56 7.5h27.21a1.51 1.51 0 0 1 1.52 1.52 1.51 1.51 0 0 1-1.52 1.5H10.88a7.56 7.56 0 0 0-6.9 4.48l-2.72 6.11h6.62L9.5 29.6a1.51 1.51 0 0 1 1.37-.87h23.9a7.56 7.56 0 0 0 7.55-7.56 7.56 7.56 0 0 0 0-.05 7.56 7.56 0 0 0-7.56-7.51H7.56a1.51 1.51 0 0 1-1.51-1.51 1.51 1.51 0 0 1 1.5-1.52h23.6a7.56 7.56 0 0 0 6.9-4.46 7.56 7.56 0 0 0 0-.01L40.77 0z" fill="#fff" fill-opacity=".15"/><path d="M31.9 4.33a1.51 1.51 0 0 1-.76.2H7.56A7.56 7.56 0 0 0 0 12.1a7.56 7.56 0 0 0 0 .05 7.56 7.56 0 0 0 7.56 7.5h27.21a1.51 1.51 0 0 1 1.52 1.52 1.51 1.51 0 0 1-1.52 1.5H10.88a7.56 7.56 0 0 0-6.9 4.48l-2.72 6.11h6.62L9.5 29.6a1.51 1.51 0 0 1 1.37-.87h23.9a7.56 7.56 0 0 0 7.55-7.56 7.56 7.56 0 0 0 0-.05 7.56 7.56 0 0 0-7.56-7.51H7.56a1.51 1.51 0 0 1-1.51-1.51 1.51 1.51 0 0 1 1.5-1.52h23.6a7.56 7.56 0 0 0 4.89-1.8 6.05 6.05 0 0 1-4.14-4.45z" fill="#fff" fill-opacity=".15" style="display:inline;fill:#fff;fill-opacity:.153501;stroke:none;stroke-width:.952353;stroke-miterlimit:4;stroke-dasharray:none;stroke-opacity:.2"/><path d="M7.56 4.54A7.56 7.56 0 0 0 0 12.1a7.56 7.56 0 0 0 0 .05 7.56 7.56 0 0 0 7.56 7.5h27.21a1.51 1.51 0 0 1 1.52 1.52 1.51 1.51 0 0 1-1.52 1.5H10.88a7.56 7.56 0 0 0-6.9 4.48l-2.72 6.11h6.62l1.63-3.66a1.51 1.51 0 0 1 1.37-.87h23.9a7.56 7.56 0 0 0 7.55-7.56 7.56 7.56 0 0 0 0-.05 7.56 7.56 0 0 0-7.56-7.51H7.57a1.51 1.51 0 0 1-1.52-1.51 1.51 1.51 0 0 1 1.51-1.52h18.97a6.05 6.05 0 0 1-.04-.05 6.05 6.05 0 0 1-.05-.1 6.05 6.05 0 0 1-.06-.1 6.05 6.05 0 0 1-.04-.1 6.05 6.05 0 0 1-.05-.1 6.05 6.05 0 0 1-.05-.1 6.05 6.05 0 0 1-.05-.11 6.05 6.05 0 0 1-.04-.1 6.05 6.05 0 0 1-.04-.11 6.05 6.05 0 0 1-.04-.11 6.05 6.05 0 0 1-.04-.1 6.05 6.05 0 0 1-.04-.11 6.05 6.05 0 0 1-.03-.11 6.05 6.05 0 0 1-.03-.11 6.05 6.05 0 0 1-.03-.11 6.05 6.05 0 0 1-.03-.11 6.05 6.05 0 0 1-.03-.11 6.05 6.05 0 0 1-.02-.11 6.05 6.05 0 0 1-.02-.12 6.05 6.05 0 0 1-.02-.1 6.05 6.05 0 0 1-.02-.12 6.05 6.05 0 0 1-.01-.11 6.05 6.05 0 0 1-.02-.12 6.05 6.05 0 0 1 0-.11 6.05 6.05 0 0 1-.01-.11 6.05 6.05 0 0 1-.01-.12 6.05 6.05 0 0 1 0-.11 6.05 6.05 0 0 1 0-.11 6.05 6.05 0 0 1 0-.07 6.05 6.05 0 0 1 0-.11 6.05 6.05 0 0 1 0-.11 6.05 6.05 0 0 1 0-.12 6.05 6.05 0 0 1 .01-.11 6.05 6.05 0 0 1 0-.11 6.05 6.05 0 0 1 .02-.12 6.05 6.05 0 0 1 .01-.1 6.05 6.05 0 0 1 .02-.12 6.05 6.05 0 0 1 .02-.11 6.05 6.05 0 0 1 .02-.12 6.05 6.05 0 0 1 .02-.1 6.05 6.05 0 0 1 .03-.12 6.05 6.05 0 0 1 .02-.1 6.05 6.05 0 0 1 .03-.12 6.05 6.05 0 0 1 .03-.1 6.05 6.05 0 0 1 .03-.12 6.05 6.05 0 0 1 .04-.1 6.05 6.05 0 0 1 .04-.11 6.05 6.05 0 0 1 .03-.11 6.05 6.05 0 0 1 .04-.1 6.05 6.05 0 0 1 .05-.11 6.05 6.05 0 0 1 .04-.1 6.05 6.05 0 0 1 .05-.11 6.05 6.05 0 0 1 .05-.1 6.05 6.05 0 0 1 .05-.1 6.05 6.05 0 0 1 .05-.1 6.05 6.05 0 0 1 .06-.1 6.05 6.05 0 0 1 .03-.06z" fill="#fff" fill-opacity=".15"/><path d="M7.56 4.54A7.56 7.56 0 0 0 0 12.1a7.56 7.56 0 0 0 0 .05 7.56 7.56 0 0 0 7.56 7.5h27.21a1.51 1.51 0 0 1 1.52 1.52 1.51 1.51 0 0 1-1.52 1.5H10.88a7.56 7.56 0 0 0-6.9 4.48l-2.72 6.11h6.62l1.63-3.66a1.51 1.51 0 0 1 1.37-.88h23.9a7.56 7.56 0 0 0 7.55-7.56 7.56 7.56 0 0 0 0-.05 7.56 7.56 0 0 0-7.56-7.5H7.56a1.51 1.51 0 0 1-1.51-1.52 1.51 1.51 0 0 1 1.5-1.5h11.42a6.05 6.05 0 0 1-.04-.06 6.05 6.05 0 0 1-.05-.1 6.05 6.05 0 0 1-.05-.1 6.05 6.05 0 0 1-.05-.1 6.05 6.05 0 0 1-.05-.1 6.05 6.05 0 0 1-.05-.11 6.05 6.05 0 0 1-.05-.1 6.05 6.05 0 0 1-.04-.1 6.05 6.05 0 0 1-.04-.12 6.05 6.05 0 0 1-.04-.1 6.05 6.05 0 0 1-.04-.1 6.05 6.05 0 0 1-.04-.12 6.05 6.05 0 0 1-.03-.1 6.05 6.05 0 0 1-.03-.11 6.05 6.05 0 0 1-.03-.11 6.05 6.05 0 0 1-.03-.11 6.05 6.05 0 0 1-.03-.11 6.05 6.05 0 0 1-.02-.12 6.05 6.05 0 0 1-.02-.1 6.05 6.05 0 0 1-.02-.12 6.05 6.05 0 0 1-.02-.11 6.05 6.05 0 0 1-.01-.12 6.05 6.05 0 0 1-.01-.1 6.05 6.05 0 0 1-.01-.12 6.05 6.05 0 0 1-.01-.12 6.05 6.05 0 0 1-.01-.1 6.05 6.05 0 0 1 0-.12 6.05 6.05 0 0 1 0-.12 6.05 6.05 0 0 1 0-.06 6.05 6.05 0 0 1 0-.11 6.05 6.05 0 0 1 0-.11 6.05 6.05 0 0 1 0-.12 6.05 6.05 0 0 1 0-.11 6.05 6.05 0 0 1 .02-.11 6.05 6.05 0 0 1 .01-.12 6.05 6.05 0 0 1 .02-.11 6.05 6.05 0 0 1 .01-.11 6.05 6.05 0 0 1 .02-.12 6.05 6.05 0 0 1 .02-.1 6.05 6.05 0 0 1 .02-.12 6.05 6.05 0 0 1 .03-.1 6.05 6.05 0 0 1 .02-.12 6.05 6.05 0 0 1 .03-.11 6.05 6.05 0 0 1 .03-.11 6.05 6.05 0 0 1 .03-.1 6.05 6.05 0 0 1 .04-.12 6.05 6.05 0 0 1 .04-.1 6.05 6.05 0 0 1 .03-.11 6.05 6.05 0 0 1 .04-.1 6.05 6.05 0 0 1 .05-.11 6.05 6.05 0 0 1 .04-.1A6.05 6.05 0 0 1 18.7 5a6.05 6.05 0 0 1 .05-.1 6.05 6.05 0 0 1 .05-.1 6.05 6.05 0 0 1 .05-.1 6.05 6.05 0 0 1 .06-.1 6.05 6.05 0 0 1 .03-.06z" fill="#fff" fill-opacity=".15"/><path d="M7.56 4.54A7.56 7.56 0 0 0 0 12.1a7.56 7.56 0 0 0 0 .05 7.56 7.56 0 0 0 7.56 7.5h27.21a1.51 1.51 0 0 1 1.52 1.52 1.51 1.51 0 0 1-1.52 1.5H10.88a7.56 7.56 0 0 0-6.9 4.48l-2.72 6.11h6.62l1.63-3.66a1.51 1.51 0 0 1 1.37-.88h23.9a7.56 7.56 0 0 0 7.55-7.56 7.56 7.56 0 0 0 0-.05 7.56 7.56 0 0 0-7.56-7.5H7.56a1.51 1.51 0 0 1-1.51-1.52 1.51 1.51 0 0 1 1.51-1.5h3.85a6.05 6.05 0 0 1-.03-.06 6.05 6.05 0 0 1-.06-.1 6.05 6.05 0 0 1-.05-.1 6.05 6.05 0 0 1-.06-.1 6.05 6.05 0 0 1-.05-.1 6.05 6.05 0 0 1-.04-.11 6.05 6.05 0 0 1-.05-.1 6.05 6.05 0 0 1-.04-.1 6.05 6.05 0 0 1-.04-.12 6.05 6.05 0 0 1-.04-.1 6.05 6.05 0 0 1-.04-.1 6.05 6.05 0 0 1-.04-.12 6.05 6.05 0 0 1-.03-.1 6.05 6.05 0 0 1-.03-.11 6.05 6.05 0 0 1-.03-.11 6.05 6.05 0 0 1-.03-.11 6.05 6.05 0 0 1-.03-.11 6.05 6.05 0 0 1-.02-.12 6.05 6.05 0 0 1-.02-.1 6.05 6.05 0 0 1-.02-.12 6.05 6.05 0 0 1-.02-.11 6.05 6.05 0 0 1-.01-.12 6.05 6.05 0 0 1-.02-.1 6.05 6.05 0 0 1 0-.12 6.05 6.05 0 0 1-.01-.12 6.05 6.05 0 0 1-.01-.1 6.05 6.05 0 0 1 0-.12 6.05 6.05 0 0 1 0-.12 6.05 6.05 0 0 1 0-.06 6.05 6.05 0 0 1 0-.11 6.05 6.05 0 0 1 0-.11 6.05 6.05 0 0 1 0-.12 6.05 6.05 0 0 1 .01-.11 6.05 6.05 0 0 1 .01-.11 6.05 6.05 0 0 1 .01-.12 6.05 6.05 0 0 1 .01-.11 6.05 6.05 0 0 1 .02-.11 6.05 6.05 0 0 1 .02-.12 6.05 6.05 0 0 1 .02-.1 6.05 6.05 0 0 1 .02-.12 6.05 6.05 0 0 1 .03-.1 6.05 6.05 0 0 1 .02-.12 6.05 6.05 0 0 1 .03-.11 6.05 6.05 0 0 1 .03-.11 6.05 6.05 0 0 1 .03-.1 6.05 6.05 0 0 1 .04-.12 6.05 6.05 0 0 1 .03-.1 6.05 6.05 0 0 1 .04-.11 6.05 6.05 0 0 1 .04-.1 6.05 6.05 0 0 1 .05-.11 6.05 6.05 0 0 1 .04-.1 6.05 6.05 0 0 1 .05-.11 6.05 6.05 0 0 1 .05-.1 6.05 6.05 0 0 1 .05-.1 6.05 6.05 0 0 1 .05-.1 6.05 6.05 0 0 1 .06-.1 6.05 6.05 0 0 1 .03-.06z" fill="#fff" fill-opacity=".15"/><path d="M3.02 6.05zm0 0A7.56 7.56 0 0 0 0 12.1a7.56 7.56 0 0 0 0 .05 7.56 7.56 0 0 0 7.56 7.5h27.21a1.51 1.51 0 0 1 1.52 1.52 1.51 1.51 0 0 1-1.52 1.5H10.88a7.56 7.56 0 0 0-6.9 4.48l-2.72 6.11h6.62L9.5 29.6a1.51 1.51 0 0 1 1.37-.87h23.9a7.56 7.56 0 0 0 7.55-7.56 7.56 7.56 0 0 0 0-.05 7.56 7.56 0 0 0-7.56-7.51H7.56a1.51 1.51 0 0 1-1.51-1.51 1.51 1.51 0 0 1 .19-.74 6.05 6.05 0 0 1-.01 0 6.05 6.05 0 0 1-.1-.05 6.05 6.05 0 0 1-.1-.06 6.05 6.05 0 0 1-.1-.06 6.05 6.05 0 0 1-.1-.06 6.05 6.05 0 0 1-.09-.06 6.05 6.05 0 0 1-.1-.06 6.05 6.05 0 0 1-.09-.07 6.05 6.05 0 0 1-.09-.06 6.05 6.05 0 0 1-.09-.07 6.05 6.05 0 0 1-.09-.07 6.05 6.05 0 0 1-.08-.08 6.05 6.05 0 0 1-.1-.07 6.05 6.05 0 0 1-.08-.07 6.05 6.05 0 0 1-.08-.08 6.05 6.05 0 0 1-.08-.08 6.05 6.05 0 0 1-.08-.08 6.05 6.05 0 0 1-.08-.08 6.05 6.05 0 0 1-.08-.08 6.05 6.05 0 0 1-.08-.09 6.05 6.05 0 0 1-.07-.08 6.05 6.05 0 0 1-.07-.1 6.05 6.05 0 0 1-.07-.08 6.05 6.05 0 0 1-.07-.1 6.05 6.05 0 0 1-.07-.08 6.05 6.05 0 0 1-.07-.1 6.05 6.05 0 0 1-.06-.09 6.05 6.05 0 0 1-.07-.1 6.05 6.05 0 0 1-.06-.09 6.05 6.05 0 0 1-.06-.1 6.05 6.05 0 0 1-.05-.1 6.05 6.05 0 0 1-.06-.1 6.05 6.05 0 0 1-.05-.1 6.05 6.05 0 0 1-.05-.1 6.05 6.05 0 0 1-.05-.1 6.05 6.05 0 0 1-.05-.1 6.05 6.05 0 0 1-.05-.1 6.05 6.05 0 0 1-.04-.11 6.05 6.05 0 0 1-.04-.1 6.05 6.05 0 0 1-.04-.11 6.05 6.05 0 0 1-.04-.11 6.05 6.05 0 0 1-.04-.1 6.05 6.05 0 0 1-.03-.12 6.05 6.05 0 0 1-.03-.1 6.05 6.05 0 0 1-.03-.11 6.05 6.05 0 0 1-.03-.11 6.05 6.05 0 0 1-.02-.12 6.05 6.05 0 0 1-.03-.1 6.05 6.05 0 0 1-.02-.12 6.05 6.05 0 0 1-.02-.11 6.05 6.05 0 0 1-.02-.11 6.05 6.05 0 0 1-.01-.11 6.05 6.05 0 0 1-.02-.12 6.05 6.05 0 0 1 0-.11 6.05 6.05 0 0 1-.01-.12 6.05 6.05 0 0 1-.01-.1 6.05 6.05 0 0 1 0-.12 6.05 6.05 0 0 1 0-.12 6.05 6.05 0 0 1 0-.03z" fill="#fff" fill-opacity=".15"/><path d="M6.9 13.45a6.05 6.05 0 0 1-.05.08 6.05 6.05 0 0 1-.05.1 6.05 6.05 0 0 1-.06.1 6.05 6.05 0 0 1-.06.1 6.05 6.05 0 0 1-.06.09 6.05 6.05 0 0 1-.07.1 6.05 6.05 0 0 1-.06.09 6.05 6.05 0 0 1-.07.09 6.05 6.05 0 0 1-.07.09 6.05 6.05 0 0 1-.07.09 6.05 6.05 0 0 1-.07.09 6.05 6.05 0 0 1-.07.08 6.05 6.05 0 0 1-.08.09 6.05 6.05 0 0 1-.08.08 6.05 6.05 0 0 1-.07.08 6.05 6.05 0 0 1-.08.08 6.05 6.05 0 0 1-.09.08 6.05 6.05 0 0 1-.08.08 6.05 6.05 0 0 1-.08.08 6.05 6.05 0 0 1-.09.07 6.05 6.05 0 0 1-.09.08 6.05 6.05 0 0 1-.09.07 6.05 6.05 0 0 1-.09.07 6.05 6.05 0 0 1-.09.06 6.05 6.05 0 0 1-.09.07 6.05 6.05 0 0 1-.1.06 6.05 6.05 0 0 1-.09.07 6.05 6.05 0 0 1-.1.06 6.05 6.05 0 0 1-.1.06 6.05 6.05 0 0 1-.09.05 6.05 6.05 0 0 1-.1.06 6.05 6.05 0 0 1-.1.05 6.05 6.05 0 0 1-.1.05 6.05 6.05 0 0 1-.1.05 6.05 6.05 0 0 1-.1.05 6.05 6.05 0 0 1-.1.05 6.05 6.05 0 0 1-.11.04 6.05 6.05 0 0 1-.11.04 6.05 6.05 0 0 1-.1.04 6.05 6.05 0 0 1-.11.04 6.05 6.05 0 0 1-.11.04 6.05 6.05 0 0 1-.11.03 6.05 6.05 0 0 1-.11.03 6.05 6.05 0 0 1-.11.03 6.05 6.05 0 0 1-.11.03 6.05 6.05 0 0 1-.11.03 6.05 6.05 0 0 1-.11.02 6.05 6.05 0 0 1-.11.02 6.05 6.05 0 0 1-.12.02 6.05 6.05 0 0 1-.1.02 6.05 6.05 0 0 1-.12.01 6.05 6.05 0 0 1-.11.02 6.05 6.05 0 0 1-.12 0 6.05 6.05 0 0 1-.11.01 6.05 6.05 0 0 1-.11.01 6.05 6.05 0 0 1-.12 0 6.05 6.05 0 0 1-.11 0 6.05 6.05 0 0 1-.06 0 6.05 6.05 0 0 1-.05 0 7.56 7.56 0 0 0 6.04 3.03h27.21a1.51 1.51 0 0 1 1.51 1.5 1.51 1.51 0 0 1-1.5 1.52h-23.9a7.56 7.56 0 0 0-6.9 4.47l-2.72 6.11h6.62l1.63-3.65a1.51 1.51 0 0 1 1.37-.88h23.9a7.56 7.56 0 0 0 7.55-7.56 7.56 7.56 0 0 0 0-.05 7.56 7.56 0 0 0-7.56-7.51H7.56a1.51 1.51 0 0 1-.66-.16z" fill="#fff" fill-opacity=".25"/><path d="M11.34 13.6a6.05 6.05 0 0 1 .05.09 6.05 6.05 0 0 1 .05.1 6.05 6.05 0 0 1 .05.1 6.05 6.05 0 0 1 .05.1 6.05 6.05 0 0 1 .05.1 6.05 6.05 0 0 1 .05.1 6.05 6.05 0 0 1 .04.11 6.05 6.05 0 0 1 .04.1 6.05 6.05 0 0 1 .04.11 6.05 6.05 0 0 1 .04.11 6.05 6.05 0 0 1 .03.1 6.05 6.05 0 0 1 .04.12 6.05 6.05 0 0 1 .03.1 6.05 6.05 0 0 1 .03.12 6.05 6.05 0 0 1 .03.1 6.05 6.05 0 0 1 .02.12 6.05 6.05 0 0 1 .03.1 6.05 6.05 0 0 1 .02.12 6.05 6.05 0 0 1 .02.11 6.05 6.05 0 0 1 .01.12 6.05 6.05 0 0 1 .02.1 6.05 6.05 0 0 1 .01.12 6.05 6.05 0 0 1 .01.11 6.05 6.05 0 0 1 .01.12 6.05 6.05 0 0 1 0 .11 6.05 6.05 0 0 1 .01.12 6.05 6.05 0 0 1 0 .1 6.05 6.05 0 0 1 0 .07 6.05 6.05 0 0 1 0 .11 6.05 6.05 0 0 1 0 .12 6.05 6.05 0 0 1 0 .11 6.05 6.05 0 0 1-.01.11 6.05 6.05 0 0 1-.01.12 6.05 6.05 0 0 1-.01.11 6.05 6.05 0 0 1-.02.11 6.05 6.05 0 0 1-.01.12 6.05 6.05 0 0 1-.02.1 6.05 6.05 0 0 1-.02.12 6.05 6.05 0 0 1-.02.11 6.05 6.05 0 0 1-.03.11 6.05 6.05 0 0 1-.02.11 6.05 6.05 0 0 1-.03.11 6.05 6.05 0 0 1-.03.11 6.05 6.05 0 0 1-.04.11 6.05 6.05 0 0 1-.03.11 6.05 6.05 0 0 1-.04.1 6.05 6.05 0 0 1-.04.11 6.05 6.05 0 0 1-.04.11 6.05 6.05 0 0 1-.04.1 6.05 6.05 0 0 1-.04.11 6.05 6.05 0 0 1-.05.1 6.05 6.05 0 0 1-.05.1 6.05 6.05 0 0 1-.05.1 6.05 6.05 0 0 1-.05.1 6.05 6.05 0 0 1-.06.1 6.05 6.05 0 0 1-.05.1 6.05 6.05 0 0 1-.02.04h23.48a1.51 1.51 0 0 1 1.51 1.52 1.51 1.51 0 0 1-1.5 1.5h-23.9a7.56 7.56 0 0 0-6.9 4.48l-2.72 6.11h6.62l1.63-3.66a1.51 1.51 0 0 1 1.37-.87h23.9a7.56 7.56 0 0 0 7.55-7.56 7.56 7.56 0 0 0 0-.05 7.56 7.56 0 0 0-7.56-7.51z" fill="#fff" fill-opacity=".4"/><path d="M18.86 13.6a6.05 6.05 0 0 1 0 .01 6.05 6.05 0 0 1 .06.1 6.05 6.05 0 0 1 .05.1 6.05 6.05 0 0 1 .05.1 6.05 6.05 0 0 1 .05.1 6.05 6.05 0 0 1 .05.1 6.05 6.05 0 0 1 .05.11 6.05 6.05 0 0 1 .04.1 6.05 6.05 0 0 1 .04.11 6.05 6.05 0 0 1 .04.1 6.05 6.05 0 0 1 .04.12 6.05 6.05 0 0 1 .03.1 6.05 6.05 0 0 1 .04.11 6.05 6.05 0 0 1 .03.11 6.05 6.05 0 0 1 .03.11 6.05 6.05 0 0 1 .03.11 6.05 6.05 0 0 1 .02.11 6.05 6.05 0 0 1 .03.11 6.05 6.05 0 0 1 .02.12 6.05 6.05 0 0 1 .02.1 6.05 6.05 0 0 1 .01.12 6.05 6.05 0 0 1 .02.11 6.05 6.05 0 0 1 .01.12 6.05 6.05 0 0 1 .01.1 6.05 6.05 0 0 1 .01.12 6.05 6.05 0 0 1 0 .12 6.05 6.05 0 0 1 .01.11 6.05 6.05 0 0 1 0 .11 6.05 6.05 0 0 1 0 .06 6.05 6.05 0 0 1 0 .12 6.05 6.05 0 0 1 0 .11 6.05 6.05 0 0 1 0 .12 6.05 6.05 0 0 1-.01.1 6.05 6.05 0 0 1-.01.12 6.05 6.05 0 0 1-.01.11 6.05 6.05 0 0 1-.02.12 6.05 6.05 0 0 1-.01.11 6.05 6.05 0 0 1-.02.11 6.05 6.05 0 0 1-.02.11 6.05 6.05 0 0 1-.02.12 6.05 6.05 0 0 1-.03.1 6.05 6.05 0 0 1-.02.12 6.05 6.05 0 0 1-.03.1 6.05 6.05 0 0 1-.03.12 6.05 6.05 0 0 1-.04.1 6.05 6.05 0 0 1-.03.12 6.05 6.05 0 0 1-.04.1 6.05 6.05 0 0 1-.04.1 6.05 6.05 0 0 1-.04.11 6.05 6.05 0 0 1-.04.11 6.05 6.05 0 0 1-.05.1 6.05 6.05 0 0 1-.04.1 6.05 6.05 0 0 1-.05.11 6.05 6.05 0 0 1-.05.1 6.05 6.05 0 0 1-.05.1 6.05 6.05 0 0 1-.06.1 6.05 6.05 0 0 1-.05.1 6.05 6.05 0 0 1-.01.01h15.94a1.51 1.51 0 0 1 1.52 1.52 1.51 1.51 0 0 1-1.52 1.5H10.88a7.56 7.56 0 0 0-6.9 4.48l-2.72 6.11h6.62L9.5 29.6a1.51 1.51 0 0 1 1.37-.87h23.9a7.56 7.56 0 0 0 7.55-7.56 7.56 7.56 0 0 0 0-.05 7.56 7.56 0 0 0-7.56-7.51z" fill="#fff" fill-opacity=".5"/><path d="M26.42 13.6a6.05 6.05 0 0 1 0 .01 6.05 6.05 0 0 1 .06.1 6.05 6.05 0 0 1 .05.1 6.05 6.05 0 0 1 .05.1 6.05 6.05 0 0 1 .05.1 6.05 6.05 0 0 1 .05.1 6.05 6.05 0 0 1 .04.11 6.05 6.05 0 0 1 .05.1 6.05 6.05 0 0 1 .04.11 6.05 6.05 0 0 1 .04.1 6.05 6.05 0 0 1 .04.12 6.05 6.05 0 0 1 .03.1 6.05 6.05 0 0 1 .04.11 6.05 6.05 0 0 1 .03.11 6.05 6.05 0 0 1 .03.11 6.05 6.05 0 0 1 .03.11 6.05 6.05 0 0 1 .02.11 6.05 6.05 0 0 1 .03.11 6.05 6.05 0 0 1 .02.12 6.05 6.05 0 0 1 .02.1 6.05 6.05 0 0 1 .01.12 6.05 6.05 0 0 1 .02.11 6.05 6.05 0 0 1 .01.12 6.05 6.05 0 0 1 .01.1 6.05 6.05 0 0 1 .01.12 6.05 6.05 0 0 1 0 .12 6.05 6.05 0 0 1 .01.11 6.05 6.05 0 0 1 0 .11 6.05 6.05 0 0 1 0 .06 6.05 6.05 0 0 1 0 .12 6.05 6.05 0 0 1 0 .11 6.05 6.05 0 0 1 0 .12 6.05 6.05 0 0 1-.01.1 6.05 6.05 0 0 1-.01.12 6.05 6.05 0 0 1-.01.11 6.05 6.05 0 0 1-.02.12 6.05 6.05 0 0 1-.01.11 6.05 6.05 0 0 1-.02.11 6.05 6.05 0 0 1-.02.11 6.05 6.05 0 0 1-.03.12 6.05 6.05 0 0 1-.02.1 6.05 6.05 0 0 1-.03.12 6.05 6.05 0 0 1-.02.1 6.05 6.05 0 0 1-.03.12 6.05 6.05 0 0 1-.04.1 6.05 6.05 0 0 1-.03.12 6.05 6.05 0 0 1-.04.1 6.05 6.05 0 0 1-.04.1 6.05 6.05 0 0 1-.04.11 6.05 6.05 0 0 1-.04.11 6.05 6.05 0 0 1-.05.1 6.05 6.05 0 0 1-.04.1 6.05 6.05 0 0 1-.05.11 6.05 6.05 0 0 1-.05.1 6.05 6.05 0 0 1-.05.1 6.05 6.05 0 0 1-.06.1 6.05 6.05 0 0 1-.05.1 6.05 6.05 0 0 1-.01.01h8.38a1.51 1.51 0 0 1 1.52 1.52 1.51 1.51 0 0 1-1.52 1.5H10.88a7.56 7.56 0 0 0-6.9 4.48l-2.72 6.11h6.62l1.63-3.66a1.51 1.51 0 0 1 1.37-.87h23.9a7.56 7.56 0 0 0 7.55-7.56 7.56 7.56 0 0 0 0-.05 7.56 7.56 0 0 0-7.56-7.51z" fill="#fff" fill-opacity=".75"/><g style="font-weight:400;font-size:4.233px;line-height:1.25;font-family:'Bitstream Vera Sans';-inkscape-font-specification:'Bitstream Vera Sans';letter-spacing:0;word-spacing:0;white-space:pre;shape-inside:url(#a);fill:#fff"><path d="M-161.5 354.57q-.33 0-.78-.14v-.4q.44.22.77.22.25 0 .4-.1.14-.1.14-.27 0-.15-.13-.24-.12-.09-.38-.14l-.16-.04q-.33-.06-.48-.21-.15-.16-.15-.42 0-.33.23-.51.22-.18.64-.18.36 0 .7.14v.37q-.33-.2-.69-.2-.5 0-.5.35 0 .11.05.18.04.06.16.1.12.05.36.1l.16.03q.57.11.57.62 0 .35-.24.54-.25.2-.67.2zm1.73-3.27h.38v1.24q.21-.4.69-.4.28 0 .43.13.16.13.21.35.06.21.06.46v1.43h-.38v-1.43q0-.32-.11-.46-.1-.15-.34-.15-.22 0-.34.1-.12.11-.17.28-.05.17-.05.35v1.31h-.38zm3.2 3.27q-.33 0-.55-.2-.22-.19-.22-.55 0-.3.14-.46.15-.17.38-.24.24-.07.5-.07h.51v-.06q0-.3-.15-.41-.15-.12-.42-.12-.21 0-.41.06-.2.06-.38.16v-.38q.19-.07.38-.11.2-.05.4-.05t.4.06q.2.05.34.18t.19.35q.03.15.03.46v.47l.02.43q.03.24.1.42h-.38l-.05-.17-.04-.18q-.12.2-.33.31-.22.1-.46.1zm.1-.32q.23 0 .38-.11.14-.12.21-.3.07-.2.07-.4v-.1h-.48q-.16 0-.32.04-.15.04-.25.14t-.1.3q0 .22.13.33.14.1.35.1zm1.79-2.05h.34l.04.3q.2-.36.62-.36t.66.32q.24.33.24.9 0 .56-.25.88-.23.33-.65.33-.43 0-.62-.35v1.17h-.38zm.95 2.05q.55 0 .55-.9 0-.89-.55-.89-.27 0-.42.23-.15.24-.15.66 0 .43.15.67.15.23.42.23zm2.61.32q-.54 0-.84-.32-.3-.32-.3-.88 0-.34.11-.62.12-.28.36-.44.24-.17.6-.17.46 0 .7.3.27.3.27.82v.18h-1.65v.02q0 .36.19.57.19.22.56.22.22 0 .42-.07.2-.07.39-.17v.38q-.2.08-.4.13t-.41.05zm.52-1.42q0-.2-.06-.35-.06-.16-.19-.25-.12-.09-.33-.09-.21 0-.36.1-.14.09-.22.24-.08.16-.1.35zm1.59-.65h-.62v-.3h.62v-.17q0-.38.17-.56.18-.18.55-.18h.45v.32h-.43q-.2 0-.28.09-.08.08-.08.3v.2h.8v.3h-.8v2.01h-.38zm3.28 2.03q-.34 0-.53-.22t-.19-.62v-2.1h-.6v-.3h.98v2.4q0 .25.1.38t.28.13h.44v.33zm2.13.04q-.49 0-.74-.31-.26-.32-.26-.9 0-.6.26-.9.26-.32.74-.32t.73.31q.26.32.26.91 0 .59-.26.9-.25.31-.73.31zm0-.32q.28 0 .43-.23.15-.23.15-.67 0-.43-.15-.66-.15-.23-.43-.23-.29 0-.44.23-.15.23-.15.66 0 .44.15.67.15.23.44.23zm1.27-2.05h.38l.4 1.87.33-1.2h.32l.34 1.2.4-1.87h.38l-.54 2.31h-.37l-.37-1.27-.37 1.27h-.36z" style="font-family:Hack;-inkscape-font-specification:Hack" aria-label="shapeflow" transform="translate(261.74 -525.63) scale(1.59398)"/></g><path fill="none" d="M0 33.26h42.33v9.07H0z"/><path d="M222.94-3.39h16.46H223a6.62 6.62 0 0 0-.06 0z" fill="#666" fill-opacity=".11" style="mix-blend-mode:normal"/></svg>