<svg xmlns="http://www.w3.org/2000/svg" width="160" height="160" viewBox="0 0 42.333 42.333"><defs><path id="a" fill="none" fill-opacity=".248" stroke-width=".266" stroke-opacity=".2" d="M-162.719 350.765h42.333v9.069h-42.333z"/></defs><path d="M34.145 0l-1.629 3.658a1.512 1.512 0 01-1.372.878H7.56A7.56 7.56 0 000 12.096a7.56 7.56 0 000 .05 7.56 7.56 0 007.56 7.508h27.213a1.512 1.512 0 011.512 1.512 1.512 1.512 0 01-1.512 1.511H10.88a7.56 7.56 0 00-6.9 4.474l-2.72 6.11h6.619l1.629-3.658a1.512 1.512 0 011.372-.878h23.893a7.56 7.56 0 007.56-7.56 7.56 7.56 0 000-.05 7.56 7.56 0 00-7.56-7.509H7.559a1.512 1.512 0 01-1.512-1.511 1.512 1.512 0 011.512-1.512h23.585a7.56 7.56 0 006.897-4.466 7.56 7.56 0 00.005-.008L40.765 0z" fill="#fff" fill-opacity=".154"/><path d="M31.898 4.334a1.512 1.512 0 01-.754.202H7.56A7.56 7.56 0 000 12.096a7.56 7.56 0 000 .05 7.56 7.56 0 007.56 7.508h27.213a1.512 1.512 0 011.512 1.512 1.512 1.512 0 01-1.512 1.511H10.88a7.56 7.56 0 00-6.9 4.474l-2.72 6.11h6.619l1.629-3.658a1.512 1.512 0 011.372-.878h23.893a7.56 7.56 0 007.56-7.56 7.56 7.56 0 000-.05 7.56 7.56 0 00-7.56-7.509H7.559a1.512 1.512 0 01-1.512-1.511 1.512 1.512 0 011.512-1.512h23.585a7.56 7.56 0 004.894-1.8 6.047 6.047 0 01-4.14-4.45z" fill="#fff" fill-opacity=".154" style="display:inline;fill:#ffffff;fill-opacity:0.153501;stroke:none;stroke-width:0.952353;stroke-miterlimit:4;stroke-dasharray:none;stroke-opacity:0.2"/><path d="M7.56 4.536a7.56 7.56 0 00-7.559 7.56 7.56 7.56 0 000 .05 7.56 7.56 0 007.56 7.508h27.213a1.512 1.512 0 011.512 1.512 1.512 1.512 0 01-1.512 1.512H10.881a7.56 7.56 0 00-6.9 4.474l-2.72 6.109h6.62l1.628-3.658a1.512 1.512 0 011.372-.877h23.893a7.56 7.56 0 007.56-7.56 7.56 7.56 0 000-.05 7.56 7.56 0 00-7.56-7.509H7.561a1.512 1.512 0 01-1.512-1.512 1.512 1.512 0 011.512-1.512h18.966a6.047 6.047 0 01-.033-.055 6.047 6.047 0 01-.055-.1 6.047 6.047 0 01-.054-.1 6.047 6.047 0 01-.05-.101 6.047 6.047 0 01-.05-.103 6.047 6.047 0 01-.048-.103 6.047 6.047 0 01-.047-.104 6.047 6.047 0 01-.043-.105 6.047 6.047 0 01-.042-.106 6.047 6.047 0 01-.04-.106 6.047 6.047 0 01-.037-.107 6.047 6.047 0 01-.036-.108 6.047 6.047 0 01-.034-.109 6.047 6.047 0 01-.032-.109 6.047 6.047 0 01-.03-.11 6.047 6.047 0 01-.027-.11 6.047 6.047 0 01-.026-.111 6.047 6.047 0 01-.023-.111 6.047 6.047 0 01-.022-.112 6.047 6.047 0 01-.019-.112 6.047 6.047 0 01-.017-.112 6.047 6.047 0 01-.015-.113 6.047 6.047 0 01-.013-.113 6.047 6.047 0 01-.01-.113 6.047 6.047 0 01-.008-.114 6.047 6.047 0 01-.007-.113 6.047 6.047 0 01-.005-.114 6.047 6.047 0 01-.002-.113 6.047 6.047 0 010-.062 6.047 6.047 0 010-.114 6.047 6.047 0 01.004-.113 6.047 6.047 0 01.006-.113 6.047 6.047 0 01.008-.114 6.047 6.047 0 01.009-.113 6.047 6.047 0 01.011-.113 6.047 6.047 0 01.014-.113 6.047 6.047 0 01.016-.113 6.047 6.047 0 01.018-.112 6.047 6.047 0 01.02-.112 6.047 6.047 0 01.023-.111 6.047 6.047 0 01.024-.111 6.047 6.047 0 01.026-.11 6.047 6.047 0 01.03-.111 6.047 6.047 0 01.03-.11 6.047 6.047 0 01.032-.108 6.047 6.047 0 01.035-.109 6.047 6.047 0 01.037-.107 6.047 6.047 0 01.039-.107 6.047 6.047 0 01.04-.106 6.047 6.047 0 01.043-.105 6.047 6.047 0 01.045-.105A6.047 6.047 0 0126.26 5a6.047 6.047 0 01.048-.102 6.047 6.047 0 01.05-.102 6.047 6.047 0 01.053-.101 6.047 6.047 0 01.055-.1 6.047 6.047 0 01.032-.058z" fill="#fff" fill-opacity=".154"/><path d="M7.56 4.536A7.56 7.56 0 000 12.096a7.56 7.56 0 000 .05 7.56 7.56 0 007.56 7.508h27.213a1.512 1.512 0 011.512 1.512 1.512 1.512 0 01-1.512 1.512H10.88a7.56 7.56 0 00-6.9 4.474L1.26 33.26h6.62l1.628-3.658a1.512 1.512 0 011.372-.877h23.893a7.56 7.56 0 007.56-7.56 7.56 7.56 0 000-.05 7.56 7.56 0 00-7.56-7.509H7.559a1.512 1.512 0 01-1.512-1.512 1.512 1.512 0 011.512-1.512h11.408a6.047 6.047 0 01-.032-.055 6.047 6.047 0 01-.055-.1 6.047 6.047 0 01-.054-.1 6.047 6.047 0 01-.051-.101 6.047 6.047 0 01-.05-.103 6.047 6.047 0 01-.048-.103 6.047 6.047 0 01-.046-.104 6.047 6.047 0 01-.043-.105 6.047 6.047 0 01-.042-.106 6.047 6.047 0 01-.04-.106 6.047 6.047 0 01-.038-.107 6.047 6.047 0 01-.036-.108 6.047 6.047 0 01-.033-.109 6.047 6.047 0 01-.032-.109 6.047 6.047 0 01-.03-.11 6.047 6.047 0 01-.027-.11 6.047 6.047 0 01-.026-.111 6.047 6.047 0 01-.023-.111 6.047 6.047 0 01-.022-.112 6.047 6.047 0 01-.019-.112 6.047 6.047 0 01-.017-.112 6.047 6.047 0 01-.015-.113 6.047 6.047 0 01-.013-.113 6.047 6.047 0 01-.01-.113 6.047 6.047 0 01-.009-.114 6.047 6.047 0 01-.007-.113 6.047 6.047 0 01-.005-.114 6.047 6.047 0 01-.002-.113 6.047 6.047 0 010-.062 6.047 6.047 0 010-.114 6.047 6.047 0 01.003-.113 6.047 6.047 0 01.006-.113 6.047 6.047 0 01.008-.114 6.047 6.047 0 01.01-.113 6.047 6.047 0 01.012-.113 6.047 6.047 0 01.014-.113 6.047 6.047 0 01.015-.113 6.047 6.047 0 01.018-.112 6.047 6.047 0 01.02-.112 6.047 6.047 0 01.022-.111 6.047 6.047 0 01.025-.111 6.047 6.047 0 01.026-.11 6.047 6.047 0 01.03-.111 6.047 6.047 0 01.03-.11 6.047 6.047 0 01.032-.108 6.047 6.047 0 01.035-.109 6.047 6.047 0 01.037-.107 6.047 6.047 0 01.039-.107 6.047 6.047 0 01.04-.106 6.047 6.047 0 01.043-.105 6.047 6.047 0 01.045-.105A6.047 6.047 0 0118.699 5a6.047 6.047 0 01.048-.102 6.047 6.047 0 01.05-.102 6.047 6.047 0 01.053-.101 6.047 6.047 0 01.055-.1 6.047 6.047 0 01.032-.058z" fill="#fff" fill-opacity=".154"/><path d="M7.56 4.536A7.56 7.56 0 000 12.096a7.56 7.56 0 000 .05 7.56 7.56 0 007.56 7.508h27.213a1.512 1.512 0 011.512 1.512 1.512 1.512 0 01-1.512 1.512H10.881a7.56 7.56 0 00-6.901 4.474L1.26 33.26h6.62l1.628-3.658a1.512 1.512 0 011.373-.877h23.892a7.56 7.56 0 007.56-7.56 7.56 7.56 0 000-.05 7.56 7.56 0 00-7.56-7.509H7.56a1.512 1.512 0 01-1.512-1.512 1.512 1.512 0 011.512-1.512h3.848a6.047 6.047 0 01-.032-.055 6.047 6.047 0 01-.055-.1 6.047 6.047 0 01-.054-.1 6.047 6.047 0 01-.052-.101 6.047 6.047 0 01-.05-.103 6.047 6.047 0 01-.047-.103 6.047 6.047 0 01-.046-.104 6.047 6.047 0 01-.044-.105 6.047 6.047 0 01-.042-.106 6.047 6.047 0 01-.04-.106 6.047 6.047 0 01-.037-.107 6.047 6.047 0 01-.036-.108 6.047 6.047 0 01-.034-.109 6.047 6.047 0 01-.032-.109 6.047 6.047 0 01-.03-.11 6.047 6.047 0 01-.027-.11 6.047 6.047 0 01-.025-.111 6.047 6.047 0 01-.024-.111 6.047 6.047 0 01-.021-.112 6.047 6.047 0 01-.02-.112 6.047 6.047 0 01-.016-.112 6.047 6.047 0 01-.016-.113 6.047 6.047 0 01-.013-.113 6.047 6.047 0 01-.01-.113 6.047 6.047 0 01-.008-.114 6.047 6.047 0 01-.007-.113 6.047 6.047 0 01-.005-.114 6.047 6.047 0 01-.002-.113 6.047 6.047 0 010-.062 6.047 6.047 0 010-.114 6.047 6.047 0 01.003-.113 6.047 6.047 0 01.006-.113 6.047 6.047 0 01.008-.114 6.047 6.047 0 01.01-.113 6.047 6.047 0 01.011-.113 6.047 6.047 0 01.014-.113 6.047 6.047 0 01.016-.113 6.047 6.047 0 01.017-.112 6.047 6.047 0 01.021-.112 6.047 6.047 0 01.022-.111 6.047 6.047 0 01.025-.111 6.047 6.047 0 01.026-.11 6.047 6.047 0 01.029-.111 6.047 6.047 0 01.03-.11 6.047 6.047 0 01.033-.108 6.047 6.047 0 01.035-.109 6.047 6.047 0 01.036-.107 6.047 6.047 0 01.04-.107 6.047 6.047 0 01.04-.106 6.047 6.047 0 01.043-.105 6.047 6.047 0 01.044-.105A6.047 6.047 0 0111.14 5a6.047 6.047 0 01.049-.102 6.047 6.047 0 01.05-.102 6.047 6.047 0 01.053-.101 6.047 6.047 0 01.054-.1 6.047 6.047 0 01.033-.058z" fill="#fff" fill-opacity=".154"/><path d="M3.023 6.047zm0 0A7.56 7.56 0 000 12.095a7.56 7.56 0 000 .05 7.56 7.56 0 007.56 7.509h27.213a1.512 1.512 0 011.512 1.512 1.512 1.512 0 01-1.512 1.511H10.88a7.56 7.56 0 00-6.9 4.474l-2.72 6.11h6.619l1.629-3.658a1.512 1.512 0 011.372-.878h23.893a7.56 7.56 0 007.56-7.56 7.56 7.56 0 000-.05 7.56 7.56 0 00-7.56-7.509H7.559a1.512 1.512 0 01-1.512-1.511 1.512 1.512 0 01.19-.732 6.047 6.047 0 01-.007-.003 6.047 6.047 0 01-.099-.054 6.047 6.047 0 01-.099-.056 6.047 6.047 0 01-.098-.058 6.047 6.047 0 01-.096-.06 6.047 6.047 0 01-.096-.062 6.047 6.047 0 01-.094-.063 6.047 6.047 0 01-.094-.065 6.047 6.047 0 01-.092-.067 6.047 6.047 0 01-.09-.07 6.047 6.047 0 01-.09-.07 6.047 6.047 0 01-.087-.071 6.047 6.047 0 01-.087-.074 6.047 6.047 0 01-.085-.075 6.047 6.047 0 01-.084-.077 6.047 6.047 0 01-.082-.079 6.047 6.047 0 01-.081-.08 6.047 6.047 0 01-.079-.081 6.047 6.047 0 01-.077-.083 6.047 6.047 0 01-.077-.084 6.047 6.047 0 01-.075-.086 6.047 6.047 0 01-.073-.087 6.047 6.047 0 01-.07-.09 6.047 6.047 0 01-.07-.089 6.047 6.047 0 01-.068-.091 6.047 6.047 0 01-.067-.092 6.047 6.047 0 01-.064-.094 6.047 6.047 0 01-.063-.095 6.047 6.047 0 01-.06-.096 6.047 6.047 0 01-.06-.097 6.047 6.047 0 01-.057-.098 6.047 6.047 0 01-.055-.1 6.047 6.047 0 01-.053-.1 6.047 6.047 0 01-.052-.102 6.047 6.047 0 01-.05-.102 6.047 6.047 0 01-.048-.103 6.047 6.047 0 01-.046-.104 6.047 6.047 0 01-.044-.105 6.047 6.047 0 01-.042-.106 6.047 6.047 0 01-.04-.106 6.047 6.047 0 01-.037-.108 6.047 6.047 0 01-.036-.108 6.047 6.047 0 01-.034-.108 6.047 6.047 0 01-.032-.11 6.047 6.047 0 01-.03-.109 6.047 6.047 0 01-.027-.11 6.047 6.047 0 01-.025-.111 6.047 6.047 0 01-.024-.111A6.047 6.047 0 013.12 7.1 6.047 6.047 0 013.1 6.99a6.047 6.047 0 01-.017-.112 6.047 6.047 0 01-.016-.113 6.047 6.047 0 01-.013-.113 6.047 6.047 0 01-.01-.113 6.047 6.047 0 01-.008-.114 6.047 6.047 0 01-.007-.113 6.047 6.047 0 01-.005-.114 6.047 6.047 0 01-.002-.113 6.047 6.047 0 010-.035z" fill="#fff" fill-opacity=".154"/><path d="M6.895 13.453a6.047 6.047 0 01-.042.077 6.047 6.047 0 01-.056.098 6.047 6.047 0 01-.059.098 6.047 6.047 0 01-.06.097 6.047 6.047 0 01-.061.095 6.047 6.047 0 01-.064.095 6.047 6.047 0 01-.065.093 6.047 6.047 0 01-.067.091 6.047 6.047 0 01-.068.091 6.047 6.047 0 01-.07.09 6.047 6.047 0 01-.073.088 6.047 6.047 0 01-.074.086 6.047 6.047 0 01-.075.085 6.047 6.047 0 01-.077.084 6.047 6.047 0 01-.078.082 6.047 6.047 0 01-.08.081 6.047 6.047 0 01-.082.08 6.047 6.047 0 01-.083.077 6.047 6.047 0 01-.084.076 6.047 6.047 0 01-.086.075 6.047 6.047 0 01-.087.073 6.047 6.047 0 01-.09.071 6.047 6.047 0 01-.089.07 6.047 6.047 0 01-.09.068 6.047 6.047 0 01-.094.066 6.047 6.047 0 01-.093.064 6.047 6.047 0 01-.095.063 6.047 6.047 0 01-.096.06 6.047 6.047 0 01-.098.06 6.047 6.047 0 01-.098.057 6.047 6.047 0 01-.099.055 6.047 6.047 0 01-.1.054 6.047 6.047 0 01-.102.051 6.047 6.047 0 01-.102.05 6.047 6.047 0 01-.103.048 6.047 6.047 0 01-.104.045 6.047 6.047 0 01-.105.045 6.047 6.047 0 01-.106.041 6.047 6.047 0 01-.107.04 6.047 6.047 0 01-.106.038 6.047 6.047 0 01-.109.036 6.047 6.047 0 01-.108.034 6.047 6.047 0 01-.11.03 6.047 6.047 0 01-.11.031 6.047 6.047 0 01-.11.028 6.047 6.047 0 01-.11.026 6.047 6.047 0 01-.112.023 6.047 6.047 0 01-.111.02 6.047 6.047 0 01-.112.02 6.047 6.047 0 01-.113.017 6.047 6.047 0 01-.113.015 6.047 6.047 0 01-.112.014 6.047 6.047 0 01-.114.011 6.047 6.047 0 01-.113.008 6.047 6.047 0 01-.114.007 6.047 6.047 0 01-.113.005 6.047 6.047 0 01-.114.003 6.047 6.047 0 01-.061 0 6.047 6.047 0 01-.052 0 7.56 7.56 0 006.043 3.017h27.213a1.512 1.512 0 011.512 1.512 1.512 1.512 0 01-1.512 1.512H10.88a7.56 7.56 0 00-6.901 4.474L1.26 33.26h6.62l1.627-3.655a1.512 1.512 0 011.373-.878h23.892a7.56 7.56 0 007.56-7.559 7.56 7.56 0 000-.051 7.56 7.56 0 00-7.56-7.509H7.56a1.512 1.512 0 01-.664-.153z" fill="#fff" fill-opacity=".248"/><path d="M11.344 13.606a6.047 6.047 0 01.043.079 6.047 6.047 0 01.053.1 6.047 6.047 0 01.052.102 6.047 6.047 0 01.05.102 6.047 6.047 0 01.047.103 6.047 6.047 0 01.046.104 6.047 6.047 0 01.044.105 6.047 6.047 0 01.042.106 6.047 6.047 0 01.04.106 6.047 6.047 0 01.037.108 6.047 6.047 0 01.036.108 6.047 6.047 0 01.034.108 6.047 6.047 0 01.032.11 6.047 6.047 0 01.03.11 6.047 6.047 0 01.027.11 6.047 6.047 0 01.026.11 6.047 6.047 0 01.023.112 6.047 6.047 0 01.022.111 6.047 6.047 0 01.02.113 6.047 6.047 0 01.016.112 6.047 6.047 0 01.015.113 6.047 6.047 0 01.013.112 6.047 6.047 0 01.01.114 6.047 6.047 0 01.01.113 6.047 6.047 0 01.006.114 6.047 6.047 0 01.005.114 6.047 6.047 0 01.002.113 6.047 6.047 0 010 .061 6.047 6.047 0 010 .114 6.047 6.047 0 01-.004.114 6.047 6.047 0 01-.006.113 6.047 6.047 0 01-.008.113 6.047 6.047 0 01-.009.114 6.047 6.047 0 01-.012.113 6.047 6.047 0 01-.013.113 6.047 6.047 0 01-.016.113 6.047 6.047 0 01-.019.112 6.047 6.047 0 01-.02.112 6.047 6.047 0 01-.022.111 6.047 6.047 0 01-.024.111 6.047 6.047 0 01-.027.11 6.047 6.047 0 01-.028.111 6.047 6.047 0 01-.03.11 6.047 6.047 0 01-.034.108 6.047 6.047 0 01-.034.109 6.047 6.047 0 01-.037.107 6.047 6.047 0 01-.039.107 6.047 6.047 0 01-.04.106 6.047 6.047 0 01-.044.105 6.047 6.047 0 01-.044.105 6.047 6.047 0 01-.046.104 6.047 6.047 0 01-.05.103 6.047 6.047 0 01-.05.101 6.047 6.047 0 01-.052.101 6.047 6.047 0 01-.055.1 6.047 6.047 0 01-.056.1 6.047 6.047 0 01-.021.035h23.488a1.512 1.512 0 011.512 1.511 1.512 1.512 0 01-1.512 1.512H10.88a7.56 7.56 0 00-6.9 4.474l-2.72 6.11h6.62l1.628-3.659a1.512 1.512 0 011.372-.877h23.893a7.56 7.56 0 007.56-7.56 7.56 7.56 0 000-.05 7.56 7.56 0 00-7.56-7.509z" fill="#fff" fill-opacity=".397"/><path d="M18.859 13.606a6.047 6.047 0 01.003.005 6.047 6.047 0 01.055.1 6.047 6.047 0 01.053.1 6.047 6.047 0 01.052.101 6.047 6.047 0 01.05.103 6.047 6.047 0 01.047.103 6.047 6.047 0 01.046.104 6.047 6.047 0 01.044.105 6.047 6.047 0 01.042.106 6.047 6.047 0 01.04.106 6.047 6.047 0 01.037.108 6.047 6.047 0 01.036.108 6.047 6.047 0 01.034.108 6.047 6.047 0 01.032.11 6.047 6.047 0 01.03.109 6.047 6.047 0 01.027.11 6.047 6.047 0 01.026.111 6.047 6.047 0 01.023.111 6.047 6.047 0 01.022.112 6.047 6.047 0 01.019.112 6.047 6.047 0 01.017.112 6.047 6.047 0 01.015.113 6.047 6.047 0 01.013.113 6.047 6.047 0 01.01.113 6.047 6.047 0 01.008.114 6.047 6.047 0 01.007.113 6.047 6.047 0 01.005.114 6.047 6.047 0 01.002.113 6.047 6.047 0 010 .061 6.047 6.047 0 010 .115 6.047 6.047 0 01-.003.113 6.047 6.047 0 01-.006.113 6.047 6.047 0 01-.008.114 6.047 6.047 0 01-.01.113 6.047 6.047 0 01-.011.113 6.047 6.047 0 01-.014.113 6.047 6.047 0 01-.016.113 6.047 6.047 0 01-.018.112 6.047 6.047 0 01-.02.112 6.047 6.047 0 01-.022.112 6.047 6.047 0 01-.025.11 6.047 6.047 0 01-.026.11 6.047 6.047 0 01-.029.111 6.047 6.047 0 01-.03.11 6.047 6.047 0 01-.033.108 6.047 6.047 0 01-.035.11 6.047 6.047 0 01-.037.106 6.047 6.047 0 01-.039.107 6.047 6.047 0 01-.04.106 6.047 6.047 0 01-.043.106 6.047 6.047 0 01-.045.104 6.047 6.047 0 01-.046.104 6.047 6.047 0 01-.049.103 6.047 6.047 0 01-.05.101 6.047 6.047 0 01-.053.101 6.047 6.047 0 01-.054.1 6.047 6.047 0 01-.057.1 6.047 6.047 0 01-.006.01h15.944a1.512 1.512 0 011.512 1.512 1.512 1.512 0 01-1.512 1.511H10.88a7.56 7.56 0 00-6.9 4.474l-2.72 6.11h6.619l1.629-3.659a1.512 1.512 0 011.372-.877h23.893a7.56 7.56 0 007.56-7.56 7.56 7.56 0 000-.05 7.56 7.56 0 00-7.56-7.509z" fill="#fff" fill-opacity=".504"/><path d="M26.417 13.606a6.047 6.047 0 01.003.005 6.047 6.047 0 01.056.1 6.047 6.047 0 01.054.1 6.047 6.047 0 01.051.101 6.047 6.047 0 01.05.103 6.047 6.047 0 01.048.103 6.047 6.047 0 01.046.104 6.047 6.047 0 01.043.105 6.047 6.047 0 01.042.106 6.047 6.047 0 01.04.106 6.047 6.047 0 01.038.108 6.047 6.047 0 01.036.108 6.047 6.047 0 01.033.108 6.047 6.047 0 01.032.11 6.047 6.047 0 01.03.109 6.047 6.047 0 01.028.11 6.047 6.047 0 01.025.111 6.047 6.047 0 01.024.111 6.047 6.047 0 01.02.112 6.047 6.047 0 01.02.112 6.047 6.047 0 01.017.112 6.047 6.047 0 01.015.113 6.047 6.047 0 01.013.113 6.047 6.047 0 01.011.113 6.047 6.047 0 01.008.114 6.047 6.047 0 01.007.113 6.047 6.047 0 01.005.114 6.047 6.047 0 01.002.113 6.047 6.047 0 010 .061 6.047 6.047 0 010 .115 6.047 6.047 0 01-.003.113 6.047 6.047 0 01-.006.113 6.047 6.047 0 01-.008.114 6.047 6.047 0 01-.01.113 6.047 6.047 0 01-.01.113 6.047 6.047 0 01-.015.113 6.047 6.047 0 01-.016.113 6.047 6.047 0 01-.018.112 6.047 6.047 0 01-.02.112 6.047 6.047 0 01-.023.112 6.047 6.047 0 01-.024.11 6.047 6.047 0 01-.026.11 6.047 6.047 0 01-.029.111 6.047 6.047 0 01-.03.11 6.047 6.047 0 01-.033.108 6.047 6.047 0 01-.035.11 6.047 6.047 0 01-.036.106 6.047 6.047 0 01-.04.107 6.047 6.047 0 01-.04.106 6.047 6.047 0 01-.043.106 6.047 6.047 0 01-.045.104 6.047 6.047 0 01-.046.104 6.047 6.047 0 01-.049.103 6.047 6.047 0 01-.05.101 6.047 6.047 0 01-.053.101 6.047 6.047 0 01-.054.1 6.047 6.047 0 01-.056.1 6.047 6.047 0 01-.006.01h8.384a1.512 1.512 0 011.512 1.512 1.512 1.512 0 01-1.512 1.511H10.88a7.56 7.56 0 00-6.9 4.474l-2.72 6.11H7.88l1.629-3.659a1.512 1.512 0 011.372-.877h23.893a7.56 7.56 0 007.56-7.56 7.56 7.56 0 000-.05 7.56 7.56 0 00-7.56-7.509z" fill="#fff" fill-opacity=".751"/><text style="line-height:1.25;-inkscape-font-specification:'Bitstream Vera Sans';white-space:pre;shape-inside:url(#a)" transform="matrix(1.59398 0 0 1.59398 261.737 -525.632)" font-weight="400" font-size="4.233" font-family="Bitstream Vera Sans" letter-spacing="0" word-spacing="0" fill="#fff"><tspan x="-162.719" y="354.511"><tspan style="-inkscape-font-specification:Hack" font-family="Hack">shapeflow</tspan></tspan></text><path fill="none" d="M0 33.264h42.333v9.07H0z"/><g style="mix-blend-mode:normal"><path d="M222.942-3.39h16.453-16.398a6.615 6.615 0 00-.055 0z" fill="#666" fill-opacity=".106"/></g></svg>