<svg xmlns="http://www.w3.org/2000/svg" width="160" height="125.71" viewBox="0 0 42.33 33.26">
  <path d="M34.14 0l-1.62 3.66a1.51 1.51 0 01-1.38.88H7.56A7.56 7.56 0 000 12.09a7.56 7.56 0 000 .05 7.56 7.56 0 007.56 7.51h27.21a1.51 1.51 0 011.51 1.52 1.51 1.51 0 01-1.5 1.5h-23.9a7.56 7.56 0 00-6.9 4.48l-2.72 6.11h6.62L9.5 29.6a1.51 1.51 0 011.37-.88h23.9a7.56 7.56 0 007.55-7.55 7.56 7.56 0 000-.06 7.56 7.56 0 00-7.56-7.5H7.56a1.51 1.51 0 01-1.51-1.52 1.51 1.51 0 011.5-1.5h23.6a7.56 7.56 0 006.9-4.47 7.56 7.56 0 000-.01l2.71-6.1z" fill="#006c9e" fill-opacity=".14"/>
  <path d="M31.9 4.33a1.51 1.51 0 01-.76.2H7.56A7.56 7.56 0 000 12.1a7.56 7.56 0 000 .05 7.56 7.56 0 007.56 7.51h27.21a1.51 1.51 0 011.51 1.52 1.51 1.51 0 01-1.5 1.5h-23.9a7.56 7.56 0 00-6.9 4.48l-2.72 6.11h6.62L9.5 29.6a1.51 1.51 0 011.37-.88h23.9a7.56 7.56 0 007.55-7.55 7.56 7.56 0 000-.06 7.56 7.56 0 00-7.56-7.5H7.56a1.51 1.51 0 01-1.51-1.52 1.51 1.51 0 011.5-1.5h23.6a7.56 7.56 0 004.89-1.8 6.05 6.05 0 01-4.14-4.46z" fill="#006c9e" fill-opacity=".14"/>
  <path d="M7.56 4.54A7.56 7.56 0 000 12.1a7.56 7.56 0 000 .05 7.56 7.56 0 007.56 7.5h27.21a1.51 1.51 0 011.52 1.52 1.51 1.51 0 01-1.52 1.5H10.88a7.56 7.56 0 00-6.9 4.48l-2.72 6.11h6.62l1.63-3.66a1.51 1.51 0 011.37-.88h23.9a7.56 7.56 0 007.55-7.55 7.56 7.56 0 000-.06 7.56 7.56 0 00-7.56-7.5H7.56a1.51 1.51 0 01-1.51-1.52 1.51 1.51 0 011.51-1.5h18.97a6.05 6.05 0 01-.04-.06 6.05 6.05 0 01-.05-.1 6.05 6.05 0 01-.05-.1 6.05 6.05 0 01-.06-.1 6.05 6.05 0 01-.05-.1 6.05 6.05 0 01-.04-.1 6.05 6.05 0 01-.05-.11 6.05 6.05 0 01-.04-.1 6.05 6.05 0 01-.05-.11 6.05 6.05 0 01-.03-.11 6.05 6.05 0 01-.04-.1 6.05 6.05 0 01-.04-.12 6.05 6.05 0 01-.03-.1 6.05 6.05 0 01-.03-.11 6.05 6.05 0 01-.03-.11 6.05 6.05 0 01-.03-.11 6.05 6.05 0 01-.03-.11 6.05 6.05 0 01-.02-.12 6.05 6.05 0 01-.02-.1 6.05 6.05 0 01-.02-.12 6.05 6.05 0 01-.02-.11 6.05 6.05 0 01-.01-.11 6.05 6.05 0 01-.02-.12 6.05 6.05 0 010-.11 6.05 6.05 0 01-.01-.11 6.05 6.05 0 01-.01-.12 6.05 6.05 0 010-.11 6.05 6.05 0 010-.11 6.05 6.05 0 010-.07 6.05 6.05 0 010-.11 6.05 6.05 0 010-.11 6.05 6.05 0 010-.12 6.05 6.05 0 01.01-.11 6.05 6.05 0 01.01-.11 6.05 6.05 0 01.01-.12 6.05 6.05 0 01.02-.11 6.05 6.05 0 01.01-.11 6.05 6.05 0 01.02-.12 6.05 6.05 0 01.02-.1 6.05 6.05 0 01.02-.12 6.05 6.05 0 01.03-.1 6.05 6.05 0 01.02-.12 6.05 6.05 0 01.03-.11 6.05 6.05 0 01.03-.1 6.05 6.05 0 01.04-.12 6.05 6.05 0 01.03-.1 6.05 6.05 0 01.04-.11 6.05 6.05 0 01.04-.11 6.05 6.05 0 01.04-.1 6.05 6.05 0 01.04-.11 6.05 6.05 0 01.04-.1 6.05 6.05 0 01.05-.11 6.05 6.05 0 01.05-.1 6.05 6.05 0 01.05-.1 6.05 6.05 0 01.05-.1 6.05 6.05 0 01.06-.1 6.05 6.05 0 01.03-.06z" fill="#006c9e" fill-opacity=".14"/>
  <path d="M7.56 4.54A7.56 7.56 0 000 12.1a7.56 7.56 0 000 .05 7.56 7.56 0 007.56 7.5h27.21a1.51 1.51 0 011.51 1.52 1.51 1.51 0 01-1.5 1.5h-23.9a7.56 7.56 0 00-6.9 4.48l-2.72 6.11h6.62L9.5 29.6a1.51 1.51 0 011.37-.88h23.9a7.56 7.56 0 007.55-7.55 7.56 7.56 0 000-.06 7.56 7.56 0 00-7.56-7.5H7.56a1.51 1.51 0 01-1.51-1.52 1.51 1.51 0 011.5-1.5h11.42a6.05 6.05 0 01-.03-.06 6.05 6.05 0 01-.06-.1 6.05 6.05 0 01-.05-.1 6.05 6.05 0 01-.06-.1 6.05 6.05 0 01-.05-.1 6.05 6.05 0 01-.04-.1 6.05 6.05 0 01-.05-.11 6.05 6.05 0 01-.04-.1 6.05 6.05 0 01-.04-.11 6.05 6.05 0 01-.04-.11 6.05 6.05 0 01-.04-.1 6.05 6.05 0 01-.04-.12 6.05 6.05 0 01-.03-.1 6.05 6.05 0 01-.03-.11 6.05 6.05 0 01-.03-.11 6.05 6.05 0 01-.03-.11 6.05 6.05 0 01-.03-.11 6.05 6.05 0 01-.02-.12 6.05 6.05 0 01-.02-.1 6.05 6.05 0 01-.02-.12 6.05 6.05 0 01-.02-.11 6.05 6.05 0 01-.01-.11 6.05 6.05 0 01-.01-.12 6.05 6.05 0 01-.02-.11 6.05 6.05 0 010-.11 6.05 6.05 0 01-.01-.12 6.05 6.05 0 010-.11 6.05 6.05 0 010-.11 6.05 6.05 0 010-.07 6.05 6.05 0 010-.11 6.05 6.05 0 010-.11 6.05 6.05 0 010-.12 6.05 6.05 0 01.01-.11 6.05 6.05 0 010-.11 6.05 6.05 0 01.02-.12 6.05 6.05 0 01.02-.11 6.05 6.05 0 01.01-.11 6.05 6.05 0 01.02-.12 6.05 6.05 0 01.02-.1 6.05 6.05 0 01.02-.12 6.05 6.05 0 01.03-.1 6.05 6.05 0 01.02-.12 6.05 6.05 0 01.03-.11 6.05 6.05 0 01.03-.1 6.05 6.05 0 01.03-.12 6.05 6.05 0 01.04-.1 6.05 6.05 0 01.04-.11 6.05 6.05 0 01.03-.11 6.05 6.05 0 01.04-.1 6.05 6.05 0 01.05-.11 6.05 6.05 0 01.04-.1A6.05 6.05 0 0118.7 5a6.05 6.05 0 01.05-.1 6.05 6.05 0 01.05-.1 6.05 6.05 0 01.05-.1 6.05 6.05 0 01.05-.1 6.05 6.05 0 01.04-.06z" fill="#006c9e" fill-opacity=".14"/>
  <path d="M7.56 4.54A7.56 7.56 0 000 12.1a7.56 7.56 0 000 .05 7.56 7.56 0 007.56 7.5h27.21a1.51 1.51 0 011.51 1.52 1.51 1.51 0 01-1.5 1.5h-23.9a7.56 7.56 0 00-6.9 4.48l-2.72 6.11h6.62l1.63-3.66a1.51 1.51 0 011.37-.88h23.9a7.56 7.56 0 007.55-7.55 7.56 7.56 0 000-.06 7.56 7.56 0 00-7.56-7.5H7.56a1.51 1.51 0 01-1.51-1.52 1.51 1.51 0 011.51-1.5h3.85a6.05 6.05 0 01-.03-.06 6.05 6.05 0 01-.06-.1 6.05 6.05 0 01-.05-.1 6.05 6.05 0 01-.05-.1 6.05 6.05 0 01-.05-.1 6.05 6.05 0 01-.05-.1 6.05 6.05 0 01-.05-.11 6.05 6.05 0 01-.04-.1 6.05 6.05 0 01-.04-.11 6.05 6.05 0 01-.04-.11 6.05 6.05 0 01-.04-.1 6.05 6.05 0 01-.04-.12 6.05 6.05 0 01-.03-.1 6.05 6.05 0 01-.03-.11 6.05 6.05 0 01-.03-.11 6.05 6.05 0 01-.03-.11 6.05 6.05 0 01-.03-.11 6.05 6.05 0 01-.02-.12 6.05 6.05 0 01-.02-.1 6.05 6.05 0 01-.02-.12 6.05 6.05 0 01-.02-.11 6.05 6.05 0 01-.01-.11 6.05 6.05 0 01-.01-.12 6.05 6.05 0 01-.01-.11 6.05 6.05 0 01-.01-.11 6.05 6.05 0 010-.12 6.05 6.05 0 01-.01-.11 6.05 6.05 0 010-.11 6.05 6.05 0 010-.07 6.05 6.05 0 010-.11 6.05 6.05 0 010-.11 6.05 6.05 0 010-.12 6.05 6.05 0 01.01-.11 6.05 6.05 0 01.01-.11 6.05 6.05 0 01.01-.12 6.05 6.05 0 01.02-.11 6.05 6.05 0 01.01-.11 6.05 6.05 0 01.02-.12 6.05 6.05 0 01.02-.1 6.05 6.05 0 01.02-.12 6.05 6.05 0 01.03-.1 6.05 6.05 0 01.02-.12 6.05 6.05 0 01.03-.11 6.05 6.05 0 01.03-.1 6.05 6.05 0 01.04-.12 6.05 6.05 0 01.03-.1 6.05 6.05 0 01.04-.11 6.05 6.05 0 01.04-.11 6.05 6.05 0 01.04-.1 6.05 6.05 0 01.04-.11 6.05 6.05 0 01.04-.1 6.05 6.05 0 01.05-.11 6.05 6.05 0 01.05-.1 6.05 6.05 0 01.05-.1 6.05 6.05 0 01.05-.1 6.05 6.05 0 01.06-.1 6.05 6.05 0 01.03-.06z" fill="#006c9e" fill-opacity=".14"/>
  <path d="M3.02 6.05zm0 0A7.56 7.56 0 000 12.09a7.56 7.56 0 000 .05 7.56 7.56 0 007.56 7.51h27.21a1.51 1.51 0 011.51 1.52 1.51 1.51 0 01-1.5 1.5h-23.9a7.56 7.56 0 00-6.9 4.48l-2.72 6.11h6.62L9.5 29.6a1.51 1.51 0 011.37-.88h23.9a7.56 7.56 0 007.55-7.55 7.56 7.56 0 000-.06 7.56 7.56 0 00-7.56-7.5H7.56a1.51 1.51 0 01-1.51-1.52 1.51 1.51 0 01.19-.73 6.05 6.05 0 01-.01 0 6.05 6.05 0 01-.1-.05 6.05 6.05 0 01-.1-.06 6.05 6.05 0 01-.1-.06 6.05 6.05 0 01-.1-.06 6.05 6.05 0 01-.09-.06 6.05 6.05 0 01-.1-.06 6.05 6.05 0 01-.09-.07 6.05 6.05 0 01-.09-.07 6.05 6.05 0 01-.09-.06 6.05 6.05 0 01-.09-.08 6.05 6.05 0 01-.09-.07 6.05 6.05 0 01-.08-.07 6.05 6.05 0 01-.09-.08 6.05 6.05 0 01-.08-.07 6.05 6.05 0 01-.08-.08 6.05 6.05 0 01-.08-.08 6.05 6.05 0 01-.08-.08 6.05 6.05 0 01-.08-.09 6.05 6.05 0 01-.08-.08 6.05 6.05 0 01-.07-.09 6.05 6.05 0 01-.07-.08 6.05 6.05 0 01-.08-.1 6.05 6.05 0 01-.07-.08 6.05 6.05 0 01-.06-.1 6.05 6.05 0 01-.07-.09 6.05 6.05 0 01-.06-.09 6.05 6.05 0 01-.07-.1 6.05 6.05 0 01-.06-.09 6.05 6.05 0 01-.06-.1 6.05 6.05 0 01-.05-.1 6.05 6.05 0 01-.06-.1 6.05 6.05 0 01-.05-.1 6.05 6.05 0 01-.05-.1 6.05 6.05 0 01-.05-.1 6.05 6.05 0 01-.05-.1 6.05 6.05 0 01-.05-.1 6.05 6.05 0 01-.04-.11 6.05 6.05 0 01-.04-.1 6.05 6.05 0 01-.04-.11 6.05 6.05 0 01-.04-.11 6.05 6.05 0 01-.04-.1 6.05 6.05 0 01-.03-.12 6.05 6.05 0 01-.03-.1 6.05 6.05 0 01-.03-.12 6.05 6.05 0 01-.03-.1 6.05 6.05 0 01-.02-.12 6.05 6.05 0 01-.03-.1 6.05 6.05 0 01-.02-.12 6.05 6.05 0 01-.02-.11 6.05 6.05 0 01-.02-.11 6.05 6.05 0 01-.01-.12 6.05 6.05 0 01-.01-.11 6.05 6.05 0 01-.01-.11 6.05 6.05 0 01-.01-.12 6.05 6.05 0 010-.11 6.05 6.05 0 01-.01-.11 6.05 6.05 0 010-.12 6.05 6.05 0 010-.03z" fill="#006c9e" fill-opacity=".14"/>
  <path d="M6.9 13.45a6.05 6.05 0 01-.05.08 6.05 6.05 0 01-.05.1 6.05 6.05 0 01-.06.1 6.05 6.05 0 01-.06.1 6.05 6.05 0 01-.06.09 6.05 6.05 0 01-.07.1 6.05 6.05 0 01-.06.09 6.05 6.05 0 01-.07.09 6.05 6.05 0 01-.07.09 6.05 6.05 0 01-.07.09 6.05 6.05 0 01-.07.08 6.05 6.05 0 01-.07.1 6.05 6.05 0 01-.08.08 6.05 6.05 0 01-.08.08 6.05 6.05 0 01-.07.08 6.05 6.05 0 01-.08.08 6.05 6.05 0 01-.09.08 6.05 6.05 0 01-.08.08 6.05 6.05 0 01-.08.08 6.05 6.05 0 01-.09.07 6.05 6.05 0 01-.09.07 6.05 6.05 0 01-.08.08 6.05 6.05 0 01-.1.07 6.05 6.05 0 01-.09.06 6.05 6.05 0 01-.09.07 6.05 6.05 0 01-.1.06 6.05 6.05 0 01-.09.07 6.05 6.05 0 01-.1.06 6.05 6.05 0 01-.09.06 6.05 6.05 0 01-.1.05 6.05 6.05 0 01-.1.06 6.05 6.05 0 01-.1.05 6.05 6.05 0 01-.1.05 6.05 6.05 0 01-.1.05 6.05 6.05 0 01-.1.05 6.05 6.05 0 01-.1.05 6.05 6.05 0 01-.11.04 6.05 6.05 0 01-.11.04 6.05 6.05 0 01-.1.04 6.05 6.05 0 01-.11.04 6.05 6.05 0 01-.11.04 6.05 6.05 0 01-.11.03 6.05 6.05 0 01-.1.03 6.05 6.05 0 01-.12.03 6.05 6.05 0 01-.1.03 6.05 6.05 0 01-.12.03 6.05 6.05 0 01-.11.02 6.05 6.05 0 01-.11.02 6.05 6.05 0 01-.11.02 6.05 6.05 0 01-.12.02 6.05 6.05 0 01-.11.01 6.05 6.05 0 01-.11.01 6.05 6.05 0 01-.12.02 6.05 6.05 0 01-.11 0 6.05 6.05 0 01-.11.01 6.05 6.05 0 01-.12 0 6.05 6.05 0 01-.11 0 6.05 6.05 0 01-.06 0 6.05 6.05 0 01-.05 0 7.56 7.56 0 006.04 3.02h27.21a1.51 1.51 0 011.51 1.52 1.51 1.51 0 01-1.5 1.5h-23.9a7.56 7.56 0 00-6.9 4.48l-2.72 6.1h6.62l1.63-3.65a1.51 1.51 0 011.37-.87h23.9a7.56 7.56 0 007.55-7.56 7.56 7.56 0 000-.06 7.56 7.56 0 00-7.56-7.5H7.56a1.51 1.51 0 01-.67-.16z" fill="#006c9e" fill-opacity=".14"/>
  <path d="M11.34 13.6a6.05 6.05 0 01.05.08 6.05 6.05 0 01.05.1 6.05 6.05 0 01.05.1 6.05 6.05 0 01.05.1 6.05 6.05 0 01.05.11 6.05 6.05 0 01.05.1 6.05 6.05 0 01.04.11 6.05 6.05 0 01.04.1 6.05 6.05 0 01.04.11 6.05 6.05 0 01.04.11 6.05 6.05 0 01.03.1 6.05 6.05 0 01.04.12 6.05 6.05 0 01.03.1 6.05 6.05 0 01.03.12 6.05 6.05 0 01.03.1 6.05 6.05 0 01.02.12 6.05 6.05 0 01.03.1 6.05 6.05 0 01.02.12 6.05 6.05 0 01.02.11 6.05 6.05 0 01.01.11 6.05 6.05 0 01.02.12 6.05 6.05 0 01.01.11 6.05 6.05 0 01.01.11 6.05 6.05 0 01.01.12 6.05 6.05 0 010 .11 6.05 6.05 0 01.01.11 6.05 6.05 0 010 .12 6.05 6.05 0 010 .06 6.05 6.05 0 010 .11 6.05 6.05 0 010 .12 6.05 6.05 0 010 .11 6.05 6.05 0 01-.01.11 6.05 6.05 0 01-.01.12 6.05 6.05 0 01-.01.11 6.05 6.05 0 01-.02.11 6.05 6.05 0 01-.01.12 6.05 6.05 0 01-.02.1 6.05 6.05 0 01-.02.12 6.05 6.05 0 01-.02.11 6.05 6.05 0 01-.03.11 6.05 6.05 0 01-.02.11 6.05 6.05 0 01-.03.11 6.05 6.05 0 01-.03.11 6.05 6.05 0 01-.04.11 6.05 6.05 0 01-.03.1 6.05 6.05 0 01-.04.12 6.05 6.05 0 01-.04.1 6.05 6.05 0 01-.04.11 6.05 6.05 0 01-.04.1 6.05 6.05 0 01-.04.1 6.05 6.05 0 01-.05.11 6.05 6.05 0 01-.05.1 6.05 6.05 0 01-.05.1 6.05 6.05 0 01-.05.1 6.05 6.05 0 01-.06.1 6.05 6.05 0 01-.05.1 6.05 6.05 0 01-.02.04h23.48a1.51 1.51 0 011.52 1.52 1.51 1.51 0 01-1.52 1.5H10.88a7.56 7.56 0 00-6.9 4.48l-2.72 6.11h6.62l1.63-3.66a1.51 1.51 0 011.37-.88h23.9a7.56 7.56 0 007.55-7.55 7.56 7.56 0 000-.06 7.56 7.56 0 00-7.56-7.5z" fill="#006c9e" fill-opacity=".14"/>
  <path d="M18.86 13.6a6.05 6.05 0 010 .01 6.05 6.05 0 01.06.1 6.05 6.05 0 01.05.1 6.05 6.05 0 01.05.1 6.05 6.05 0 01.05.1 6.05 6.05 0 01.05.1 6.05 6.05 0 01.05.11 6.05 6.05 0 01.04.1 6.05 6.05 0 01.04.11 6.05 6.05 0 01.04.1 6.05 6.05 0 01.04.12 6.05 6.05 0 01.03.1 6.05 6.05 0 01.04.11 6.05 6.05 0 01.03.11 6.05 6.05 0 01.03.11 6.05 6.05 0 01.03.11 6.05 6.05 0 01.02.11 6.05 6.05 0 01.03.11 6.05 6.05 0 01.02.12 6.05 6.05 0 01.02.1 6.05 6.05 0 01.01.12 6.05 6.05 0 01.02.11 6.05 6.05 0 01.01.12 6.05 6.05 0 01.01.1 6.05 6.05 0 010 .12 6.05 6.05 0 01.02.12 6.05 6.05 0 010 .11 6.05 6.05 0 010 .11 6.05 6.05 0 010 .06 6.05 6.05 0 010 .12 6.05 6.05 0 010 .11 6.05 6.05 0 010 .11 6.05 6.05 0 01-.01.12 6.05 6.05 0 01-.01.11 6.05 6.05 0 01-.01.11 6.05 6.05 0 01-.02.12 6.05 6.05 0 01-.01.11 6.05 6.05 0 01-.02.11 6.05 6.05 0 01-.02.11 6.05 6.05 0 01-.02.12 6.05 6.05 0 01-.03.1 6.05 6.05 0 01-.02.12 6.05 6.05 0 01-.03.1 6.05 6.05 0 01-.03.12 6.05 6.05 0 01-.04.1 6.05 6.05 0 01-.03.12 6.05 6.05 0 01-.04.1 6.05 6.05 0 01-.04.1 6.05 6.05 0 01-.04.12 6.05 6.05 0 01-.04.1 6.05 6.05 0 01-.05.1 6.05 6.05 0 01-.04.1 6.05 6.05 0 01-.05.11 6.05 6.05 0 01-.05.1 6.05 6.05 0 01-.05.1 6.05 6.05 0 01-.06.1 6.05 6.05 0 01-.05.1 6.05 6.05 0 01-.01.01h15.94a1.51 1.51 0 011.51 1.52 1.51 1.51 0 01-1.5 1.5h-23.9a7.56 7.56 0 00-6.9 4.48l-2.72 6.11h6.62L9.5 29.6a1.51 1.51 0 011.37-.88h23.9a7.56 7.56 0 007.55-7.55 7.56 7.56 0 000-.06 7.56 7.56 0 00-7.56-7.5z" fill="#006c9e" fill-opacity=".14"/>
  <path d="M26.42 13.6a6.05 6.05 0 010 .01 6.05 6.05 0 01.06.1 6.05 6.05 0 01.05.1 6.05 6.05 0 01.05.1 6.05 6.05 0 01.05.1 6.05 6.05 0 01.05.1 6.05 6.05 0 01.04.11 6.05 6.05 0 01.05.1 6.05 6.05 0 01.04.11 6.05 6.05 0 01.04.1 6.05 6.05 0 01.04.12 6.05 6.05 0 01.03.1 6.05 6.05 0 01.04.11 6.05 6.05 0 01.03.11 6.05 6.05 0 01.03.11 6.05 6.05 0 01.03.11 6.05 6.05 0 01.02.11 6.05 6.05 0 01.02.11 6.05 6.05 0 01.03.12 6.05 6.05 0 01.02.1 6.05 6.05 0 01.01.12 6.05 6.05 0 01.02.11 6.05 6.05 0 01.01.12 6.05 6.05 0 01.01.1 6.05 6.05 0 010 .12 6.05 6.05 0 01.02.12 6.05 6.05 0 010 .11 6.05 6.05 0 010 .11 6.05 6.05 0 010 .06 6.05 6.05 0 010 .12 6.05 6.05 0 010 .11 6.05 6.05 0 010 .11 6.05 6.05 0 01-.02.12 6.05 6.05 0 010 .11 6.05 6.05 0 01-.02.11 6.05 6.05 0 01-.01.12 6.05 6.05 0 01-.02.11 6.05 6.05 0 01-.01.11 6.05 6.05 0 01-.03.11 6.05 6.05 0 01-.02.12 6.05 6.05 0 01-.02.1 6.05 6.05 0 01-.03.12 6.05 6.05 0 01-.03.1 6.05 6.05 0 01-.03.12 6.05 6.05 0 01-.03.1 6.05 6.05 0 01-.03.12 6.05 6.05 0 01-.04.1 6.05 6.05 0 01-.04.1 6.05 6.05 0 01-.04.12 6.05 6.05 0 01-.04.1 6.05 6.05 0 01-.05.1 6.05 6.05 0 01-.04.1 6.05 6.05 0 01-.05.11 6.05 6.05 0 01-.05.1 6.05 6.05 0 01-.06.1 6.05 6.05 0 01-.05.1 6.05 6.05 0 01-.06.1 6.05 6.05 0 010 .01h8.38a1.51 1.51 0 011.51 1.52 1.51 1.51 0 01-1.5 1.5h-23.9a7.56 7.56 0 00-6.9 4.48l-2.72 6.11h6.62L9.5 29.6a1.51 1.51 0 011.37-.88h23.9a7.56 7.56 0 007.55-7.55 7.56 7.56 0 000-.06 7.56 7.56 0 00-7.56-7.5z" fill="#006c9e" fill-opacity=".14"/>
</svg>
