<svg xmlns="http://www.w3.org/2000/svg" width="160" height="125.71" viewBox="0 0 42.33 33.26"><path d="m34.14 0-1.62 3.66a1.51 1.51 0 0 1-1.38.88H7.56A7.56 7.56 0 0 0 0 12.09a7.56 7.56 0 0 0 0 .05 7.56 7.56 0 0 0 7.56 7.51h27.21a1.51 1.51 0 0 1 1.51 1.52 1.51 1.51 0 0 1-1.5 1.5h-23.9a7.56 7.56 0 0 0-6.9 4.48l-2.72 6.11h6.62L9.5 29.6a1.51 1.51 0 0 1 1.37-.88h23.9a7.56 7.56 0 0 0 7.55-7.55 7.56 7.56 0 0 0 0-.06 7.56 7.56 0 0 0-7.56-7.5H7.56a1.51 1.51 0 0 1-1.51-1.52 1.51 1.51 0 0 1 1.5-1.5h23.6a7.56 7.56 0 0 0 6.9-4.47 7.56 7.56 0 0 0 0-.01l2.71-6.1z" fill="#006c9e" fill-opacity=".14"/><path d="M31.9 4.33a1.51 1.51 0 0 1-.76.2H7.56A7.56 7.56 0 0 0 0 12.1a7.56 7.56 0 0 0 0 .05 7.56 7.56 0 0 0 7.56 7.51h27.21a1.51 1.51 0 0 1 1.51 1.52 1.51 1.51 0 0 1-1.5 1.5h-23.9a7.56 7.56 0 0 0-6.9 4.48l-2.72 6.11h6.62L9.5 29.6a1.51 1.51 0 0 1 1.37-.88h23.9a7.56 7.56 0 0 0 7.55-7.55 7.56 7.56 0 0 0 0-.06 7.56 7.56 0 0 0-7.56-7.5H7.56a1.51 1.51 0 0 1-1.51-1.52 1.51 1.51 0 0 1 1.5-1.5h23.6a7.56 7.56 0 0 0 4.89-1.8 6.05 6.05 0 0 1-4.14-4.46z" fill="#006c9e" fill-opacity=".14"/><path d="M7.56 4.54A7.56 7.56 0 0 0 0 12.1a7.56 7.56 0 0 0 0 .05 7.56 7.56 0 0 0 7.56 7.5h27.21a1.51 1.51 0 0 1 1.52 1.52 1.51 1.51 0 0 1-1.52 1.5H10.88a7.56 7.56 0 0 0-6.9 4.48l-2.72 6.11h6.62l1.63-3.66a1.51 1.51 0 0 1 1.37-.88h23.9a7.56 7.56 0 0 0 7.55-7.55 7.56 7.56 0 0 0 0-.06 7.56 7.56 0 0 0-7.56-7.5H7.56a1.51 1.51 0 0 1-1.51-1.52 1.51 1.51 0 0 1 1.51-1.5h18.97a6.05 6.05 0 0 1-.04-.06 6.05 6.05 0 0 1-.05-.1 6.05 6.05 0 0 1-.05-.1 6.05 6.05 0 0 1-.06-.1 6.05 6.05 0 0 1-.05-.1 6.05 6.05 0 0 1-.04-.1 6.05 6.05 0 0 1-.05-.11 6.05 6.05 0 0 1-.04-.1 6.05 6.05 0 0 1-.05-.11 6.05 6.05 0 0 1-.03-.11 6.05 6.05 0 0 1-.04-.1 6.05 6.05 0 0 1-.04-.12 6.05 6.05 0 0 1-.03-.1 6.05 6.05 0 0 1-.03-.11 6.05 6.05 0 0 1-.03-.11 6.05 6.05 0 0 1-.03-.11 6.05 6.05 0 0 1-.03-.11 6.05 6.05 0 0 1-.02-.12 6.05 6.05 0 0 1-.02-.1 6.05 6.05 0 0 1-.02-.12 6.05 6.05 0 0 1-.02-.11 6.05 6.05 0 0 1-.01-.11 6.05 6.05 0 0 1-.02-.12 6.05 6.05 0 0 1 0-.11 6.05 6.05 0 0 1-.01-.11 6.05 6.05 0 0 1-.01-.12 6.05 6.05 0 0 1 0-.11 6.05 6.05 0 0 1 0-.11 6.05 6.05 0 0 1 0-.07 6.05 6.05 0 0 1 0-.11 6.05 6.05 0 0 1 0-.11 6.05 6.05 0 0 1 0-.12 6.05 6.05 0 0 1 .01-.11 6.05 6.05 0 0 1 .01-.11 6.05 6.05 0 0 1 .01-.12 6.05 6.05 0 0 1 .02-.11 6.05 6.05 0 0 1 .01-.11 6.05 6.05 0 0 1 .02-.12 6.05 6.05 0 0 1 .02-.1 6.05 6.05 0 0 1 .02-.12 6.05 6.05 0 0 1 .03-.1 6.05 6.05 0 0 1 .02-.12 6.05 6.05 0 0 1 .03-.11 6.05 6.05 0 0 1 .03-.1 6.05 6.05 0 0 1 .04-.12 6.05 6.05 0 0 1 .03-.1 6.05 6.05 0 0 1 .04-.11 6.05 6.05 0 0 1 .04-.11 6.05 6.05 0 0 1 .04-.1 6.05 6.05 0 0 1 .04-.11 6.05 6.05 0 0 1 .04-.1 6.05 6.05 0 0 1 .05-.11 6.05 6.05 0 0 1 .05-.1 6.05 6.05 0 0 1 .05-.1 6.05 6.05 0 0 1 .05-.1 6.05 6.05 0 0 1 .06-.1 6.05 6.05 0 0 1 .03-.06z" fill="#006c9e" fill-opacity=".14"/><path d="M7.56 4.54A7.56 7.56 0 0 0 0 12.1a7.56 7.56 0 0 0 0 .05 7.56 7.56 0 0 0 7.56 7.5h27.21a1.51 1.51 0 0 1 1.51 1.52 1.51 1.51 0 0 1-1.5 1.5h-23.9a7.56 7.56 0 0 0-6.9 4.48l-2.72 6.11h6.62L9.5 29.6a1.51 1.51 0 0 1 1.37-.88h23.9a7.56 7.56 0 0 0 7.55-7.55 7.56 7.56 0 0 0 0-.06 7.56 7.56 0 0 0-7.56-7.5H7.56a1.51 1.51 0 0 1-1.51-1.52 1.51 1.51 0 0 1 1.5-1.5h11.42a6.05 6.05 0 0 1-.03-.06 6.05 6.05 0 0 1-.06-.1 6.05 6.05 0 0 1-.05-.1 6.05 6.05 0 0 1-.06-.1 6.05 6.05 0 0 1-.05-.1 6.05 6.05 0 0 1-.04-.1 6.05 6.05 0 0 1-.05-.11 6.05 6.05 0 0 1-.04-.1 6.05 6.05 0 0 1-.04-.11 6.05 6.05 0 0 1-.04-.11 6.05 6.05 0 0 1-.04-.1 6.05 6.05 0 0 1-.04-.12 6.05 6.05 0 0 1-.03-.1 6.05 6.05 0 0 1-.03-.11 6.05 6.05 0 0 1-.03-.11 6.05 6.05 0 0 1-.03-.11 6.05 6.05 0 0 1-.03-.11 6.05 6.05 0 0 1-.02-.12 6.05 6.05 0 0 1-.02-.1 6.05 6.05 0 0 1-.02-.12 6.05 6.05 0 0 1-.02-.11 6.05 6.05 0 0 1-.01-.11 6.05 6.05 0 0 1-.01-.12 6.05 6.05 0 0 1-.02-.11 6.05 6.05 0 0 1 0-.11 6.05 6.05 0 0 1-.01-.12 6.05 6.05 0 0 1 0-.11 6.05 6.05 0 0 1 0-.11 6.05 6.05 0 0 1 0-.07 6.05 6.05 0 0 1 0-.11 6.05 6.05 0 0 1 0-.11 6.05 6.05 0 0 1 0-.12 6.05 6.05 0 0 1 .01-.11 6.05 6.05 0 0 1 0-.11 6.05 6.05 0 0 1 .02-.12 6.05 6.05 0 0 1 .02-.11 6.05 6.05 0 0 1 .01-.11 6.05 6.05 0 0 1 .02-.12 6.05 6.05 0 0 1 .02-.1 6.05 6.05 0 0 1 .02-.12 6.05 6.05 0 0 1 .03-.1 6.05 6.05 0 0 1 .02-.12 6.05 6.05 0 0 1 .03-.11 6.05 6.05 0 0 1 .03-.1 6.05 6.05 0 0 1 .03-.12 6.05 6.05 0 0 1 .04-.1 6.05 6.05 0 0 1 .04-.11 6.05 6.05 0 0 1 .03-.11 6.05 6.05 0 0 1 .04-.1 6.05 6.05 0 0 1 .05-.11 6.05 6.05 0 0 1 .04-.1A6.05 6.05 0 0 1 18.7 5a6.05 6.05 0 0 1 .05-.1 6.05 6.05 0 0 1 .05-.1 6.05 6.05 0 0 1 .05-.1 6.05 6.05 0 0 1 .05-.1 6.05 6.05 0 0 1 .04-.06z" fill="#006c9e" fill-opacity=".14"/><path d="M7.56 4.54A7.56 7.56 0 0 0 0 12.1a7.56 7.56 0 0 0 0 .05 7.56 7.56 0 0 0 7.56 7.5h27.21a1.51 1.51 0 0 1 1.51 1.52 1.51 1.51 0 0 1-1.5 1.5h-23.9a7.56 7.56 0 0 0-6.9 4.48l-2.72 6.11h6.62l1.63-3.66a1.51 1.51 0 0 1 1.37-.88h23.9a7.56 7.56 0 0 0 7.55-7.55 7.56 7.56 0 0 0 0-.06 7.56 7.56 0 0 0-7.56-7.5H7.56a1.51 1.51 0 0 1-1.51-1.52 1.51 1.51 0 0 1 1.51-1.5h3.85a6.05 6.05 0 0 1-.03-.06 6.05 6.05 0 0 1-.06-.1 6.05 6.05 0 0 1-.05-.1 6.05 6.05 0 0 1-.05-.1 6.05 6.05 0 0 1-.05-.1 6.05 6.05 0 0 1-.05-.1 6.05 6.05 0 0 1-.05-.11 6.05 6.05 0 0 1-.04-.1 6.05 6.05 0 0 1-.04-.11 6.05 6.05 0 0 1-.04-.11 6.05 6.05 0 0 1-.04-.1 6.05 6.05 0 0 1-.04-.12 6.05 6.05 0 0 1-.03-.1 6.05 6.05 0 0 1-.03-.11 6.05 6.05 0 0 1-.03-.11 6.05 6.05 0 0 1-.03-.11 6.05 6.05 0 0 1-.03-.11 6.05 6.05 0 0 1-.02-.12 6.05 6.05 0 0 1-.02-.1 6.05 6.05 0 0 1-.02-.12 6.05 6.05 0 0 1-.02-.11 6.05 6.05 0 0 1-.01-.11 6.05 6.05 0 0 1-.01-.12 6.05 6.05 0 0 1-.01-.11 6.05 6.05 0 0 1-.01-.11 6.05 6.05 0 0 1 0-.12 6.05 6.05 0 0 1-.01-.11 6.05 6.05 0 0 1 0-.11 6.05 6.05 0 0 1 0-.07 6.05 6.05 0 0 1 0-.11 6.05 6.05 0 0 1 0-.11 6.05 6.05 0 0 1 0-.12 6.05 6.05 0 0 1 .01-.11 6.05 6.05 0 0 1 .01-.11 6.05 6.05 0 0 1 .01-.12 6.05 6.05 0 0 1 .02-.11 6.05 6.05 0 0 1 .01-.11 6.05 6.05 0 0 1 .02-.12 6.05 6.05 0 0 1 .02-.1 6.05 6.05 0 0 1 .02-.12 6.05 6.05 0 0 1 .03-.1 6.05 6.05 0 0 1 .02-.12 6.05 6.05 0 0 1 .03-.11 6.05 6.05 0 0 1 .03-.1 6.05 6.05 0 0 1 .04-.12 6.05 6.05 0 0 1 .03-.1 6.05 6.05 0 0 1 .04-.11 6.05 6.05 0 0 1 .04-.11 6.05 6.05 0 0 1 .04-.1 6.05 6.05 0 0 1 .04-.11 6.05 6.05 0 0 1 .04-.1 6.05 6.05 0 0 1 .05-.11 6.05 6.05 0 0 1 .05-.1 6.05 6.05 0 0 1 .05-.1 6.05 6.05 0 0 1 .05-.1 6.05 6.05 0 0 1 .06-.1 6.05 6.05 0 0 1 .03-.06z" fill="#006c9e" fill-opacity=".14"/><path d="M3.02 6.05zm0 0A7.56 7.56 0 0 0 0 12.09a7.56 7.56 0 0 0 0 .05 7.56 7.56 0 0 0 7.56 7.51h27.21a1.51 1.51 0 0 1 1.51 1.52 1.51 1.51 0 0 1-1.5 1.5h-23.9a7.56 7.56 0 0 0-6.9 4.48l-2.72 6.11h6.62L9.5 29.6a1.51 1.51 0 0 1 1.37-.88h23.9a7.56 7.56 0 0 0 7.55-7.55 7.56 7.56 0 0 0 0-.06 7.56 7.56 0 0 0-7.56-7.5H7.56a1.51 1.51 0 0 1-1.51-1.52 1.51 1.51 0 0 1 .19-.73 6.05 6.05 0 0 1-.01 0 6.05 6.05 0 0 1-.1-.05 6.05 6.05 0 0 1-.1-.06 6.05 6.05 0 0 1-.1-.06 6.05 6.05 0 0 1-.1-.06 6.05 6.05 0 0 1-.09-.06 6.05 6.05 0 0 1-.1-.06 6.05 6.05 0 0 1-.09-.07 6.05 6.05 0 0 1-.09-.07 6.05 6.05 0 0 1-.09-.06 6.05 6.05 0 0 1-.09-.08 6.05 6.05 0 0 1-.09-.07 6.05 6.05 0 0 1-.08-.07 6.05 6.05 0 0 1-.09-.08 6.05 6.05 0 0 1-.08-.07 6.05 6.05 0 0 1-.08-.08 6.05 6.05 0 0 1-.08-.08 6.05 6.05 0 0 1-.08-.08 6.05 6.05 0 0 1-.08-.09 6.05 6.05 0 0 1-.08-.08 6.05 6.05 0 0 1-.07-.09 6.05 6.05 0 0 1-.07-.08 6.05 6.05 0 0 1-.08-.1 6.05 6.05 0 0 1-.07-.08 6.05 6.05 0 0 1-.06-.1 6.05 6.05 0 0 1-.07-.09 6.05 6.05 0 0 1-.06-.09 6.05 6.05 0 0 1-.07-.1 6.05 6.05 0 0 1-.06-.09 6.05 6.05 0 0 1-.06-.1 6.05 6.05 0 0 1-.05-.1 6.05 6.05 0 0 1-.06-.1 6.05 6.05 0 0 1-.05-.1 6.05 6.05 0 0 1-.05-.1 6.05 6.05 0 0 1-.05-.1 6.05 6.05 0 0 1-.05-.1 6.05 6.05 0 0 1-.05-.1 6.05 6.05 0 0 1-.04-.11 6.05 6.05 0 0 1-.04-.1 6.05 6.05 0 0 1-.04-.11 6.05 6.05 0 0 1-.04-.11 6.05 6.05 0 0 1-.04-.1 6.05 6.05 0 0 1-.03-.12 6.05 6.05 0 0 1-.03-.1 6.05 6.05 0 0 1-.03-.12 6.05 6.05 0 0 1-.03-.1 6.05 6.05 0 0 1-.02-.12 6.05 6.05 0 0 1-.03-.1 6.05 6.05 0 0 1-.02-.12 6.05 6.05 0 0 1-.02-.11 6.05 6.05 0 0 1-.02-.11 6.05 6.05 0 0 1-.01-.12 6.05 6.05 0 0 1-.01-.11 6.05 6.05 0 0 1-.01-.11 6.05 6.05 0 0 1-.01-.12 6.05 6.05 0 0 1 0-.11 6.05 6.05 0 0 1-.01-.11 6.05 6.05 0 0 1 0-.12 6.05 6.05 0 0 1 0-.03z" fill="#006c9e" fill-opacity=".14"/><path d="M6.9 13.45a6.05 6.05 0 0 1-.05.08 6.05 6.05 0 0 1-.05.1 6.05 6.05 0 0 1-.06.1 6.05 6.05 0 0 1-.06.1 6.05 6.05 0 0 1-.06.09 6.05 6.05 0 0 1-.07.1 6.05 6.05 0 0 1-.06.09 6.05 6.05 0 0 1-.07.09 6.05 6.05 0 0 1-.07.09 6.05 6.05 0 0 1-.07.09 6.05 6.05 0 0 1-.07.08 6.05 6.05 0 0 1-.07.1 6.05 6.05 0 0 1-.08.08 6.05 6.05 0 0 1-.08.08 6.05 6.05 0 0 1-.07.08 6.05 6.05 0 0 1-.08.08 6.05 6.05 0 0 1-.09.08 6.05 6.05 0 0 1-.08.08 6.05 6.05 0 0 1-.08.08 6.05 6.05 0 0 1-.09.07 6.05 6.05 0 0 1-.09.07 6.05 6.05 0 0 1-.08.08 6.05 6.05 0 0 1-.1.07 6.05 6.05 0 0 1-.09.06 6.05 6.05 0 0 1-.09.07 6.05 6.05 0 0 1-.1.06 6.05 6.05 0 0 1-.09.07 6.05 6.05 0 0 1-.1.06 6.05 6.05 0 0 1-.09.06 6.05 6.05 0 0 1-.1.05 6.05 6.05 0 0 1-.1.06 6.05 6.05 0 0 1-.1.05 6.05 6.05 0 0 1-.1.05 6.05 6.05 0 0 1-.1.05 6.05 6.05 0 0 1-.1.05 6.05 6.05 0 0 1-.1.05 6.05 6.05 0 0 1-.11.04 6.05 6.05 0 0 1-.11.04 6.05 6.05 0 0 1-.1.04 6.05 6.05 0 0 1-.11.04 6.05 6.05 0 0 1-.11.04 6.05 6.05 0 0 1-.11.03 6.05 6.05 0 0 1-.1.03 6.05 6.05 0 0 1-.12.03 6.05 6.05 0 0 1-.1.03 6.05 6.05 0 0 1-.12.03 6.05 6.05 0 0 1-.11.02 6.05 6.05 0 0 1-.11.02 6.05 6.05 0 0 1-.11.02 6.05 6.05 0 0 1-.12.02 6.05 6.05 0 0 1-.11.01 6.05 6.05 0 0 1-.11.01 6.05 6.05 0 0 1-.12.02 6.05 6.05 0 0 1-.11 0 6.05 6.05 0 0 1-.11.01 6.05 6.05 0 0 1-.12 0 6.05 6.05 0 0 1-.11 0 6.05 6.05 0 0 1-.06 0 6.05 6.05 0 0 1-.05 0 7.56 7.56 0 0 0 6.04 3.02h27.21a1.51 1.51 0 0 1 1.51 1.52 1.51 1.51 0 0 1-1.5 1.5h-23.9a7.56 7.56 0 0 0-6.9 4.48l-2.72 6.1h6.62l1.63-3.65a1.51 1.51 0 0 1 1.37-.87h23.9a7.56 7.56 0 0 0 7.55-7.56 7.56 7.56 0 0 0 0-.06 7.56 7.56 0 0 0-7.56-7.5H7.56a1.51 1.51 0 0 1-.67-.16z" fill="#006c9e" fill-opacity=".14"/><path d="M11.34 13.6a6.05 6.05 0 0 1 .05.08 6.05 6.05 0 0 1 .05.1 6.05 6.05 0 0 1 .05.1 6.05 6.05 0 0 1 .05.1 6.05 6.05 0 0 1 .05.11 6.05 6.05 0 0 1 .05.1 6.05 6.05 0 0 1 .04.11 6.05 6.05 0 0 1 .04.1 6.05 6.05 0 0 1 .04.11 6.05 6.05 0 0 1 .04.11 6.05 6.05 0 0 1 .03.1 6.05 6.05 0 0 1 .04.12 6.05 6.05 0 0 1 .03.1 6.05 6.05 0 0 1 .03.12 6.05 6.05 0 0 1 .03.1 6.05 6.05 0 0 1 .02.12 6.05 6.05 0 0 1 .03.1 6.05 6.05 0 0 1 .02.12 6.05 6.05 0 0 1 .02.11 6.05 6.05 0 0 1 .01.11 6.05 6.05 0 0 1 .02.12 6.05 6.05 0 0 1 .01.11 6.05 6.05 0 0 1 .01.11 6.05 6.05 0 0 1 .01.12 6.05 6.05 0 0 1 0 .11 6.05 6.05 0 0 1 .01.11 6.05 6.05 0 0 1 0 .12 6.05 6.05 0 0 1 0 .06 6.05 6.05 0 0 1 0 .11 6.05 6.05 0 0 1 0 .12 6.05 6.05 0 0 1 0 .11 6.05 6.05 0 0 1-.01.11 6.05 6.05 0 0 1-.01.12 6.05 6.05 0 0 1-.01.11 6.05 6.05 0 0 1-.02.11 6.05 6.05 0 0 1-.01.12 6.05 6.05 0 0 1-.02.1 6.05 6.05 0 0 1-.02.12 6.05 6.05 0 0 1-.02.11 6.05 6.05 0 0 1-.03.11 6.05 6.05 0 0 1-.02.11 6.05 6.05 0 0 1-.03.11 6.05 6.05 0 0 1-.03.11 6.05 6.05 0 0 1-.04.11 6.05 6.05 0 0 1-.03.1 6.05 6.05 0 0 1-.04.12 6.05 6.05 0 0 1-.04.1 6.05 6.05 0 0 1-.04.11 6.05 6.05 0 0 1-.04.1 6.05 6.05 0 0 1-.04.1 6.05 6.05 0 0 1-.05.11 6.05 6.05 0 0 1-.05.1 6.05 6.05 0 0 1-.05.1 6.05 6.05 0 0 1-.05.1 6.05 6.05 0 0 1-.06.1 6.05 6.05 0 0 1-.05.1 6.05 6.05 0 0 1-.02.04h23.48a1.51 1.51 0 0 1 1.52 1.52 1.51 1.51 0 0 1-1.52 1.5H10.88a7.56 7.56 0 0 0-6.9 4.48l-2.72 6.11h6.62l1.63-3.66a1.51 1.51 0 0 1 1.37-.88h23.9a7.56 7.56 0 0 0 7.55-7.55 7.56 7.56 0 0 0 0-.06 7.56 7.56 0 0 0-7.56-7.5z" fill="#006c9e" fill-opacity=".14"/><path d="M18.86 13.6a6.05 6.05 0 0 1 0 .01 6.05 6.05 0 0 1 .06.1 6.05 6.05 0 0 1 .05.1 6.05 6.05 0 0 1 .05.1 6.05 6.05 0 0 1 .05.1 6.05 6.05 0 0 1 .05.1 6.05 6.05 0 0 1 .05.11 6.05 6.05 0 0 1 .04.1 6.05 6.05 0 0 1 .04.11 6.05 6.05 0 0 1 .04.1 6.05 6.05 0 0 1 .04.12 6.05 6.05 0 0 1 .03.1 6.05 6.05 0 0 1 .04.11 6.05 6.05 0 0 1 .03.11 6.05 6.05 0 0 1 .03.11 6.05 6.05 0 0 1 .03.11 6.05 6.05 0 0 1 .02.11 6.05 6.05 0 0 1 .03.11 6.05 6.05 0 0 1 .02.12 6.05 6.05 0 0 1 .02.1 6.05 6.05 0 0 1 .01.12 6.05 6.05 0 0 1 .02.11 6.05 6.05 0 0 1 .01.12 6.05 6.05 0 0 1 .01.1 6.05 6.05 0 0 1 0 .12 6.05 6.05 0 0 1 .02.12 6.05 6.05 0 0 1 0 .11 6.05 6.05 0 0 1 0 .11 6.05 6.05 0 0 1 0 .06 6.05 6.05 0 0 1 0 .12 6.05 6.05 0 0 1 0 .11 6.05 6.05 0 0 1 0 .11 6.05 6.05 0 0 1-.01.12 6.05 6.05 0 0 1-.01.11 6.05 6.05 0 0 1-.01.11 6.05 6.05 0 0 1-.02.12 6.05 6.05 0 0 1-.01.11 6.05 6.05 0 0 1-.02.11 6.05 6.05 0 0 1-.02.11 6.05 6.05 0 0 1-.02.12 6.05 6.05 0 0 1-.03.1 6.05 6.05 0 0 1-.02.12 6.05 6.05 0 0 1-.03.1 6.05 6.05 0 0 1-.03.12 6.05 6.05 0 0 1-.04.1 6.05 6.05 0 0 1-.03.12 6.05 6.05 0 0 1-.04.1 6.05 6.05 0 0 1-.04.1 6.05 6.05 0 0 1-.04.12 6.05 6.05 0 0 1-.04.1 6.05 6.05 0 0 1-.05.1 6.05 6.05 0 0 1-.04.1 6.05 6.05 0 0 1-.05.11 6.05 6.05 0 0 1-.05.1 6.05 6.05 0 0 1-.05.1 6.05 6.05 0 0 1-.06.1 6.05 6.05 0 0 1-.05.1 6.05 6.05 0 0 1-.01.01h15.94a1.51 1.51 0 0 1 1.51 1.52 1.51 1.51 0 0 1-1.5 1.5h-23.9a7.56 7.56 0 0 0-6.9 4.48l-2.72 6.11h6.62L9.5 29.6a1.51 1.51 0 0 1 1.37-.88h23.9a7.56 7.56 0 0 0 7.55-7.55 7.56 7.56 0 0 0 0-.06 7.56 7.56 0 0 0-7.56-7.5z" fill="#006c9e" fill-opacity=".14"/><path d="M26.42 13.6a6.05 6.05 0 0 1 0 .01 6.05 6.05 0 0 1 .06.1 6.05 6.05 0 0 1 .05.1 6.05 6.05 0 0 1 .05.1 6.05 6.05 0 0 1 .05.1 6.05 6.05 0 0 1 .05.1 6.05 6.05 0 0 1 .04.11 6.05 6.05 0 0 1 .05.1 6.05 6.05 0 0 1 .04.11 6.05 6.05 0 0 1 .04.1 6.05 6.05 0 0 1 .04.12 6.05 6.05 0 0 1 .03.1 6.05 6.05 0 0 1 .04.11 6.05 6.05 0 0 1 .03.11 6.05 6.05 0 0 1 .03.11 6.05 6.05 0 0 1 .03.11 6.05 6.05 0 0 1 .02.11 6.05 6.05 0 0 1 .02.11 6.05 6.05 0 0 1 .03.12 6.05 6.05 0 0 1 .02.1 6.05 6.05 0 0 1 .01.12 6.05 6.05 0 0 1 .02.11 6.05 6.05 0 0 1 .01.12 6.05 6.05 0 0 1 .01.1 6.05 6.05 0 0 1 0 .12 6.05 6.05 0 0 1 .02.12 6.05 6.05 0 0 1 0 .11 6.05 6.05 0 0 1 0 .11 6.05 6.05 0 0 1 0 .06 6.05 6.05 0 0 1 0 .12 6.05 6.05 0 0 1 0 .11 6.05 6.05 0 0 1 0 .11 6.05 6.05 0 0 1-.02.12 6.05 6.05 0 0 1 0 .11 6.05 6.05 0 0 1-.02.11 6.05 6.05 0 0 1-.01.12 6.05 6.05 0 0 1-.02.11 6.05 6.05 0 0 1-.01.11 6.05 6.05 0 0 1-.03.11 6.05 6.05 0 0 1-.02.12 6.05 6.05 0 0 1-.02.1 6.05 6.05 0 0 1-.03.12 6.05 6.05 0 0 1-.03.1 6.05 6.05 0 0 1-.03.12 6.05 6.05 0 0 1-.03.1 6.05 6.05 0 0 1-.03.12 6.05 6.05 0 0 1-.04.1 6.05 6.05 0 0 1-.04.1 6.05 6.05 0 0 1-.04.12 6.05 6.05 0 0 1-.04.1 6.05 6.05 0 0 1-.05.1 6.05 6.05 0 0 1-.04.1 6.05 6.05 0 0 1-.05.11 6.05 6.05 0 0 1-.05.1 6.05 6.05 0 0 1-.06.1 6.05 6.05 0 0 1-.05.1 6.05 6.05 0 0 1-.06.1 6.05 6.05 0 0 1 0 .01h8.38a1.51 1.51 0 0 1 1.51 1.52 1.51 1.51 0 0 1-1.5 1.5h-23.9a7.56 7.56 0 0 0-6.9 4.48l-2.72 6.11h6.62L9.5 29.6a1.51 1.51 0 0 1 1.37-.88h23.9a7.56 7.56 0 0 0 7.55-7.55 7.56 7.56 0 0 0 0-.06 7.56 7.56 0 0 0-7.56-7.5z" fill="#006c9e" fill-opacity=".14"/></svg>